<?xml version="1.0" standalone="no"?>
<!DOCTYPE svg PUBLIC "-//W3C//DTD SVG 1.1//EN" "http://www.w3.org/Graphics/SVG/1.1/DTD/svg11.dtd" >
<svg>
<metadata>
Created by FontForge 20090622 at Wed Jul 10 04:48:09 2013
 By ffonts
Copyright (c) 2012, vernon adams (vern@newtypography.co.uk), with Reserved Font Names 'Monda'
</metadata>
<defs>
<font id="Monda-Regular" horiz-adv-x="1250" >
  <font-face 
    font-family="Monda"
    font-weight="400"
    font-stretch="normal"
    units-per-em="2048"
    panose-1="2 0 5 3 0 0 0 0 0 0"
    ascent="1638"
    descent="-410"
    x-height="1060"
    cap-height="1446"
    bbox="-206 -756 2692 2106"
    underline-thickness="0"
    underline-position="0"
    unicode-range="U+0020-U+FB04"
  />
<missing-glyph horiz-adv-x="748" 
d="M68 0v1365h544v-1365h-544zM136 68h408v1229h-408v-1229z" />
    <glyph glyph-name="uniFB01" unicode="fi" horiz-adv-x="1386" 
d="M996 1251v195h188v-195h-188zM287 0v918h-177v142h177v162q0 147 80.5 215t245.5 68h119l12 -133h-116q-153 0 -153 -132v-180h709v-1060h-188v918h-521v-918h-188z" />
    <glyph glyph-name="uniFB02" unicode="fl" horiz-adv-x="1486" 
d="M1320 -8q-93 0 -152 14t-104 53q-84 73 -84 299v1014h-352q-153 0 -153 -133v-179h257v-142h-257v-918h-188v918h-177v142h177v161q0 147 80.5 215.5t245.5 68.5h555v-1149q0 -128 38 -167t157 -39h33l-22 -158h-54z" />
    <glyph glyph-name=".notdef" horiz-adv-x="748" 
d="M68 0v1365h544v-1365h-544zM136 68h408v1229h-408v-1229z" />
    <glyph glyph-name="glyph1" horiz-adv-x="0" 
 />
    <glyph glyph-name="glyph2" horiz-adv-x="682" 
 />
    <glyph glyph-name="space" unicode=" " horiz-adv-x="512" 
 />
    <glyph glyph-name="exclam" unicode="!" horiz-adv-x="768" 
d="M280 0v206h204v-206h-204zM353 371q-67 690 -67 1075h202q0 -314 -79 -1075h-56z" />
    <glyph glyph-name="quotedbl" unicode="&#x22;" horiz-adv-x="890" 
d="M220 930l-44 576h205l-49 -576h-112zM553 930l-44 576h205l-49 -576h-112z" />
    <glyph glyph-name="numbersign" unicode="#" horiz-adv-x="1284" 
d="M180 0l87 475h-181v119h203l57 316h-236v119h258l76 417h170l-74 -417h301l76 417h170l-74 -417h185v-119h-206l-56 -316h238v-119h-259l-84 -475h-178l87 475h-298l-84 -475h-178zM463 594h299l57 316h-300z" />
    <glyph glyph-name="dollar" unicode="$" horiz-adv-x="1303" 
d="M1164 406q0 -410 -434 -427v-221h-110v222q-270 14 -476 133l71 154q90 -53 201.5 -85t203.5 -39v537l-167 56q-103 34 -163 77.5t-89.5 110t-29.5 157t24 154.5q83 221 425 232v171h110v-171q268 -11 411 -100l-49 -157q-162 88 -362 95v-471l149 -50q103 -36 163 -80
q122 -90 122 -298zM620 872v432q-104 -7 -165 -38q-81 -40 -87 -129q-2 -29 -2 -50q0 -72 30.5 -111t118.5 -69zM730 644v-503q60 3 102 15q108 31 134 146q12 53 12 120t-20 101q-33 57 -156 97z" />
    <glyph glyph-name="percent" unicode="%" horiz-adv-x="2048" 
d="M470 794q114 0 142 99q16 54 15 147v93q0 148 -38.5 190t-99.5 42q-61 1 -90 -11q-55 -22 -69.5 -76.5t-14.5 -142.5v-95q0 -150 38.5 -198t116.5 -48zM703 775.5q-69 -97.5 -232.5 -97.5t-231 97.5t-67.5 281.5v53q0 186 66.5 278.5t233.5 92.5t232.5 -95t67.5 -275v-54
q0 -184 -69 -281.5zM1574 97q114 0 142 99q16 54 15 147v93q0 148 -38.5 190t-99.5 42t-90 -12q-55 -22 -69.5 -76t-14.5 -142v-95q0 -150 38.5 -198t116.5 -48zM1807 78.5q-69 -97.5 -232.5 -97.5t-231 97.5t-67.5 281.5v53q0 186 66.5 278.5t233.5 92.5t232.5 -95
t67.5 -275v-54q0 -184 -69 -281.5zM668 0l543 1446h149l-538 -1446h-154z" />
    <glyph glyph-name="ampersand" unicode="&#x26;" horiz-adv-x="1500" 
d="M176 436q0 158 60.5 248t202.5 132q-63 57 -95 95q-80 94 -80 231q0 341 425 341q181 0 257 -23.5t108 -54.5q70 -66 70 -200v-101h-166v60q0 101 -54 134t-165 33t-162 -15t-87 -56t-36 -115.5t26 -118.5t98 -119l522 -497q1 14 1 45v323h175v-278q0 -160 -19 -239
l175 -167l-104 -113l-142 133q-120 -138 -474 -138q-536 0 -536 460zM456 205q78 -79 249 -79t246.5 19t111.5 85l-525 493q-147 -40 -158 -206q-2 -29 -2 -72q0 -161 78 -240z" />
    <glyph glyph-name="quotesingle" unicode="'" horiz-adv-x="896" 
d="M223 930l-44 576h205l-49 -576h-112z" />
    <glyph glyph-name="parenleft" unicode="(" horiz-adv-x="768" 
d="M644 -150q-137 0 -249 39q-69 24 -141 107q-36 41 -58 131.5t-23 168.5t-1 144v519q0 202 10 250.5t21 95t29 74t43 62t60 54t98.5 46t210.5 26.5v-151q-176 0 -227 -86q-20 -34 -36.5 -75t-16.5 -259v-587q0 -215 16 -255q40 -97 87 -119q75 -35 177 -35v-150z" />
    <glyph glyph-name="parenright" unicode=")" horiz-adv-x="768" 
d="M124 -150v151q176 -1 227 85q20 34 36.5 75.5t16.5 259.5v587q0 215 -16 255q-40 97 -87 119q-75 35 -177 35v150q137 0 249 -39q69 -24 141 -107q36 -41 58 -131.5t23 -168.5t1 -144v-519q0 -202 -10 -250.5t-21 -95t-29 -74t-43 -62t-60 -54t-98.5 -46t-210.5 -26.5z
" />
    <glyph glyph-name="asterisk" unicode="*" horiz-adv-x="1024" 
d="M423 599l29 325l-273 -174l-80 161l290 117l-280 142l95 153l247 -190l-28 313h178l-30 -325l273 174l81 -161l-291 -117l280 -142l-95 -153l-247 190l29 -313h-178z" />
    <glyph glyph-name="plus" unicode="+" horiz-adv-x="1024" 
d="M437 156v338h-275v148h275v326h151v-326h274v-148h-274v-338h-151z" />
    <glyph glyph-name="comma" unicode="," horiz-adv-x="641" 
d="M277 -338l-81 44q98 118 124 202q14 46 13 92h-141v233h257v-183q0 -173 -120 -330q-26 -34 -52 -58z" />
    <glyph glyph-name="hyphen" unicode="-" horiz-adv-x="1024" 
d="M162 494v148h700v-148h-700z" />
    <glyph glyph-name="period" unicode="." horiz-adv-x="628" 
d="M186 0v242h256v-242h-256z" />
    <glyph glyph-name="slash" unicode="/" horiz-adv-x="768" 
d="M521 1506h183l-453 -1506h-187z" />
    <glyph glyph-name="zero" unicode="0" 
d="M630 140q113 0 166 37q29 20 50 41q71 71 71 332v282q0 176 -14 250q-41 224 -256 224q-186 0 -251 -114q-40 -70 -51 -158.5t-11 -217.5v-197q0 -214 30 -303q60 -176 266 -176zM773 -8q-63 -14 -151.5 -14t-167.5 22q-153 43 -220.5 144.5t-84.5 221.5t-17 270v154
q0 210 16 283q34 152 77 214q126 181 383 181q306 0 412 -177q65 -107 81.5 -230t16.5 -284v-127q0 -202 -15.5 -276t-33 -126t-42 -88.5t-61.5 -73t-83.5 -58.5t-109.5 -36z" />
    <glyph glyph-name="one" unicode="1" 
d="M206 0v155h401v1122l-374 -40l-18 159l429 50h164v-1291h354v-155h-956z" />
    <glyph glyph-name="two" unicode="2" 
d="M231 0l-19 158l488 531q133 144 151.5 177.5t36 73.5t17.5 117q0 137 -58 193t-193 56q-84 0 -135 -11t-88 -42q-66 -55 -66 -229h-201q0 444 475 444q228 0 342 -115.5t114 -280.5t-59.5 -258t-122.5 -158.5t-71 -74.5l-401 -425h646v-156h-856z" />
    <glyph glyph-name="three" unicode="3" 
d="M909 1088q0 218 -227 218q-118 0 -164 -22t-66 -53q-42 -66 -42 -206h-192q0 183 62 279.5t161.5 130t233.5 33.5q195 0 308.5 -93.5t113.5 -283.5q0 -146 -54.5 -224.5t-177.5 -98.5q131 -27 196 -111t65 -274t-116 -297.5t-331 -107.5q-163 0 -258.5 43t-145.5 140
t-67 270h192q12 -178 77 -236q36 -32 85 -43.5t128 -11.5q127 0 186 65t59 217t-55.5 201.5t-136 58.5t-156.5 9v149q160 0 216 26t81 63.5t25 158.5z" />
    <glyph glyph-name="four" unicode="4" 
d="M783 0v351h-640v157l529 938h209l-514 -940h416v331h167v-331h212v-155h-212v-351h-167z" />
    <glyph glyph-name="five" unicode="5" 
d="M406 819q101 92 263 92q220 0 334 -122t114 -336.5t-133.5 -344.5t-351.5 -130q-104 0 -197 21.5t-145 45.5t-117 62l53 153q62 -41 106 -63q114 -57 292 -57q219 0 283 172q21 56 21 127q0 152 -69 237.5t-214 85.5q-70 0 -124.5 -24.5t-138.5 -85.5l-146 60l51 734h737
v-165h-576z" />
    <glyph glyph-name="six" unicode="6" 
d="M833 1446l-357 -605q84 37 178 37q232 0 355 -108.5t123 -347.5q0 -334 -292 -419q-86 -25 -193 -25q-218 0 -343.5 109t-125.5 333t141 477l314 549h200zM436 649.5q-71 -65.5 -71 -226t69.5 -222t216 -61.5t220.5 61.5t74 230t-77 226t-219 57.5t-213 -65.5z" />
    <glyph glyph-name="seven" unicode="7" 
d="M369 0l500 1291h-680v155h881v-157l-490 -1289h-211z" />
    <glyph glyph-name="eight" unicode="8" 
d="M985.5 76q-132.5 -98 -362.5 -98t-360.5 98t-130.5 291q0 270 306 406q-125 58 -180.5 110t-76.5 105t-21 135t36 153q36 72 102 113q126 79 326.5 79t333 -83t132.5 -277q0 -134 -77 -206t-202 -129q307 -136 307 -406q0 -193 -132.5 -291zM399.5 193.5
q76.5 -53.5 225.5 -53.5t225.5 53.5t76.5 172.5t-83.5 188.5t-218.5 134.5q-138 -67 -197.5 -117t-82 -96.5t-22.5 -103.5q0 -125 76.5 -178.5zM625 846q157 78 183.5 102t56.5 58t30 116t-63 133t-207 51t-207 -51t-63 -148q1 -125 185 -219z" />
    <glyph glyph-name="nine" unicode="9" 
d="M452 0l357 605q-84 -37 -178 -37q-232 0 -355.5 108.5t-123.5 347.5q-1 334 293 419q86 25 193 25q218 0 343.5 -109t125.5 -333t-141 -477l-314 -549h-200zM849 796.5q71 65.5 71 226t-69.5 222t-216 61.5t-221 -61.5t-74.5 -230t77 -226t219.5 -57.5t213.5 65.5z" />
    <glyph glyph-name="colon" unicode=":" horiz-adv-x="768" 
d="M256 818v242h256v-242h-256zM256 99v242h256v-242h-256z" />
    <glyph glyph-name="semicolon" unicode=";" horiz-adv-x="768" 
d="M349 -128l-81 44q98 118 124 202q14 46 13 92h-141v233h257v-183q0 -173 -120 -330q-26 -34 -52 -58zM248 818v242h256v-242h-256z" />
    <glyph glyph-name="less" unicode="&#x3c;" 
d="M1042 0l-886 471v201l886 472v-203l-731 -368l731 -364v-209z" />
    <glyph glyph-name="equal" unicode="=" 
d="M224 467v148h802v-148h-802zM224 805v148h802v-148h-802z" />
    <glyph glyph-name="greater" unicode="&#x3e;" 
d="M208 0v203l731 368l-731 364v209l886 -471v-201z" />
    <glyph glyph-name="question" unicode="?" horiz-adv-x="1240" 
d="M466 431l274 364q116 156 134 229q9 37 9 79q0 98 -50 150.5t-190 52.5t-203.5 -54t-63.5 -160v-53h-197v32q0 223 108.5 310t379 87t374.5 -160q55 -84 55 -172t-17 -145.5t-68 -132.5t-177 -208l-208 -219h-160zM440 0v206h204v-206h-204z" />
    <glyph glyph-name="at" unicode="@" horiz-adv-x="2048" 
d="M1419 -228q-158 -30 -334.5 -30t-322.5 44.5t-232 125.5q-168 158 -168 420v563q0 337 220 479q169 108 480 109q187 0 271 -26.5t130 -47t78 -51.5t56 -58t51.5 -101t27.5 -227v-493q0 -68 14 -88t37.5 -25.5t64.5 -5.5l-20 -148h-40q-124 0 -171 72q-24 36 -40 92
q-48 -72 -150 -126.5t-266 -54.5t-262.5 96.5t-98.5 241.5q0 98 38.5 150t88.5 82q107 64 366 127t260 63q0 174 -46 243.5t-138 101t-251 31.5q-257 0 -383.5 -93t-126.5 -302v-638q0 -207 145.5 -308t406.5 -101q149 0 290 28.5t227 65.5l50 -141q-94 -40 -252 -70z
M946 539q0 -196 210 -196q100 0 209 51t132 128v303q-13 -6 -203 -55t-249 -80t-79 -65t-20 -86z" />
    <glyph glyph-name="A" unicode="A" horiz-adv-x="1428" 
d="M86 0l539 1446h177l540 -1446h-205l-98 282h-645l-99 -282h-209zM442 425h551l-274 791z" />
    <glyph glyph-name="B" unicode="B" horiz-adv-x="1420" 
d="M218 0v1446h524q336 0 426 -149q54 -89 54 -248q-5 -215 -182 -276q124 -28 188 -124t64 -238q0 -215 -121 -313t-385 -98h-568zM420 149h351q170 0 246.5 55t76.5 229q0 263 -274 263h-400v-547zM420 833h371q129 0 179.5 54t50.5 147t-13.5 140t-51 75t-93 37t-152.5 9
h-291v-462z" />
    <glyph glyph-name="C" unicode="C" horiz-adv-x="1456" 
d="M225 219.5q-43 110.5 -43 266.5v454q0 316 164 431q139 97 404.5 97t385.5 -73.5t150 -230.5q14 -70 14 -167l-191 -17q0 146 -25 197.5t-49.5 73.5t-80.5 38.5t-175 16.5t-187 -16q-68 -15 -116 -52q-92 -71 -92 -261v-522q0 -188 93 -251.5t296.5 -63.5t259.5 48
t69 140q7 50 7 120h191q0 -218 -63 -306q-116 -164 -441 -164q-273 0 -400.5 65.5t-170.5 176z" />
    <glyph glyph-name="D" unicode="D" horiz-adv-x="1522" 
d="M420 150h354q218 0 291.5 81t73.5 231v509q0 221 -148 287q-84 38 -217 37h-354v-1145zM218 0v1446h574q415 0 518 -294q30 -86 30 -193v-477q0 -237 -136.5 -359.5t-409.5 -122.5h-576z" />
    <glyph glyph-name="E" unicode="E" horiz-adv-x="1255" 
d="M218 0v1446h903v-150h-702v-476h620v-150h-620v-520h714v-150h-915z" />
    <glyph glyph-name="F" unicode="F" horiz-adv-x="1159" 
d="M218 0v1446h821v-150h-620v-482h584v-150h-584v-664h-201z" />
    <glyph glyph-name="G" unicode="G" horiz-adv-x="1556" 
d="M788 -22q-404 0 -529 200q-73 117 -73 308v454q0 309 180 431q143 97 402 97t379.5 -58.5t158.5 -156t38 -237.5l-184 -15q0 141 -27.5 188.5t-53 67.5t-86 34.5t-183 14.5t-192.5 -16q-70 -15 -124 -52q-106 -73 -106 -261v-522q0 -188 101 -251.5t297.5 -63.5t284 62.5
t87.5 252.5v133h-343v147h545v-735h-110l-25 246q-19 -125 -125.5 -196.5t-311.5 -71.5z" />
    <glyph glyph-name="H" unicode="H" horiz-adv-x="1528" 
d="M212 0v1446h201v-639h702v639h201v-1446h-201v659h-702v-659h-201z" />
    <glyph glyph-name="I" unicode="I" horiz-adv-x="1132" 
d="M190 0v150h276v1147h-276v149h752v-149h-275v-1147h275v-150h-752z" />
    <glyph glyph-name="J" unicode="J" horiz-adv-x="1206" 
d="M522 -17q-115 0 -239 28.5t-181 58.5l55 155q51 -24 157 -50.5t202 -26.5q141 0 206 72t65 215v846h-553v165h754v-1015q0 -213 -114.5 -330.5t-351.5 -117.5z" />
    <glyph glyph-name="K" unicode="K" horiz-adv-x="1418" 
d="M218 0v1446h201v-789l384.5 448l299.5 341h218l-543 -648l572 -798h-223l-490 690l-218 -222v-468h-201z" />
    <glyph glyph-name="L" unicode="L" horiz-adv-x="1145" 
d="M218 0v1446h201v-1291h649v-155h-850z" />
    <glyph glyph-name="M" unicode="M" horiz-adv-x="1778" 
d="M218 0v1446h185l487 -808l492 808h178v-1446h-190v1121l-405 -663h-149l-406 659v-1117h-192z" />
    <glyph glyph-name="N" unicode="N" horiz-adv-x="1594" 
d="M218 0v1446h153l828 -1156v1156h177v-1446h-179l-802 1104v-1104h-177z" />
    <glyph glyph-name="O" unicode="O" horiz-adv-x="1546" 
d="M1069 203.5q90 63.5 90 251.5v523q0 188 -90.5 258t-286.5 70q-304 0 -369 -168q-25 -64 -25 -160v-523q0 -187 98 -251t295.5 -64t287.5 63.5zM233 221q-47 111 -47 265v455q0 311 176 431q142 96 420 96q492 0 563 -366q15 -77 15 -174v-428q0 -302 -173 -424
q-139 -98 -392 -98t-384 66t-178 177z" />
    <glyph glyph-name="P" unicode="P" horiz-adv-x="1326" 
d="M218 0v1446h578q402 0 402 -455q0 -248 -104.5 -355t-300.5 -107h-373v-529h-202zM420 682h377q177 0 195 206q4 38 4 90q0 175 -47.5 245t-146.5 70h-382v-611z" />
    <glyph glyph-name="Q" unicode="Q" horiz-adv-x="1542" 
d="M1069 203.5q90 63.5 90 251.5v523q0 188 -90.5 258t-286.5 70q-304 0 -369 -168q-25 -64 -25 -160v-523q0 -187 98 -251t295.5 -64t287.5 63.5zM895 -17l190 -291l-141 -76l-230 363q-278 12 -403 132t-125 375v455q0 311 176 431q142 96 420 96q492 0 563 -366
q15 -77 15 -174v-428q0 -302 -173 -424q-107 -75 -292 -93z" />
    <glyph glyph-name="R" unicode="R" horiz-adv-x="1464" 
d="M218 0v1446h645q299 0 375 -226q28 -84 28.5 -199.5t-26.5 -194t-69.5 -121t-107.5 -69.5l307 -636h-207l-287 600l-456 -1v-599h-202zM420 752h426q128 0 173.5 69t45.5 195q-1 226 -119 266q-34 12 -77 11h-449v-541z" />
    <glyph glyph-name="S" unicode="S" horiz-adv-x="1304" 
d="M1164 406q0 -428 -473 -428q-314 0 -547 135l71 154q90 -53 218.5 -90t250 -37t183.5 31q111 56 111 228q0 71 -7 95q-23 80 -169 126l-349 116q-169 55 -225.5 139.5t-56.5 216.5q1 190 139 290q119 85 346 86q323 0 485 -101l-49 -157q-178 96 -401 96q-155 0 -236 -40
t-87 -129q-2 -28 -2 -50q0 -72 30.5 -111t118.5 -69l364 -123q150 -51 217.5 -133.5t67.5 -244.5z" />
    <glyph glyph-name="T" unicode="T" horiz-adv-x="1204" 
d="M501 0v1281h-417v165h1036v-165h-418v-1281h-201z" />
    <glyph glyph-name="U" unicode="U" horiz-adv-x="1538" 
d="M776 -22q-386 0 -508 204q-68 114 -68 291v973h202v-994q0 -272 260 -306q51 -6 126 -6q154 0 251 60t97 252v994h202v-973q0 -281 -166 -399q-136 -96 -396 -96z" />
    <glyph glyph-name="V" unicode="V" horiz-adv-x="1386" 
d="M602 0l-516 1446h207l399 -1152l399 1152h209l-521 -1446h-177z" />
    <glyph glyph-name="W" unicode="W" horiz-adv-x="2048" 
d="M522 0l-410 1446h184l307 -1100l315 1100h215l329 -1100l291 1100h183l-394 -1446h-152l-353 1232l-363 -1232h-152z" />
    <glyph glyph-name="X" unicode="X" horiz-adv-x="1336" 
d="M94 0l471 731l-449 715h203l350 -548l341 548h217l-454 -712l469 -734h-218l-357 568l-361 -568h-212z" />
    <glyph glyph-name="Y" unicode="Y" horiz-adv-x="1318" 
d="M560 0v568l-512 878h213l400 -702l402 702h207l-509 -878v-568h-201z" />
    <glyph glyph-name="Z" unicode="Z" horiz-adv-x="1242" 
d="M180 0v150l682 1131h-651v165h872v-151l-681 -1130h694v-165h-916z" />
    <glyph glyph-name="bracketleft" unicode="[" horiz-adv-x="768" 
d="M256 -76v1605h378v-133h-190v-1338h190v-134h-378z" />
    <glyph glyph-name="backslash" unicode="\" horiz-adv-x="768" 
d="M521 0l-457 1506h187l453 -1506h-183z" />
    <glyph glyph-name="bracketright" unicode="]" horiz-adv-x="768" 
d="M195 -76v133h190v1338h-190v134h378v-1605h-378z" />
    <glyph glyph-name="asciicircum" unicode="^" horiz-adv-x="1257" 
d="M154 626l359 657h222l368 -657h-193l-282 535l-280 -535h-194z" />
    <glyph glyph-name="underscore" unicode="_" horiz-adv-x="929" 
d="M14 -104v150h901v-150h-901z" />
    <glyph glyph-name="grave" unicode="`" horiz-adv-x="616" 
d="M372 1165l-257 341h225l138 -341h-106z" />
    <glyph glyph-name="a" unicode="a" horiz-adv-x="1172" 
d="M471 -22q-161 0 -250 87.5t-89 217.5q0 74 31 123q63 100 376 191q181 50 208.5 86t30.5 56.5t3 65.5t-36.5 88t-158.5 43q-172 0 -211 -66q-20 -34 -20 -92v-47h-181v48q0 155 103.5 228t309.5 73t294 -93.5t88 -266.5v-452q0 -83 21 -107.5t90 -24.5l-22 -144h-38
q-100 0 -149 38.5t-75 119.5q-83 -124 -200 -156q-56 -16 -125 -16zM368.5 386q-54.5 -41 -54.5 -115.5t50.5 -112.5t122 -38t129.5 18.5t104.5 55t60.5 83.5v306q-73 -73 -215.5 -114.5t-197 -82.5z" />
    <glyph glyph-name="b" unicode="b" horiz-adv-x="1204" 
d="M374 1010q124 70 299 70t279 -93t104 -251v-384q0 -165 -114 -269.5t-316 -104.5q-128 0 -277 93l-24 -71h-139v1506h188v-496zM868 750q0 186 -235 186q-115 0 -259 -66v-682q110 -62 224.5 -62t192 55.5t77.5 150.5v418z" />
    <glyph glyph-name="c" unicode="c" horiz-adv-x="1110" 
d="M579 -22q-325 0 -407 226q-24 64 -24 140v404q0 151 115 241.5t311 90.5q250 0 344 -108q74 -84 74 -248l-179 -17q0 142 -50.5 185.5t-179.5 43.5t-188 -45t-59 -148v-415q0 -110 62 -158t191.5 -48t173 34t53.5 154h174q-16 -184 -106 -258t-305 -74z" />
    <glyph glyph-name="d" unicode="d" horiz-adv-x="1200" 
d="M591 1080q128 0 235 -40v466h188v-1506h-128l-31 70q-49 -38 -129 -65t-158 -27q-217 0 -318.5 96.5t-101.5 260.5v400q0 165 109 255t334 90zM403.5 176q67.5 -50 158.5 -50q162 0 264 63v703q-91 44 -221 44q-269 0 -269 -180v-435q0 -95 67.5 -145z" />
    <glyph glyph-name="e" unicode="e" horiz-adv-x="1158" 
d="M589 -22q-233 0 -337 97t-104 299v369q0 157 107 247t323.5 90t322 -83.5t105.5 -238.5v-252h-670v-149q0 -132 53 -183.5t191 -51.5t156 6t37 14t26.5 19t20 33.5t18.5 87.5h166q-10 -95 -33.5 -153t-74 -92.5t-121 -46.5t-186.5 -12zM336 633h488v145q0 90 -61.5 124
t-180.5 34t-182.5 -41t-63.5 -135v-127z" />
    <glyph glyph-name="f" unicode="f" horiz-adv-x="790" 
d="M287 0v918h-177v142h177v161q0 147 80.5 215.5t245.5 68.5h119l12 -133h-116q-153 0 -153 -133v-179h257v-142h-257v-918h-188z" />
    <glyph glyph-name="g" unicode="g" horiz-adv-x="1186" 
d="M295 -227q104 -38 255 -38t211.5 57t60.5 177v147q-41 -38 -122.5 -57t-149.5 -19q-402 0 -402 339v349q0 165 100.5 258.5t301.5 93.5q80 0 164.5 -33.5t107.5 -71.5v85h188v-1035q0 -191 -100.5 -312t-324.5 -121t-332 40zM822 790q0 146 -243 146t-243 -188v-398
q0 -166 243 -166q143 0 243 80v526z" />
    <glyph glyph-name="h" unicode="h" horiz-adv-x="1226" 
d="M862 783q0 153 -236 153q-118 0 -185 -49t-67 -129v-758h-188v1505h188v-545q103 120 316 120q270 0 340 -188q20 -54 20 -119v-773h-188v783z" />
    <glyph glyph-name="i" unicode="i" horiz-adv-x="596" 
d="M206 0v1060h188v-1060h-188zM206 1251v195h188v-195h-188z" />
    <glyph glyph-name="j" unicode="j" horiz-adv-x="602" 
d="M32 -353l-19 156h29q102 0 136 26.5t44 65t10 101.5v1064h188v-1053q0 -261 -120 -323q-71 -37 -202 -37h-66zM232 1251v195h188v-195h-188z" />
    <glyph glyph-name="k" unicode="k" horiz-adv-x="1152" 
d="M186 0v1506h188v-982l507 536h206l-431 -466l474 -594h-217l-380 492l-159 -158v-334h-188z" />
    <glyph glyph-name="l" unicode="l" horiz-adv-x="696" 
d="M530 -8q-93 0 -152 14t-104 53q-84 73 -84 299v1147h188v-1149q0 -128 38 -167t157 -39h33l-22 -158h-54z" />
    <glyph glyph-name="m" unicode="m" horiz-adv-x="1860" 
d="M844 781q0 155 -229 155q-116 0 -178.5 -49.5t-62.5 -131.5v-755h-188v1060h188v-103q106 123 318.5 123t296.5 -139l25 24q115 115 322 115q267 0 330 -190q18 -54 18 -120v-770h-188v781q0 155 -208 155q-131 0 -193.5 -49.5t-62.5 -131.5v-755h-188v781z" />
    <glyph glyph-name="n" unicode="n" horiz-adv-x="1226" 
d="M862 781q0 155 -237 155q-117 0 -184 -50t-67 -131v-755h-188v1060h188v-103q106 123 314 123q270 0 342 -190q20 -54 20 -120v-770h-188v781z" />
    <glyph glyph-name="o" unicode="o" horiz-adv-x="1174" 
d="M587 122q251 0 251 177v459q0 178 -251 178t-251 -178v-459q0 -177 251 -177zM919.5 68.5q-106.5 -90.5 -333.5 -90.5t-332.5 90t-105.5 247v427q0 157 105.5 247.5t332.5 90.5t333.5 -91t106.5 -247v-427q0 -156 -106.5 -246.5z" />
    <glyph glyph-name="p" unicode="p" horiz-adv-x="1198" 
d="M186 -408v1468h148l22 -80q46 41 126 70.5t166 29.5q197 0 299.5 -96t102.5 -255v-385q0 -164 -112 -265t-314 -101q-140 0 -250 56v-442h-188zM374 179q101 -57 226 -57t193.5 53t68.5 149v420q0 92 -67.5 142t-165 50t-166 -40t-89.5 -72v-645z" />
    <glyph glyph-name="q" unicode="q" horiz-adv-x="1200" 
d="M826 -408v455q-45 -34 -117 -51.5t-136 -17.5q-201 0 -313 90.5t-112 245.5v414q0 164 105 258t307 94q79 0 161 -33.5t105 -71.5v85h188v-1468h-188zM585 122q93 0 161.5 28.5t79.5 50.5v609q0 50 -61 88t-177 38t-184 -47t-68 -141v-464q0 -162 249 -162z" />
    <glyph glyph-name="r" unicode="r" horiz-adv-x="794" 
d="M186 0v1060h188v-150q36 98 195 142q83 24 173 23l-6 -161q-136 0 -249 -54t-113 -118v-742h-188z" />
    <glyph glyph-name="s" unicode="s" horiz-adv-x="992" 
d="M503 122q213 0 213 159q0 69 -19 102.5t-89 59.5l-252 93q-116 41 -161.5 97.5t-45.5 141.5t17 136.5t56 90.5q78 78 280 78t348 -58l-43 -144q-51 21 -134 39.5t-145 18.5q-143 0 -181 -46q-23 -29 -23 -85t18.5 -79.5t72.5 -42.5l249 -98q130 -51 171 -112.5t41 -193.5
t-85 -216.5t-263 -84.5q-130 0 -231 28t-155 58l46 138q143 -80 315 -80z" />
    <glyph glyph-name="t" unicode="t" horiz-adv-x="840" 
d="M676 -8q-222 0 -320.5 70t-98.5 241v615h-177v142h184l23 328h158v-328h266v-142h-266v-603q0 -100 57.5 -132.5t200.5 -32.5h21l-20 -158h-28z" />
    <glyph glyph-name="u" unicode="u" horiz-adv-x="1224" 
d="M541 -22q-271 0 -344 192q-21 55 -21 120v770h188v-771q0 -78 57.5 -122.5t171.5 -44.5t185.5 56.5t71.5 130.5v751h188v-1060h-168l-20 133q-88 -155 -309 -155z" />
    <glyph glyph-name="v" unicode="v" horiz-adv-x="1104" 
d="M475 0l-411 1060h189l319 -860l284 860h184l-375 -1060h-190z" />
    <glyph glyph-name="w" unicode="w" horiz-adv-x="1614" 
d="M357 0l-305 1060h172l235 -832l255 832h181l266 -832l227 832h174l-310 -1060h-175l-271 845l-271 -845h-178z" />
    <glyph glyph-name="x" unicode="x" horiz-adv-x="1056" 
d="M64 0l377 533l-371 527h189l276 -394l279 394h181l-369 -525l374 -535h-183l-283 403l-283 -403h-187z" />
    <glyph glyph-name="y" unicode="y" horiz-adv-x="1118" 
d="M198 -406v147q124 0 200.5 61t114.5 202l-437 1056h199l324 -844l271 844h190l-348 -1015q-69 -201 -124.5 -278.5t-106.5 -108.5q-105 -64 -283 -64z" />
    <glyph glyph-name="z" unicode="z" horiz-adv-x="964" 
d="M140 0v118l507 818h-489v124h687v-115l-510 -821h519v-124h-714z" />
    <glyph glyph-name="braceleft" unicode="{" horiz-adv-x="952" 
d="M474 650q104 -51 104 -353v-62q0 -160 12 -185.5t26.5 -46.5t34.5 -29t60 -19t155 -11v-151q-246 1 -336 55q-36 22 -60 39.5t-54 84t-30 231.5v206q0 33 -6.5 74.5t-13.5 52t-29 24t-45.5 14t-57.5 0.5h-76v151h98q44 -1 90 17q9 4 24.5 35t15.5 139v130q0 198 14 237
q36 104 70 129q78 58 144 70q118 24 252 24v-151q-178 1 -224 -35q-16 -12 -26 -22q-38 -36 -38 -199v-97q0 -301 -104 -352z" />
    <glyph glyph-name="bar" unicode="|" horiz-adv-x="690" 
d="M256 -167v1722h178v-1722h-178z" />
    <glyph glyph-name="braceright" unicode="}" horiz-adv-x="952" 
d="M520 649q-104 51 -104 353v62q0 160 -12 185.5t-26.5 46.5t-34.5 29t-60 19t-155 11v151q246 0 336 -54q36 -22 60 -40t54 -84.5t30 -231.5v-206q0 -33 6.5 -74.5t13.5 -52t29 -24t45.5 -14t57.5 -0.5h76v-151h-71q-39 0 -62.5 -0.5t-45.5 -14t-29 -24t-13.5 -52
t-6.5 -74.5v-156q0 -180 -10 -217t-22 -71.5t-30 -52.5l-43.5 -41.5t-61 -34.5t-99 -27t-214.5 -16v151q115 0 155 11t60 19t46.5 46.5t26.5 166.5v110q0 301 104 352z" />
    <glyph glyph-name="asciitilde" unicode="~" horiz-adv-x="881" 
d="M126.5 1251.5q-62.5 78.5 -62.5 200.5h97q0 -54 27 -93.5t74 -39.5q47 1 117 51q133 96 223 96t152.5 -78.5t62.5 -200.5h-97q0 54 -27 93.5t-74 39.5t-117 -50q-133 -96 -223 -96.5t-152.5 78z" />
    <glyph glyph-name="uni00A0" unicode="&#xa0;" horiz-adv-x="512" 
 />
    <glyph glyph-name="exclamdown" unicode="&#xa1;" horiz-adv-x="768" 
d="M488 1265.98v-206l-204 -0.0117188v206zM415 894.979q67 -689.996 67 -1075l-202 -0.0117188q0 314 79 1075z" />
    <glyph glyph-name="cent" unicode="&#xa2;" horiz-adv-x="1110" 
d="M643 -20v-185h-103v184q-290 13 -368 225q-24 64 -24 140v404q0 151 110 237.5t282 93.5v198h103v-199q194 -12 271.5 -101t77.5 -253l-179 -17q0 142 -50.5 185.5t-179.5 43.5t-188 -45t-59 -148v-415q0 -110 62 -158t191.5 -48t173 34t53.5 154h174q-16 -184 -99 -252
t-248 -78z" />
    <glyph glyph-name="sterling" unicode="&#xa3;" horiz-adv-x="1273" 
d="M261 0l62 668h-157v141h170l31 316q14 154 113.5 256.5t259 102.5t337.5 -86l-54 -139q-140 68 -253 68q-188 0 -211 -223l-30 -295h483v-141h-498l-52 -506h574v-162h-775z" />
    <glyph glyph-name="currency" unicode="&#xa4;" horiz-adv-x="1149" 
d="M817 486q-90 -126 -245 -126t-248 108l-147 -108l-51 83l148 106q-29 66 -29 150.5t46 162.5l-175 117l54 82l180 -124q86 81 215 81t215 -83l193 140l50 -82l-184 -133q44 -83 44 -158.5t-21 -130.5l171 -114l-52 -81zM565 444q96 0 160.5 72t64.5 174.5t-64.5 174
t-160.5 71.5t-160.5 -71.5t-64.5 -174t64.5 -174.5t160.5 -72z" />
    <glyph glyph-name="yen" unicode="&#xa5;" horiz-adv-x="1318" 
d="M260 560v148h218l-430 738h213l400 -702l402 702h207l-428 -738h221v-148h-302v-160h302v-148h-302v-252h-201v252h-300v148h300v160h-300z" />
    <glyph glyph-name="brokenbar" unicode="&#xa6;" horiz-adv-x="674" 
d="M254 -167v680h178v-680h-178zM254 848v707h178v-707h-178z" />
    <glyph glyph-name="section" unicode="&#xa7;" horiz-adv-x="1002" 
d="M829 1266q-146 58 -321 58q-97 0 -136.5 -32t-39.5 -93.5t19 -84t74 -43.5l257 -98q134 -51 176 -112.5t42 -179.5t-54 -194q54 -59 54 -199.5t-87.5 -225t-270.5 -84.5q-134 0 -238 28t-160 58l47 138q149 -80 325 -80q220 0 220 159q0 68 -20 102t-92 60l-259 93
q-120 43 -167 99.5t-47 174.5t72 187q-72 61 -72 181q0 218 186 270q70 20 169 20q216 0 368 -58zM365 924q-8 0 -20.5 -43t-12.5 -83.5t19.5 -67t73.5 -47.5l291 -112q20 44 20 105t-20 95t-92 60z" />
    <glyph glyph-name="dieresis" unicode="&#xa8;" horiz-adv-x="1025" 
d="M158 1265v181h206v-181h-206zM661 1265v181h206v-181h-206z" />
    <glyph glyph-name="copyright" unicode="&#xa9;" horiz-adv-x="1784" 
d="M622.5 368q-71.5 81 -71.5 222v278q0 236 175 292q72 22 174 22q203 0 265.5 -87.5t62.5 -233.5v-25l-116 -10v64q0 113 -47.5 157t-164 44t-173 -45.5t-56.5 -155.5v-319q0 -109 56 -152t174.5 -43t164.5 41.5t46 153.5v61h116v-34q0 -117 -28 -171.5t-63 -80.5
q-77 -58 -260 -58.5t-254.5 80.5zM570.5 165.5q144.5 -83.5 324 -83.5t323.5 83.5t224 229.5t80 326.5t-80 326.5t-224 229.5t-323.5 83.5t-324 -83.5t-225 -229.5t-80.5 -326t80.5 -326.5t225 -230zM1182.5 42.5q-136.5 -56.5 -315.5 -56.5t-347.5 96t-266 265t-97.5 374.5
t97.5 374t266 264.5t373 96t373.5 -96t265.5 -264.5t96.5 -348.5t-57 -316.5t-154.5 -234t-234 -154z" />
    <glyph glyph-name="ordfeminine" unicode="&#xaa;" horiz-adv-x="1045" 
d="M459.525 502.166q-129.731 0 -201.446 74.9072q-71.7158 74.9072 -71.7158 186.197q0 63.3496 24.9795 105.298q50.7646 85.6074 302.976 163.511q145.848 42.8037 168.007 73.623q22.1592 30.8184 24.5762 48.3682q2.41797 17.5498 2.41797 56.0732t-29.4111 75.335
q-29.4121 36.8115 -127.718 36.8115q-138.595 0 -170.021 -56.501q-16.1162 -29.1074 -16.1162 -78.7598v-40.2354h-145.847v41.0918q0 132.692 83.3984 195.186q83.3994 62.4941 249.391 62.4941q165.992 0 236.901 -80.0439q70.9092 -80.043 70.9092 -228.145v-386.947
q0 -71.0547 16.9219 -92.0293q16.9209 -20.9736 72.5205 -20.9736l-17.7275 -123.275h-30.6191q-80.5791 0 -120.062 32.959t-60.4336 102.302q-66.8809 -106.154 -161.158 -133.549q-45.123 -13.6973 -100.723 -13.6973zM376.933 851.446q-43.916 -35.0986 -43.916 -98.877
t40.6924 -96.3086q40.6924 -32.5312 98.3057 -32.5312q57.6143 0 104.35 15.8379q46.7354 15.8369 84.2051 47.084q37.4688 31.2471 48.75 71.4824v261.96q-58.8232 -62.4932 -173.647 -98.0205t-158.739 -70.627z" />
    <glyph glyph-name="guillemotleft" unicode="&#xab;" horiz-adv-x="1054" 
d="M376 80l-280 450l273 450l147 -70l-207 -380l207 -380zM790 80l-280 450l273 450l145 -70l-205 -380l205 -380z" />
    <glyph glyph-name="logicalnot" unicode="&#xac;" horiz-adv-x="864" 
d="M589 333v223h-491v136h623v-359h-132z" />
    <glyph glyph-name="uni00AD" unicode="&#xad;" horiz-adv-x="1024" 
d="M162 494v148h700v-148h-700z" />
    <glyph glyph-name="registered" unicode="&#xae;" horiz-adv-x="1784" 
d="M596 319v834h403q257 0 263 -245v-14q0 -187 -152 -228l184 -347h-128l-180 333h-259v-333h-131zM727 742h267q134 0 136 135v24q0 161 -127 161h-276v-320zM570.5 165.5q144.5 -83.5 324 -83.5t323.5 83.5t224 229.5t80 326.5t-80 326.5t-224 229.5t-323.5 83.5
t-324 -83.5t-225 -229.5t-80.5 -326t80.5 -326.5t225 -230zM1182.5 42.5q-136.5 -56.5 -315.5 -56.5t-347.5 96t-266 265t-97.5 374.5t97.5 374t266 264.5t373 96t373.5 -96t265.5 -264.5t96.5 -348.5t-57 -316.5t-154.5 -234t-234 -154z" />
    <glyph glyph-name="macron" unicode="&#xaf;" horiz-adv-x="513" 
d="M32 1359v147h449v-147h-449z" />
    <glyph glyph-name="degree" unicode="&#xb0;" horiz-adv-x="1036" 
d="M519 885q97 0 162.5 69.5t65.5 168.5t-65.5 168.5t-162.5 69.5t-162.5 -69.5t-65.5 -168.5t65.5 -168.5t162.5 -69.5zM518 798q-134 0 -229 95t-95 229t95 229t229 95t229 -95t95 -229t-95 -229t-229 -95z" />
    <glyph glyph-name="plusminus" unicode="&#xb1;" horiz-adv-x="1041" 
d="M460 334v277h-253v115h253v266h121v-266h253v-115h-253v-277h-121zM207 0v120h627v-120h-627z" />
    <glyph glyph-name="uni00B2" unicode="&#xb2;" horiz-adv-x="1052" 
d="M655 1334q-45 53 -139 53q-206 0 -205 -213h-121q0 157 91.5 233.5t231.5 76.5t223.5 -81t83.5 -197.5t-35 -188t-115 -152.5l-320 -316h465v-100h-585l-11 110l359 389q82 88 101.5 136t19.5 122t-44 128z" />
    <glyph glyph-name="uni00B3" unicode="&#xb3;" horiz-adv-x="1173" 
d="M590 418q-286 0 -358 174q-28 68 -32 169h138q4 -189 132 -223q50 -14 136.5 -13.5t146.5 48t60 132.5q1 85 -25 129q-51 87 -289 87v99q179 0 228.5 34.5t58 67t8.5 96.5t-49 112t-155 48q-186 0 -225 -110q-16 -46 -16 -115h-136q4 283 261 323q52 8 130 8t152.5 -29.5
t122.5 -94t48 -160.5q0 -192 -192 -228q163 -30 199 -144q14 -46 14 -109q0 -150 -99.5 -225.5t-258.5 -75.5z" />
    <glyph glyph-name="acute" unicode="&#xb4;" horiz-adv-x="616" 
d="M133 1165l120 341h225l-239 -341h-106z" />
    <glyph glyph-name="uni00B5" unicode="&#xb5;" horiz-adv-x="307" 
 />
    <glyph glyph-name="paragraph" unicode="&#xb6;" 
d="M485 0v870q-135 3 -226 79.5t-91 206.5q0 220 216 274q62 16 137 16h440v-1446h-136v1338h-204v-1338h-136z" />
    <glyph glyph-name="periodcentered" unicode="&#xb7;" horiz-adv-x="412" 
d="M108 1277v206h205v-206h-205z" />
    <glyph glyph-name="cedilla" unicode="&#xb8;" horiz-adv-x="512" 
d="M213 -486q-48 0 -93 8v96q36 -7 88 -7t87.5 28.5t35.5 74t-44.5 86t-115.5 42.5v158h62l6 -94q105 -19 163 -78.5t58 -133t-65 -127t-182 -53.5z" />
    <glyph glyph-name="uni00B9" unicode="&#xb9;" horiz-adv-x="1050" 
d="M207 654v101h274v639l-256 -26l-12 104l292 33h107v-750h231v-101h-636z" />
    <glyph glyph-name="ordmasculine" unicode="&#xba;" horiz-adv-x="1023" 
d="M511.361 619.963q203.264 0 203.264 152.282v394.901q0 153.143 -203.264 153.143t-203.264 -153.143v-394.901q0 -152.282 203.264 -152.282zM780.624 573.934q-86.2451 -77.8613 -270.073 -77.8613q-183.827 0 -269.263 77.4316t-85.4355 212.507v367.37
q0 135.075 85.4355 212.938q85.4355 77.8613 269.263 77.8613q183.828 0 270.073 -78.292t86.2451 -212.507v-367.37q0 -134.215 -86.2451 -212.077z" />
    <glyph glyph-name="guillemotright" unicode="&#xbb;" horiz-adv-x="1054" 
d="M271 80l-145 70l205 380l-205 380l138 70l280 -450zM685 80l-147 70l207 380l-207 380l140 70l280 -450z" />
    <glyph glyph-name="onequarter" unicode="&#xbc;" horiz-adv-x="2047" 
d="M164 654v101h274v639l-256 -26l-12 104l292 33h107v-750h231v-101h-636zM687 0l684 1446h126l-678 -1446h-132zM1655 0v207h-434v92l359 593h141l-348 -594h282v235h113v-235h144v-91h-144v-207h-113z" />
    <glyph glyph-name="onehalf" unicode="&#xbd;" horiz-adv-x="2047" 
d="M1371 2l-11 92l283 319q103 111 113 157q6 24 6 63t-15 70q-30 62 -128.5 62t-134 -31t-35.5 -129h-117q0 133 75 197.5t206 64.5t198.5 -68t67.5 -174q0 -61 -14 -92t-19.5 -45t-26.5 -40t-26.5 -33.5t-34 -38.5t-33.5 -37l-213 -238h371v-99h-512zM164 654v101h274v639
l-256 -26l-12 104l292 33h107v-750h231v-101h-636zM687 0l684 1446h126l-678 -1446h-132z" />
    <glyph glyph-name="threequarters" unicode="&#xbe;" horiz-adv-x="2047" 
d="M1655 0v207h-434v92l359 593h141l-348 -594h282v235h113v-235h144v-91h-144v-207h-113zM687 0l684 1446h126l-678 -1446h-132zM695 1295q0 126 -162 126q-128 0 -157 -40.5t-29 -127.5h-135q3 185 131 235q70 28 198 27.5t207 -54.5t79 -151t-38 -142.5t-125 -57.5
q92 -16 137.5 -64.5t45.5 -159t-78.5 -172t-240 -61.5t-239 61t-90.5 218h135q6 -113 53.5 -149.5t148 -36.5t139 37.5t38.5 109.5q1 72 -17 106q-34 67 -227 67v85q112 0 145.5 13t48.5 23q32 21 32 108z" />
    <glyph glyph-name="questiondown" unicode="&#xbf;" horiz-adv-x="1240" 
d="M777 835l-274 -364q-116 -156 -134 -229q-9 -37 -9 -79q0 -98 50 -150.5t190 -52.5t203.5 54t63.5 160v53h197v-32q0 -223 -108.5 -310t-379 -87t-374.5 160q-55 84 -55 172t17 145.5t68 132.5t177 208l208 219h160zM803 1266v-206h-204v206h204z" />
    <glyph glyph-name="Agrave" unicode="&#xc0;" horiz-adv-x="1428" 
d="M661 1631l-257 341h225l138 -341h-106zM86 0l539 1446h177l540 -1446h-205l-98 282h-645l-99 -282h-209zM442 425h551l-274 791z" />
    <glyph glyph-name="Aacute" unicode="&#xc1;" horiz-adv-x="1428" 
d="M661 1631l120 341h225l-239 -341h-106zM86 0l539 1446h177l540 -1446h-205l-98 282h-645l-99 -282h-209zM442 425h551l-274 791z" />
    <glyph glyph-name="Acircumflex" unicode="&#xc2;" horiz-adv-x="1428" 
d="M428 1631l216 266h150l206 -266h-156l-124 174l-132 -174h-160zM86 0l539 1446h177l540 -1446h-205l-98 282h-645l-99 -282h-209zM442 425h551l-274 791z" />
    <glyph glyph-name="Atilde" unicode="&#xc3;" horiz-adv-x="1428" 
d="M913 1645q0 93 -74 93q-36 0 -91 -53.5t-146.5 -53.5t-138 54t-46.5 175h97q0 -93 74 -93q36 0 91 53.5t146.5 53.5t138 -54t46.5 -175h-97zM86 0l539 1446h177l540 -1446h-205l-98 282h-645l-99 -282h-209zM442 425h551l-274 791z" />
    <glyph glyph-name="Adieresis" unicode="&#xc4;" horiz-adv-x="1428" 
d="M360 1631v181h206v-181h-206zM863 1631v181h206v-181h-206zM86 0l539 1446h177l540 -1446h-205l-98 282h-645l-99 -282h-209zM442 425h551l-274 791z" />
    <glyph glyph-name="Aring" unicode="&#xc5;" horiz-adv-x="1428" 
d="M714 1521q109 0 109 113t-109 113q-48 0 -78.5 -26t-30.5 -86q0 -114 109 -114zM714 1456q-82 0 -138 45.5t-56 132.5t56 132.5t138 45.5t138 -45.5t56 -132.5t-56 -132.5t-138 -45.5zM86 0l539 1446h177l540 -1446h-205l-98 282h-645l-99 -282h-209zM442 425h551
l-274 791z" />
    <glyph glyph-name="AE" unicode="&#xc6;" horiz-adv-x="1686" 
d="M302 0l-204 3l394 1443h1058v-150h-485v-482h424v-150h-424v-514h494v-150h-685v282h-499zM411 417h463v879h-242z" />
    <glyph glyph-name="Ccedilla" unicode="&#xc7;" horiz-adv-x="1456" 
d="M723 -492q-48 0 -93 8v96q36 -7 88 -7t87.5 28.5t35.5 74t-44.5 86t-115.5 42.5v158h62l6 -94q105 -19 163 -78.5t58 -133t-65 -127t-182 -53.5zM225 219.5q-43 110.5 -43 266.5v454q0 316 164 431q139 97 404.5 97t385.5 -73.5t150 -230.5q14 -70 14 -167l-191 -17
q0 146 -25 197.5t-49.5 73.5t-80.5 38.5t-175 16.5t-187 -16q-68 -15 -116 -52q-92 -71 -92 -261v-522q0 -188 93 -251.5t296.5 -63.5t259.5 48t69 140q7 50 7 120h191q0 -218 -63 -306q-116 -164 -441 -164q-273 0 -400.5 65.5t-170.5 176z" />
    <glyph glyph-name="Egrave" unicode="&#xc8;" horiz-adv-x="1255" 
d="M622 1631l-257 341h225l138 -341h-106zM218 0v1446h903v-150h-702v-476h620v-150h-620v-520h714v-150h-915z" />
    <glyph glyph-name="Eacute" unicode="&#xc9;" horiz-adv-x="1255" 
d="M623 1631l120 341h225l-239 -341h-106zM218 0v1446h903v-150h-702v-476h620v-150h-620v-520h714v-150h-915z" />
    <glyph glyph-name="Ecircumflex" unicode="&#xca;" horiz-adv-x="1255" 
d="M390 1631l216 266h150l206 -266h-156l-124 174l-132 -174h-160zM218 0v1446h903v-150h-702v-476h620v-150h-620v-520h714v-150h-915z" />
    <glyph glyph-name="Edieresis" unicode="&#xcb;" horiz-adv-x="1255" 
d="M321 1631v181h206v-181h-206zM824 1631v181h206v-181h-206zM218 0v1446h903v-150h-702v-476h620v-150h-620v-520h714v-150h-915z" />
    <glyph glyph-name="Igrave" unicode="&#xcc;" horiz-adv-x="1132" 
d="M513 1631l-257 341h225l138 -341h-106zM190 0v150h276v1147h-276v149h752v-149h-275v-1147h275v-150h-752z" />
    <glyph glyph-name="Iacute" unicode="&#xcd;" horiz-adv-x="1132" 
d="M513 1631l120 341h225l-239 -341h-106zM190 0v150h276v1147h-276v149h752v-149h-275v-1147h275v-150h-752z" />
    <glyph glyph-name="Icircumflex" unicode="&#xce;" horiz-adv-x="1132" 
d="M280 1631l216 266h150l206 -266h-156l-124 174l-132 -174h-160zM190 0v150h276v1147h-276v149h752v-149h-275v-1147h275v-150h-752z" />
    <glyph glyph-name="Idieresis" unicode="&#xcf;" horiz-adv-x="1132" 
d="M212 1631v181h206v-181h-206zM715 1631v181h206v-181h-206zM190 0v150h276v1147h-276v149h752v-149h-275v-1147h275v-150h-752z" />
    <glyph glyph-name="Eth" unicode="&#xd0;" horiz-adv-x="1215" 
d="M420 150h354q218 0 291.5 81t73.5 231v509q0 221 -148 287q-84 38 -217 37h-354v-446h358v-151h-358v-548zM76 698v151h142v597h574q415 0 518 -294q30 -86 30 -193v-477q0 -237 -136.5 -359.5t-409.5 -122.5h-576v698h-142z" />
    <glyph glyph-name="Ntilde" unicode="&#xd1;" horiz-adv-x="1594" 
d="M997 1645q0 93 -74 93q-36 0 -91 -53.5t-146.5 -53.5t-138 54t-46.5 175h97q0 -93 74 -93q36 0 91 53.5t146.5 53.5t138 -54t46.5 -175h-97zM218 0v1446h153l828 -1156v1156h177v-1446h-179l-802 1104v-1104h-177z" />
    <glyph glyph-name="Ograve" unicode="&#xd2;" horiz-adv-x="1546" 
d="M720 1631l-257 341h225l138 -341h-106zM1069 203.5q90 63.5 90 251.5v523q0 188 -90.5 258t-286.5 70q-304 0 -369 -168q-25 -64 -25 -160v-523q0 -187 98 -251t295.5 -64t287.5 63.5zM233 221q-47 111 -47 265v455q0 311 176 431q142 96 420 96q492 0 563 -366
q15 -77 15 -174v-428q0 -302 -173 -424q-139 -98 -392 -98t-384 66t-178 177z" />
    <glyph glyph-name="Oacute" unicode="&#xd3;" horiz-adv-x="1546" 
d="M720 1631l120 341h225l-239 -341h-106zM1069 203.5q90 63.5 90 251.5v523q0 188 -90.5 258t-286.5 70q-304 0 -369 -168q-25 -64 -25 -160v-523q0 -187 98 -251t295.5 -64t287.5 63.5zM233 221q-47 111 -47 265v455q0 311 176 431q142 96 420 96q492 0 563 -366
q15 -77 15 -174v-428q0 -302 -173 -424q-139 -98 -392 -98t-384 66t-178 177z" />
    <glyph glyph-name="Ocircumflex" unicode="&#xd4;" horiz-adv-x="1546" 
d="M487 1631l216 266h150l206 -266h-156l-124 174l-132 -174h-160zM1069 203.5q90 63.5 90 251.5v523q0 188 -90.5 258t-286.5 70q-304 0 -369 -168q-25 -64 -25 -160v-523q0 -187 98 -251t295.5 -64t287.5 63.5zM233 221q-47 111 -47 265v455q0 311 176 431q142 96 420 96
q492 0 563 -366q15 -77 15 -174v-428q0 -302 -173 -424q-139 -98 -392 -98t-384 66t-178 177z" />
    <glyph glyph-name="Otilde" unicode="&#xd5;" horiz-adv-x="1546" 
d="M973 1645q0 93 -74 93q-36 0 -91 -53.5t-146.5 -53.5t-138 54t-46.5 175h97q0 -93 74 -93q36 0 91 53.5t146.5 53.5t138 -54t46.5 -175h-97zM1069 203.5q90 63.5 90 251.5v523q0 188 -90.5 258t-286.5 70q-304 0 -369 -168q-25 -64 -25 -160v-523q0 -187 98 -251
t295.5 -64t287.5 63.5zM233 221q-47 111 -47 265v455q0 311 176 431q142 96 420 96q492 0 563 -366q15 -77 15 -174v-428q0 -302 -173 -424q-139 -98 -392 -98t-384 66t-178 177z" />
    <glyph glyph-name="Odieresis" unicode="&#xd6;" horiz-adv-x="1546" 
d="M418 1631v181h206v-181h-206zM921 1631v181h206v-181h-206zM1069 203.5q90 63.5 90 251.5v523q0 188 -90.5 258t-286.5 70q-304 0 -369 -168q-25 -64 -25 -160v-523q0 -187 98 -251t295.5 -64t287.5 63.5zM233 221q-47 111 -47 265v455q0 311 176 431q142 96 420 96
q492 0 563 -366q15 -77 15 -174v-428q0 -302 -173 -424q-139 -98 -392 -98t-384 66t-178 177z" />
    <glyph glyph-name="multiply" unicode="&#xd7;" horiz-adv-x="973" 
d="M239 216l-110 128l237 232l-237 230l110 131l248 -243l248 243l109 -131l-236 -230l236 -232l-109 -128l-248 242z" />
    <glyph glyph-name="Oslash" unicode="&#xd8;" horiz-adv-x="1546" 
d="M445 29q-157 63 -212 192q-47 111 -47 265v455q0 311 176 431q142 96 420 96q104 0 189 -16l83 224l104 -38l-80 -216q221 -84 267 -320q15 -77 15 -174v-428q0 -302 -173 -424q-139 -98 -392 -98q-141 0 -244 21l-72 -194l-103 38zM1069 203.5q90 63.5 90 251.5v523
q0 188 -90 258q-21 17 -49 29l-411 -1109q74 -16 173 -16q197 0 287 63.5zM914 1296q-58 10 -132 10q-304 0 -369 -168q-25 -64 -25 -160v-523q0 -199 117 -262z" />
    <glyph glyph-name="Ugrave" unicode="&#xd9;" horiz-adv-x="1538" 
d="M716 1631l-257 341h225l138 -341h-106zM776 -22q-386 0 -508 204q-68 114 -68 291v973h202v-994q0 -272 260 -306q51 -6 126 -6q154 0 251 60t97 252v994h202v-973q0 -281 -166 -399q-136 -96 -396 -96z" />
    <glyph glyph-name="Uacute" unicode="&#xda;" horiz-adv-x="1538" 
d="M716 1631l120 341h225l-239 -341h-106zM776 -22q-386 0 -508 204q-68 114 -68 291v973h202v-994q0 -272 260 -306q51 -6 126 -6q154 0 251 60t97 252v994h202v-973q0 -281 -166 -399q-136 -96 -396 -96z" />
    <glyph glyph-name="Ucircumflex" unicode="&#xdb;" horiz-adv-x="1538" 
d="M483 1631l216 266h150l206 -266h-156l-124 174l-132 -174h-160zM776 -22q-386 0 -508 204q-68 114 -68 291v973h202v-994q0 -272 260 -306q51 -6 126 -6q154 0 251 60t97 252v994h202v-973q0 -281 -166 -399q-136 -96 -396 -96z" />
    <glyph glyph-name="Udieresis" unicode="&#xdc;" horiz-adv-x="1538" 
d="M414 1631v181h206v-181h-206zM917 1631v181h206v-181h-206zM776 -22q-386 0 -508 204q-68 114 -68 291v973h202v-994q0 -272 260 -306q51 -6 126 -6q154 0 251 60t97 252v994h202v-973q0 -281 -166 -399q-136 -96 -396 -96z" />
    <glyph glyph-name="Yacute" unicode="&#xdd;" horiz-adv-x="1318" 
d="M606 1631l120 341h225l-239 -341h-106zM560 0v568l-512 878h213l400 -702l402 702h207l-509 -878v-568h-201z" />
    <glyph glyph-name="Thorn" unicode="&#xde;" horiz-adv-x="1320" 
d="M212 0v1446h202v-238h374q300 0 376 -228q28 -86 28 -210q0 -249 -106.5 -344t-298.5 -95h-373v-331h-202zM414 484h377q126 0 162.5 76.5t36.5 162.5t-3 122q-8 99 -51 154.5t-142 55.5h-380v-571z" />
    <glyph glyph-name="germandbls" unicode="&#xdf;" horiz-adv-x="1281" 
d="M190 0v1103q0 247 189 332q107 48 292.5 48t285.5 -91.5t100 -256.5q0 -116 -36.5 -175t-118.5 -82q93 -39 123 -58q141 -90 141 -347t-159 -365t-471 -108l-18 148q193 14 267 35q206 59 206 288q0 143 -51 204.5t-134.5 78t-205.5 16.5v142q159 0 214 52.5t55 135.5
q0 148 -58.5 190t-143.5 42t-128 -7.5t-82 -27.5q-79 -41 -79 -166v-1131h-188z" />
    <glyph glyph-name="agrave" unicode="&#xe0;" horiz-adv-x="1172" 
d="M553 1243l-257 341h225l138 -341h-106zM471 -22q-161 0 -250 87.5t-89 217.5q0 74 31 123q63 100 376 191q181 50 208.5 86t30.5 56.5t3 65.5t-36.5 88t-158.5 43q-172 0 -211 -66q-20 -34 -20 -92v-47h-181v48q0 155 103.5 228t309.5 73t294 -93.5t88 -266.5v-452
q0 -83 21 -107.5t90 -24.5l-22 -144h-38q-100 0 -149 38.5t-75 119.5q-83 -124 -200 -156q-56 -16 -125 -16zM368.5 386q-54.5 -41 -54.5 -115.5t50.5 -112.5t122 -38t129.5 18.5t104.5 55t60.5 83.5v306q-73 -73 -215.5 -114.5t-197 -82.5z" />
    <glyph glyph-name="aacute" unicode="&#xe1;" horiz-adv-x="1172" 
d="M553 1243l120 341h225l-239 -341h-106zM471 -22q-161 0 -250 87.5t-89 217.5q0 74 31 123q63 100 376 191q181 50 208.5 86t30.5 56.5t3 65.5t-36.5 88t-158.5 43q-172 0 -211 -66q-20 -34 -20 -92v-47h-181v48q0 155 103.5 228t309.5 73t294 -93.5t88 -266.5v-452
q0 -83 21 -107.5t90 -24.5l-22 -144h-38q-100 0 -149 38.5t-75 119.5q-83 -124 -200 -156q-56 -16 -125 -16zM368.5 386q-54.5 -41 -54.5 -115.5t50.5 -112.5t122 -38t129.5 18.5t104.5 55t60.5 83.5v306q-73 -73 -215.5 -114.5t-197 -82.5z" />
    <glyph glyph-name="acircumflex" unicode="&#xe2;" horiz-adv-x="1172" 
d="M320 1243l216 266h150l206 -266h-156l-124 174l-132 -174h-160zM471 -22q-161 0 -250 87.5t-89 217.5q0 74 31 123q63 100 376 191q181 50 208.5 86t30.5 56.5t3 65.5t-36.5 88t-158.5 43q-172 0 -211 -66q-20 -34 -20 -92v-47h-181v48q0 155 103.5 228t309.5 73
t294 -93.5t88 -266.5v-452q0 -83 21 -107.5t90 -24.5l-22 -144h-38q-100 0 -149 38.5t-75 119.5q-83 -124 -200 -156q-56 -16 -125 -16zM368.5 386q-54.5 -41 -54.5 -115.5t50.5 -112.5t122 -38t129.5 18.5t104.5 55t60.5 83.5v306q-73 -73 -215.5 -114.5t-197 -82.5z" />
    <glyph glyph-name="atilde" unicode="&#xe3;" horiz-adv-x="1172" 
d="M805 1257q0 93 -74 93q-36 0 -91 -53.5t-146.5 -53.5t-138 54t-46.5 175h97q0 -93 74 -93q36 0 91 53.5t146.5 53.5t138 -54t46.5 -175h-97zM471 -22q-161 0 -250 87.5t-89 217.5q0 74 31 123q63 100 376 191q181 50 208.5 86t30.5 56.5t3 65.5t-36.5 88t-158.5 43
q-172 0 -211 -66q-20 -34 -20 -92v-47h-181v48q0 155 103.5 228t309.5 73t294 -93.5t88 -266.5v-452q0 -83 21 -107.5t90 -24.5l-22 -144h-38q-100 0 -149 38.5t-75 119.5q-83 -124 -200 -156q-56 -16 -125 -16zM368.5 386q-54.5 -41 -54.5 -115.5t50.5 -112.5t122 -38
t129.5 18.5t104.5 55t60.5 83.5v306q-73 -73 -215.5 -114.5t-197 -82.5z" />
    <glyph glyph-name="adieresis" unicode="&#xe4;" horiz-adv-x="1172" 
d="M252 1243v181h206v-181h-206zM755 1243v181h206v-181h-206zM471 -22q-161 0 -250 87.5t-89 217.5q0 74 31 123q63 100 376 191q181 50 208.5 86t30.5 56.5t3 65.5t-36.5 88t-158.5 43q-172 0 -211 -66q-20 -34 -20 -92v-47h-181v48q0 155 103.5 228t309.5 73t294 -93.5
t88 -266.5v-452q0 -83 21 -107.5t90 -24.5l-22 -144h-38q-100 0 -149 38.5t-75 119.5q-83 -124 -200 -156q-56 -16 -125 -16zM368.5 386q-54.5 -41 -54.5 -115.5t50.5 -112.5t122 -38t129.5 18.5t104.5 55t60.5 83.5v306q-73 -73 -215.5 -114.5t-197 -82.5z" />
    <glyph glyph-name="aring" unicode="&#xe5;" horiz-adv-x="1172" 
d="M606 1308q109 0 109 113t-109 113q-48 0 -78.5 -26t-30.5 -86q0 -114 109 -114zM606 1243q-82 0 -138 45.5t-56 132.5t56 132.5t138 45.5t138 -45.5t56 -132.5t-56 -132.5t-138 -45.5zM471 -22q-161 0 -250 87.5t-89 217.5q0 74 31 123q63 100 376 191q181 50 208.5 86
t30.5 56.5t3 65.5t-36.5 88t-158.5 43q-172 0 -211 -66q-20 -34 -20 -92v-47h-181v48q0 155 103.5 228t309.5 73t294 -93.5t88 -266.5v-452q0 -83 21 -107.5t90 -24.5l-22 -144h-38q-100 0 -149 38.5t-75 119.5q-83 -124 -200 -156q-56 -16 -125 -16zM368.5 386
q-54.5 -41 -54.5 -115.5t50.5 -112.5t122 -38t129.5 18.5t104.5 55t60.5 83.5v306q-73 -73 -215.5 -114.5t-197 -82.5z" />
    <glyph glyph-name="ae" unicode="&#xe6;" horiz-adv-x="1741" 
d="M785 759q0 181 -184.5 181t-223.5 -84q-24 -50 -24 -111v-27h-181v28q0 159 106 246.5t312 87.5q109 0 189.5 -36t107.5 -105q89 141 301.5 141t316.5 -84t104 -238v-247h-636v-183q0 -106 53 -156.5t163 -50.5t136.5 10t42.5 20q57 36 65 167h170
q-16 -193 -105.5 -265.5t-308.5 -72.5q-135 0 -205.5 46t-105.5 132q-147 -178 -409 -178q-161 0 -249.5 86.5t-88.5 230t97.5 211.5t277.5 96q179 28 219 40q60 16 60 115zM317 329.5q-5 -20.5 -5 -62t24 -80.5q46 -74 168 -74q122 -1 219 75q48 38 62 85v274
q-55 -33 -161 -51t-146.5 -29.5t-68 -26.5t-47 -32t-30 -37.5t-15.5 -41zM973 633h464v145q0 90 -61 125t-178 35t-171 -41t-54 -137v-127z" />
    <glyph glyph-name="ccedilla" unicode="&#xe7;" horiz-adv-x="1110" 
d="M553 -492q-48 0 -93 8v96q36 -7 88 -7t87.5 28.5t35.5 74t-44.5 86t-115.5 42.5v158h62l6 -94q105 -19 163 -78.5t58 -133t-65 -127t-182 -53.5zM579 -22q-325 0 -407 226q-24 64 -24 140v404q0 151 115 241.5t311 90.5q250 0 344 -108q74 -84 74 -248l-179 -17
q0 142 -50.5 185.5t-179.5 43.5t-188 -45t-59 -148v-415q0 -110 62 -158t191.5 -48t173 34t53.5 154h174q-16 -184 -106 -258t-305 -74z" />
    <glyph glyph-name="egrave" unicode="&#xe8;" horiz-adv-x="1158" 
d="M524 1243l-257 341h225l138 -341h-106zM589 -22q-233 0 -337 97t-104 299v369q0 157 107 247t323.5 90t322 -83.5t105.5 -238.5v-252h-670v-149q0 -132 53 -183.5t191 -51.5t156 6t37 14t26.5 19t20 33.5t18.5 87.5h166q-10 -95 -33.5 -153t-74 -92.5t-121 -46.5
t-186.5 -12zM336 633h488v145q0 90 -61.5 124t-180.5 34t-182.5 -41t-63.5 -135v-127z" />
    <glyph glyph-name="eacute" unicode="&#xe9;" horiz-adv-x="1158" 
d="M524 1243l120 341h225l-239 -341h-106zM589 -22q-233 0 -337 97t-104 299v369q0 157 107 247t323.5 90t322 -83.5t105.5 -238.5v-252h-670v-149q0 -132 53 -183.5t191 -51.5t156 6t37 14t26.5 19t20 33.5t18.5 87.5h166q-10 -95 -33.5 -153t-74 -92.5t-121 -46.5
t-186.5 -12zM336 633h488v145q0 90 -61.5 124t-180.5 34t-182.5 -41t-63.5 -135v-127z" />
    <glyph glyph-name="ecircumflex" unicode="&#xea;" horiz-adv-x="1158" 
d="M291 1243l216 266h150l206 -266h-156l-124 174l-132 -174h-160zM589 -22q-233 0 -337 97t-104 299v369q0 157 107 247t323.5 90t322 -83.5t105.5 -238.5v-252h-670v-149q0 -132 53 -183.5t191 -51.5t156 6t37 14t26.5 19t20 33.5t18.5 87.5h166q-10 -95 -33.5 -153
t-74 -92.5t-121 -46.5t-186.5 -12zM336 633h488v145q0 90 -61.5 124t-180.5 34t-182.5 -41t-63.5 -135v-127z" />
    <glyph glyph-name="edieresis" unicode="&#xeb;" horiz-adv-x="1158" 
d="M222 1243v181h206v-181h-206zM725 1243v181h206v-181h-206zM589 -22q-233 0 -337 97t-104 299v369q0 157 107 247t323.5 90t322 -83.5t105.5 -238.5v-252h-670v-149q0 -132 53 -183.5t191 -51.5t156 6t37 14t26.5 19t20 33.5t18.5 87.5h166q-10 -95 -33.5 -153t-74 -92.5
t-121 -46.5t-186.5 -12zM336 633h488v145q0 90 -61.5 124t-180.5 34t-182.5 -41t-63.5 -135v-127z" />
    <glyph glyph-name="igrave" unicode="&#xec;" horiz-adv-x="596" 
d="M247 1243l-257 341h225l138 -341h-106zM206 0v1060h188v-1060h-188z" />
    <glyph glyph-name="iacute" unicode="&#xed;" horiz-adv-x="596" 
d="M247 1243l120 341h225l-239 -341h-106zM206 0v1060h188v-1060h-188z" />
    <glyph glyph-name="icircumflex" unicode="&#xee;" horiz-adv-x="596" 
d="M14 1243l216 266h150l206 -266h-156l-124 174l-132 -174h-160zM206 0v1060h188v-1060h-188z" />
    <glyph glyph-name="idieresis" unicode="&#xef;" horiz-adv-x="596" 
d="M-54 1243v181h206v-181h-206zM449 1243v181h206v-181h-206zM206 0v1060h188v-1060h-188z" />
    <glyph glyph-name="eth" unicode="&#xf0;" horiz-adv-x="1158" 
d="M587 -20q-226 0 -331.5 89t-105.5 245v332q0 150 119.5 239.5t317.5 89.5q48 0 111 -18t84 -36q-38 176 -176 299l-215 -142l-68 84l191 126q-104 67 -271 119l74 108q188 -40 329 -140l148 98l69 -84l-130 -86q277 -262 277 -767v-171q0 -155 -46 -234
q-88 -151 -377 -151zM587 833q-250 0 -250 -181v-344q0 -101 65.5 -144t197 -43t177.5 50q46 49 50 133q1 20 1 55v234q0 64 -23 190q-30 21 -99 35.5t-119 14.5z" />
    <glyph glyph-name="ntilde" unicode="&#xf1;" horiz-adv-x="1226" 
d="M817 1257q0 93 -74 93q-36 0 -91 -53.5t-146.5 -53.5t-138 54t-46.5 175h97q0 -93 74 -93q36 0 91 53.5t146.5 53.5t138 -54t46.5 -175h-97zM862 781q0 155 -237 155q-117 0 -184 -50t-67 -131v-755h-188v1060h188v-103q106 123 314 123q270 0 342 -190q20 -54 20 -120
v-770h-188v781z" />
    <glyph glyph-name="ograve" unicode="&#xf2;" horiz-adv-x="1174" 
d="M534 1243l-257 341h225l138 -341h-106zM587 122q251 0 251 177v459q0 178 -251 178t-251 -178v-459q0 -177 251 -177zM919.5 68.5q-106.5 -90.5 -333.5 -90.5t-332.5 90t-105.5 247v427q0 157 105.5 247.5t332.5 90.5t333.5 -91t106.5 -247v-427q0 -156 -106.5 -246.5z
" />
    <glyph glyph-name="oacute" unicode="&#xf3;" horiz-adv-x="1174" 
d="M534 1243l120 341h225l-239 -341h-106zM587 122q251 0 251 177v459q0 178 -251 178t-251 -178v-459q0 -177 251 -177zM919.5 68.5q-106.5 -90.5 -333.5 -90.5t-332.5 90t-105.5 247v427q0 157 105.5 247.5t332.5 90.5t333.5 -91t106.5 -247v-427q0 -156 -106.5 -246.5z
" />
    <glyph glyph-name="ocircumflex" unicode="&#xf4;" horiz-adv-x="1174" 
d="M301 1243l216 266h150l206 -266h-156l-124 174l-132 -174h-160zM587 122q251 0 251 177v459q0 178 -251 178t-251 -178v-459q0 -177 251 -177zM919.5 68.5q-106.5 -90.5 -333.5 -90.5t-332.5 90t-105.5 247v427q0 157 105.5 247.5t332.5 90.5t333.5 -91t106.5 -247v-427
q0 -156 -106.5 -246.5z" />
    <glyph glyph-name="otilde" unicode="&#xf5;" horiz-adv-x="1174" 
d="M787 1257q0 93 -74 93q-36 0 -91 -53.5t-146.5 -53.5t-138 54t-46.5 175h97q0 -93 74 -93q36 0 91 53.5t146.5 53.5t138 -54t46.5 -175h-97zM587 122q251 0 251 177v459q0 178 -251 178t-251 -178v-459q0 -177 251 -177zM919.5 68.5q-106.5 -90.5 -333.5 -90.5t-332.5 90
t-105.5 247v427q0 157 105.5 247.5t332.5 90.5t333.5 -91t106.5 -247v-427q0 -156 -106.5 -246.5z" />
    <glyph glyph-name="odieresis" unicode="&#xf6;" horiz-adv-x="1174" 
d="M232 1243v181h206v-181h-206zM735 1243v181h206v-181h-206zM587 122q251 0 251 177v459q0 178 -251 178t-251 -178v-459q0 -177 251 -177zM919.5 68.5q-106.5 -90.5 -333.5 -90.5t-332.5 90t-105.5 247v427q0 157 105.5 247.5t332.5 90.5t333.5 -91t106.5 -247v-427
q0 -156 -106.5 -246.5z" />
    <glyph glyph-name="divide" unicode="&#xf7;" horiz-adv-x="1025" 
d="M413 90v209h205v-209h-205zM100 472v137h825v-137h-825zM413 787v209h205v-209h-205z" />
    <glyph glyph-name="oslash" unicode="&#xf8;" horiz-adv-x="1174" 
d="M919.5 68.5q-106.5 -90.5 -333.5 -90.5q-79 0 -143 11l-80 -215l-92 31l78 208q-55 21 -95 55q-106 90 -106 247v427q0 157 105.5 247.5t332.5 90.5q87 0 156 -13l69 184l90 -31l-67 -180q50 -20 86 -51q106 -91 106 -247v-427q0 -156 -106.5 -246.5zM587 122
q251 0 251 177v459q0 87 -60 131l-283 -760q41 -7 92 -7zM690 926q-45 10 -103 10q-251 0 -251 -178v-459q0 -92 68 -137z" />
    <glyph glyph-name="ugrave" unicode="&#xf9;" horiz-adv-x="1224" 
d="M554 1243l-257 341h225l138 -341h-106zM541 -22q-271 0 -344 192q-21 55 -21 120v770h188v-771q0 -78 57.5 -122.5t171.5 -44.5t185.5 56.5t71.5 130.5v751h188v-1060h-168l-20 133q-88 -155 -309 -155z" />
    <glyph glyph-name="uacute" unicode="&#xfa;" horiz-adv-x="1224" 
d="M554 1243l120 341h225l-239 -341h-106zM541 -22q-271 0 -344 192q-21 55 -21 120v770h188v-771q0 -78 57.5 -122.5t171.5 -44.5t185.5 56.5t71.5 130.5v751h188v-1060h-168l-20 133q-88 -155 -309 -155z" />
    <glyph glyph-name="ucircumflex" unicode="&#xfb;" horiz-adv-x="1224" 
d="M321 1243l216 266h150l206 -266h-156l-124 174l-132 -174h-160zM541 -22q-271 0 -344 192q-21 55 -21 120v770h188v-771q0 -78 57.5 -122.5t171.5 -44.5t185.5 56.5t71.5 130.5v751h188v-1060h-168l-20 133q-88 -155 -309 -155z" />
    <glyph glyph-name="udieresis" unicode="&#xfc;" horiz-adv-x="1224" 
d="M252 1243v181h206v-181h-206zM755 1243v181h206v-181h-206zM541 -22q-271 0 -344 192q-21 55 -21 120v770h188v-771q0 -78 57.5 -122.5t171.5 -44.5t185.5 56.5t71.5 130.5v751h188v-1060h-168l-20 133q-88 -155 -309 -155z" />
    <glyph glyph-name="yacute" unicode="&#xfd;" horiz-adv-x="1118" 
d="M515 1243l120 341h225l-239 -341h-106zM198 -406v147q124 0 200.5 61t114.5 202l-437 1056h199l324 -844l271 844h190l-348 -1015q-69 -201 -124.5 -278.5t-106.5 -108.5q-105 -64 -283 -64z" />
    <glyph glyph-name="thorn" unicode="&#xfe;" horiz-adv-x="1194" 
d="M177 -408l2 1914h186v-512q47 35 121 58.5t153 23.5q197 0 301 -94.5t104 -252.5v-385q0 -164 -113.5 -266t-315.5 -102q-136 0 -250 58v-442h-188zM365 179q110 -62 230.5 -62t190.5 55.5t70 151.5v418q0 92 -69 142t-166.5 50t-166 -39.5t-89.5 -70.5v-645z" />
    <glyph glyph-name="ydieresis" unicode="&#xff;" horiz-adv-x="1118" 
d="M214 1243v181h206v-181h-206zM717 1243v181h206v-181h-206zM198 -406v147q124 0 200.5 61t114.5 202l-437 1056h199l324 -844l271 844h190l-348 -1015q-69 -201 -124.5 -278.5t-106.5 -108.5q-105 -64 -283 -64z" />
    <glyph glyph-name="Amacron" unicode="&#x100;" horiz-adv-x="1428" 
d="M514 1631v152h401v-152h-401zM86 0l539 1446h177l540 -1446h-205l-98 282h-645l-99 -282h-209zM442 425h551l-274 791z" />
    <glyph glyph-name="amacron" unicode="&#x101;" horiz-adv-x="1172" 
d="M406 1243v152h401v-152h-401zM471 -22q-161 0 -250 87.5t-89 217.5q0 74 31 123q63 100 376 191q181 50 208.5 86t30.5 56.5t3 65.5t-36.5 88t-158.5 43q-172 0 -211 -66q-20 -34 -20 -92v-47h-181v48q0 155 103.5 228t309.5 73t294 -93.5t88 -266.5v-452
q0 -83 21 -107.5t90 -24.5l-22 -144h-38q-100 0 -149 38.5t-75 119.5q-83 -124 -200 -156q-56 -16 -125 -16zM368.5 386q-54.5 -41 -54.5 -115.5t50.5 -112.5t122 -38t129.5 18.5t104.5 55t60.5 83.5v306q-73 -73 -215.5 -114.5t-197 -82.5z" />
    <glyph glyph-name="Abreve" unicode="&#x102;" horiz-adv-x="1428" 
d="M714 1631q-101 0 -163.5 61.5t-62.5 150.5h105q0 -50 34.5 -83t88 -33t86.5 32t33 84h105q0 -89 -62.5 -150.5t-163.5 -61.5zM86 0l539 1446h177l540 -1446h-205l-98 282h-645l-99 -282h-209zM442 425h551l-274 791z" />
    <glyph glyph-name="abreve" unicode="&#x103;" horiz-adv-x="1172" 
d="M606 1243q-101 0 -163.5 61.5t-62.5 150.5h105q0 -50 34.5 -83t88 -33t86.5 32t33 84h105q0 -89 -62.5 -150.5t-163.5 -61.5zM471 -22q-161 0 -250 87.5t-89 217.5q0 74 31 123q63 100 376 191q181 50 208.5 86t30.5 56.5t3 65.5t-36.5 88t-158.5 43q-172 0 -211 -66
q-20 -34 -20 -92v-47h-181v48q0 155 103.5 228t309.5 73t294 -93.5t88 -266.5v-452q0 -83 21 -107.5t90 -24.5l-22 -144h-38q-100 0 -149 38.5t-75 119.5q-83 -124 -200 -156q-56 -16 -125 -16zM368.5 386q-54.5 -41 -54.5 -115.5t50.5 -112.5t122 -38t129.5 18.5t104.5 55
t60.5 83.5v306q-73 -73 -215.5 -114.5t-197 -82.5z" />
    <glyph glyph-name="Aogonek" unicode="&#x104;" horiz-adv-x="1428" 
d="M1313 -479q-134 0 -213.5 53t-79.5 142q0 137 182 291h62q-51 -49 -85.5 -120.5t-34.5 -134.5q0 -134 169 -134v-97zM86 0l539 1446h177l540 -1446h-205l-98 282h-645l-99 -282h-209zM442 425h551l-274 791z" />
    <glyph glyph-name="aogonek" unicode="&#x105;" horiz-adv-x="1172" 
d="M1095 -486q-134 0 -213.5 53t-79.5 142q0 137 182 291h62q-51 -49 -85.5 -120.5t-34.5 -134.5q0 -134 169 -134v-97zM471 -22q-161 0 -250 87.5t-89 217.5q0 74 31 123q63 100 376 191q181 50 208.5 86t30.5 56.5t3 65.5t-36.5 88t-158.5 43q-172 0 -211 -66
q-20 -34 -20 -92v-47h-181v48q0 155 103.5 228t309.5 73t294 -93.5t88 -266.5v-452q0 -83 21 -107.5t90 -24.5l-22 -144h-38q-100 0 -149 38.5t-75 119.5q-83 -124 -200 -156q-56 -16 -125 -16zM368.5 386q-54.5 -41 -54.5 -115.5t50.5 -112.5t122 -38t129.5 18.5t104.5 55
t60.5 83.5v306q-73 -73 -215.5 -114.5t-197 -82.5z" />
    <glyph glyph-name="Cacute" unicode="&#x106;" horiz-adv-x="1456" 
d="M688 1631l120 341h225l-239 -341h-106zM225 219.5q-43 110.5 -43 266.5v454q0 316 164 431q139 97 404.5 97t385.5 -73.5t150 -230.5q14 -70 14 -167l-191 -17q0 146 -25 197.5t-49.5 73.5t-80.5 38.5t-175 16.5t-187 -16q-68 -15 -116 -52q-92 -71 -92 -261v-522
q0 -188 93 -251.5t296.5 -63.5t259.5 48t69 140q7 50 7 120h191q0 -218 -63 -306q-116 -164 -441 -164q-273 0 -400.5 65.5t-170.5 176z" />
    <glyph glyph-name="cacute" unicode="&#x107;" horiz-adv-x="1110" 
d="M517 1243l120 341h225l-239 -341h-106zM579 -22q-325 0 -407 226q-24 64 -24 140v404q0 151 115 241.5t311 90.5q250 0 344 -108q74 -84 74 -248l-179 -17q0 142 -50.5 185.5t-179.5 43.5t-188 -45t-59 -148v-415q0 -110 62 -158t191.5 -48t173 34t53.5 154h174
q-16 -184 -106 -258t-305 -74z" />
    <glyph glyph-name="Ccircumflex" unicode="&#x108;" horiz-adv-x="1456" 
d="M455 1631l216 266h150l206 -266h-156l-124 174l-132 -174h-160zM225 219.5q-43 110.5 -43 266.5v454q0 316 164 431q139 97 404.5 97t385.5 -73.5t150 -230.5q14 -70 14 -167l-191 -17q0 146 -25 197.5t-49.5 73.5t-80.5 38.5t-175 16.5t-187 -16q-68 -15 -116 -52
q-92 -71 -92 -261v-522q0 -188 93 -251.5t296.5 -63.5t259.5 48t69 140q7 50 7 120h191q0 -218 -63 -306q-116 -164 -441 -164q-273 0 -400.5 65.5t-170.5 176z" />
    <glyph glyph-name="ccircumflex" unicode="&#x109;" horiz-adv-x="1110" 
d="M284 1243l216 266h150l206 -266h-156l-124 174l-132 -174h-160zM579 -22q-325 0 -407 226q-24 64 -24 140v404q0 151 115 241.5t311 90.5q250 0 344 -108q74 -84 74 -248l-179 -17q0 142 -50.5 185.5t-179.5 43.5t-188 -45t-59 -148v-415q0 -110 62 -158t191.5 -48
t173 34t53.5 154h174q-16 -184 -106 -258t-305 -74z" />
    <glyph glyph-name="Cdotaccent" unicode="&#x10a;" horiz-adv-x="1456" 
d="M638 1631v206h205v-206h-205zM225 219.5q-43 110.5 -43 266.5v454q0 316 164 431q139 97 404.5 97t385.5 -73.5t150 -230.5q14 -70 14 -167l-191 -17q0 146 -25 197.5t-49.5 73.5t-80.5 38.5t-175 16.5t-187 -16q-68 -15 -116 -52q-92 -71 -92 -261v-522
q0 -188 93 -251.5t296.5 -63.5t259.5 48t69 140q7 50 7 120h191q0 -218 -63 -306q-116 -164 -441 -164q-273 0 -400.5 65.5t-170.5 176z" />
    <glyph glyph-name="cdotaccent" unicode="&#x10b;" horiz-adv-x="1110" 
d="M468 1243v206h205v-206h-205zM579 -22q-325 0 -407 226q-24 64 -24 140v404q0 151 115 241.5t311 90.5q250 0 344 -108q74 -84 74 -248l-179 -17q0 142 -50.5 185.5t-179.5 43.5t-188 -45t-59 -148v-415q0 -110 62 -158t191.5 -48t173 34t53.5 154h174
q-16 -184 -106 -258t-305 -74z" />
    <glyph glyph-name="Ccaron" unicode="&#x10c;" horiz-adv-x="1456" 
d="M660 1631l-205 266h155l124 -174l132 174h161l-217 -266h-150zM225 219.5q-43 110.5 -43 266.5v454q0 316 164 431q139 97 404.5 97t385.5 -73.5t150 -230.5q14 -70 14 -167l-191 -17q0 146 -25 197.5t-49.5 73.5t-80.5 38.5t-175 16.5t-187 -16q-68 -15 -116 -52
q-92 -71 -92 -261v-522q0 -188 93 -251.5t296.5 -63.5t259.5 48t69 140q7 50 7 120h191q0 -218 -63 -306q-116 -164 -441 -164q-273 0 -400.5 65.5t-170.5 176z" />
    <glyph glyph-name="ccaron" unicode="&#x10d;" horiz-adv-x="1110" 
d="M489 1243l-205 266h155l124 -174l132 174h161l-217 -266h-150zM579 -22q-325 0 -407 226q-24 64 -24 140v404q0 151 115 241.5t311 90.5q250 0 344 -108q74 -84 74 -248l-179 -17q0 142 -50.5 185.5t-179.5 43.5t-188 -45t-59 -148v-415q0 -110 62 -158t191.5 -48t173 34
t53.5 154h174q-16 -184 -106 -258t-305 -74z" />
    <glyph glyph-name="Dcaron" unicode="&#x10e;" horiz-adv-x="1522" 
d="M698 1631l-205 266h155l124 -174l132 174h161l-217 -266h-150zM420 150h354q218 0 291.5 81t73.5 231v509q0 221 -148 287q-84 38 -217 37h-354v-1145zM218 0v1446h574q415 0 518 -294q30 -86 30 -193v-477q0 -237 -136.5 -359.5t-409.5 -122.5h-576z" />
    <glyph glyph-name="dcaron" unicode="&#x10f;" horiz-adv-x="1200" 
d="M1343 935l-81 44q98 118 124 202q14 46 13 92h-141v233h257v-183q0 -173 -120 -330q-26 -34 -52 -58zM591 1080q128 0 235 -40v466h188v-1506h-128l-31 70q-49 -38 -129 -65t-158 -27q-217 0 -318.5 96.5t-101.5 260.5v400q0 165 109 255t334 90zM403.5 176
q67.5 -50 158.5 -50q162 0 264 63v703q-91 44 -221 44q-269 0 -269 -180v-435q0 -95 67.5 -145z" />
    <glyph glyph-name="Dcroat" unicode="&#x110;" horiz-adv-x="1215" 
d="M420 150h354q218 0 291.5 81t73.5 231v509q0 221 -148 287q-84 38 -217 37h-354v-446h358v-151h-358v-548zM76 698v151h142v597h574q415 0 518 -294q30 -86 30 -193v-477q0 -237 -136.5 -359.5t-409.5 -122.5h-576v698h-142z" />
    <glyph glyph-name="dcroat" unicode="&#x111;" horiz-adv-x="1200" 
d="M403.5 176q67.5 -50 158.5 -50q162 0 264 63v703q-91 44 -221 44q-269 0 -269 -180v-435q0 -95 67.5 -145zM591 1080q128 0 235 -40v209h-364v124h364v133h188v-133h163v-124h-163v-1249h-128l-31 70q-49 -38 -129 -65t-158 -27q-217 0 -318.5 96.5t-101.5 260.5v400
q0 165 109 255t334 90z" />
    <glyph glyph-name="Emacron" unicode="&#x112;" horiz-adv-x="1255" 
d="M475 1631v152h401v-152h-401zM218 0v1446h903v-150h-702v-476h620v-150h-620v-520h714v-150h-915z" />
    <glyph glyph-name="emacron" unicode="&#x113;" horiz-adv-x="1158" 
d="M376 1243v152h401v-152h-401zM589 -22q-233 0 -337 97t-104 299v369q0 157 107 247t323.5 90t322 -83.5t105.5 -238.5v-252h-670v-149q0 -132 53 -183.5t191 -51.5t156 6t37 14t26.5 19t20 33.5t18.5 87.5h166q-10 -95 -33.5 -153t-74 -92.5t-121 -46.5t-186.5 -12z
M336 633h488v145q0 90 -61.5 124t-180.5 34t-182.5 -41t-63.5 -135v-127z" />
    <glyph glyph-name="Ebreve" unicode="&#x114;" horiz-adv-x="1255" 
d="M676 1631q-101 0 -163.5 61.5t-62.5 150.5h105q0 -50 34.5 -83t88 -33t86.5 32t33 84h105q0 -89 -62.5 -150.5t-163.5 -61.5zM218 0v1446h903v-150h-702v-476h620v-150h-620v-520h714v-150h-915z" />
    <glyph glyph-name="ebreve" unicode="&#x115;" horiz-adv-x="1158" 
d="M577 1243q-101 0 -163.5 61.5t-62.5 150.5h105q0 -50 34.5 -83t88 -33t86.5 32t33 84h105q0 -89 -62.5 -150.5t-163.5 -61.5zM589 -22q-233 0 -337 97t-104 299v369q0 157 107 247t323.5 90t322 -83.5t105.5 -238.5v-252h-670v-149q0 -132 53 -183.5t191 -51.5t156 6
t37 14t26.5 19t20 33.5t18.5 87.5h166q-10 -95 -33.5 -153t-74 -92.5t-121 -46.5t-186.5 -12zM336 633h488v145q0 90 -61.5 124t-180.5 34t-182.5 -41t-63.5 -135v-127z" />
    <glyph glyph-name="Edotaccent" unicode="&#x116;" horiz-adv-x="1255" 
d="M573 1631v206h205v-206h-205zM218 0v1446h903v-150h-702v-476h620v-150h-620v-520h714v-150h-915z" />
    <glyph glyph-name="edotaccent" unicode="&#x117;" horiz-adv-x="1158" 
d="M474 1243v206h205v-206h-205zM589 -22q-233 0 -337 97t-104 299v369q0 157 107 247t323.5 90t322 -83.5t105.5 -238.5v-252h-670v-149q0 -132 53 -183.5t191 -51.5t156 6t37 14t26.5 19t20 33.5t18.5 87.5h166q-10 -95 -33.5 -153t-74 -92.5t-121 -46.5t-186.5 -12z
M336 633h488v145q0 90 -61.5 124t-180.5 34t-182.5 -41t-63.5 -135v-127z" />
    <glyph glyph-name="Eogonek" unicode="&#x118;" horiz-adv-x="1255" 
d="M879 -470q-134 0 -213.5 53t-79.5 142q0 137 182 291h62q-51 -49 -85.5 -120.5t-34.5 -134.5q0 -134 169 -134v-97zM218 0v1446h903v-150h-702v-476h620v-150h-620v-520h714v-150h-915z" />
    <glyph glyph-name="eogonek" unicode="&#x119;" horiz-adv-x="1158" 
d="M768 -495q-134 0 -213.5 53t-79.5 142q0 137 182 291h62q-51 -49 -85.5 -120.5t-34.5 -134.5q0 -134 169 -134v-97zM589 -22q-233 0 -337 97t-104 299v369q0 157 107 247t323.5 90t322 -83.5t105.5 -238.5v-252h-670v-149q0 -132 53 -183.5t191 -51.5t156 6t37 14
t26.5 19t20 33.5t18.5 87.5h166q-10 -95 -33.5 -153t-74 -92.5t-121 -46.5t-186.5 -12zM336 633h488v145q0 90 -61.5 124t-180.5 34t-182.5 -41t-63.5 -135v-127z" />
    <glyph glyph-name="Ecaron" unicode="&#x11a;" horiz-adv-x="1255" 
d="M595 1631l-205 266h155l124 -174l132 174h161l-217 -266h-150zM218 0v1446h903v-150h-702v-476h620v-150h-620v-520h714v-150h-915z" />
    <glyph glyph-name="ecaron" unicode="&#x11b;" horiz-adv-x="1158" 
d="M496 1243l-205 266h155l124 -174l132 174h161l-217 -266h-150zM589 -22q-233 0 -337 97t-104 299v369q0 157 107 247t323.5 90t322 -83.5t105.5 -238.5v-252h-670v-149q0 -132 53 -183.5t191 -51.5t156 6t37 14t26.5 19t20 33.5t18.5 87.5h166q-10 -95 -33.5 -153
t-74 -92.5t-121 -46.5t-186.5 -12zM336 633h488v145q0 90 -61.5 124t-180.5 34t-182.5 -41t-63.5 -135v-127z" />
    <glyph glyph-name="Gcircumflex" unicode="&#x11c;" horiz-adv-x="1556" 
d="M487 1631l216 266h150l206 -266h-156l-124 174l-132 -174h-160zM788 -22q-404 0 -529 200q-73 117 -73 308v454q0 309 180 431q143 97 402 97t379.5 -58.5t158.5 -156t38 -237.5l-184 -15q0 141 -27.5 188.5t-53 67.5t-86 34.5t-183 14.5t-192.5 -16q-70 -15 -124 -52
q-106 -73 -106 -261v-522q0 -188 101 -251.5t297.5 -63.5t284 62.5t87.5 252.5v133h-343v147h545v-735h-110l-25 246q-19 -125 -125.5 -196.5t-311.5 -71.5z" />
    <glyph glyph-name="gcircumflex" unicode="&#x11d;" horiz-adv-x="1186" 
d="M293 1243l216 266h150l206 -266h-156l-124 174l-132 -174h-160zM295 -227q104 -38 255 -38t211.5 57t60.5 177v147q-41 -38 -122.5 -57t-149.5 -19q-402 0 -402 339v349q0 165 100.5 258.5t301.5 93.5q80 0 164.5 -33.5t107.5 -71.5v85h188v-1035q0 -191 -100.5 -312
t-324.5 -121t-332 40zM822 790q0 146 -243 146t-243 -188v-398q0 -166 243 -166q143 0 243 80v526z" />
    <glyph glyph-name="Gbreve" unicode="&#x11e;" horiz-adv-x="1556" 
d="M773 1631q-101 0 -163.5 61.5t-62.5 150.5h105q0 -50 34.5 -83t88 -33t86.5 32t33 84h105q0 -89 -62.5 -150.5t-163.5 -61.5zM788 -22q-404 0 -529 200q-73 117 -73 308v454q0 309 180 431q143 97 402 97t379.5 -58.5t158.5 -156t38 -237.5l-184 -15q0 141 -27.5 188.5
t-53 67.5t-86 34.5t-183 14.5t-192.5 -16q-70 -15 -124 -52q-106 -73 -106 -261v-522q0 -188 101 -251.5t297.5 -63.5t284 62.5t87.5 252.5v133h-343v147h545v-735h-110l-25 246q-19 -125 -125.5 -196.5t-311.5 -71.5z" />
    <glyph glyph-name="gbreve" unicode="&#x11f;" horiz-adv-x="1186" 
d="M579 1243q-101 0 -163.5 61.5t-62.5 150.5h105q0 -50 34.5 -83t88 -33t86.5 32t33 84h105q0 -89 -62.5 -150.5t-163.5 -61.5zM295 -227q104 -38 255 -38t211.5 57t60.5 177v147q-41 -38 -122.5 -57t-149.5 -19q-402 0 -402 339v349q0 165 100.5 258.5t301.5 93.5
q80 0 164.5 -33.5t107.5 -71.5v85h188v-1035q0 -191 -100.5 -312t-324.5 -121t-332 40zM822 790q0 146 -243 146t-243 -188v-398q0 -166 243 -166q143 0 243 80v526z" />
    <glyph glyph-name="Gdotaccent" unicode="&#x120;" horiz-adv-x="1556" 
d="M670 1631v206h205v-206h-205zM788 -22q-404 0 -529 200q-73 117 -73 308v454q0 309 180 431q143 97 402 97t379.5 -58.5t158.5 -156t38 -237.5l-184 -15q0 141 -27.5 188.5t-53 67.5t-86 34.5t-183 14.5t-192.5 -16q-70 -15 -124 -52q-106 -73 -106 -261v-522
q0 -188 101 -251.5t297.5 -63.5t284 62.5t87.5 252.5v133h-343v147h545v-735h-110l-25 246q-19 -125 -125.5 -196.5t-311.5 -71.5z" />
    <glyph glyph-name="gdotaccent" unicode="&#x121;" horiz-adv-x="1186" 
d="M476 1243v206h205v-206h-205zM295 -227q104 -38 255 -38t211.5 57t60.5 177v147q-41 -38 -122.5 -57t-149.5 -19q-402 0 -402 339v349q0 165 100.5 258.5t301.5 93.5q80 0 164.5 -33.5t107.5 -71.5v85h188v-1035q0 -191 -100.5 -312t-324.5 -121t-332 40zM822 790
q0 146 -243 146t-243 -188v-398q0 -166 243 -166q143 0 243 80v526z" />
    <glyph glyph-name="Gcommaaccent" unicode="&#x122;" horiz-adv-x="1556" 
d="M729 -756l-81 44q98 118 124 202q14 46 13 92h-141v233h257v-183q0 -173 -120 -330q-26 -34 -52 -58zM788 -22q-404 0 -529 200q-73 117 -73 308v454q0 309 180 431q143 97 402 97t379.5 -58.5t158.5 -156t38 -237.5l-184 -15q0 141 -27.5 188.5t-53 67.5t-86 34.5
t-183 14.5t-192.5 -16q-70 -15 -124 -52q-106 -73 -106 -261v-522q0 -188 101 -251.5t297.5 -63.5t284 62.5t87.5 252.5v133h-343v147h545v-735h-110l-25 246q-19 -125 -125.5 -196.5t-311.5 -71.5z" />
    <glyph glyph-name="gcommaaccent" unicode="&#x123;" horiz-adv-x="1186" 
d="M295 -227q104 -38 255 -38t211.5 57t60.5 177v147q-41 -38 -122.5 -57t-149.5 -19q-402 0 -402 339v349q0 165 100.5 258.5t301.5 93.5q80 0 164.5 -33.5t107.5 -71.5v85h188v-1035q0 -191 -100.5 -312t-324.5 -121t-332 40zM822 790q0 146 -243 146t-243 -188v-398
q0 -166 243 -166q143 0 243 80v526zM696 1811l81 -44q-98 -118 -124 -202q-14 -46 -13 -92h141v-233h-257v183q0 173 120 330q26 34 52 58z" />
    <glyph glyph-name="Hcircumflex" unicode="&#x124;" horiz-adv-x="1528" 
d="M478 1631l216 266h150l206 -266h-156l-124 174l-132 -174h-160zM212 0v1446h201v-639h702v639h201v-1446h-201v659h-702v-659h-201z" />
    <glyph glyph-name="hcircumflex" unicode="&#x125;" horiz-adv-x="1226" 
d="M332 1668l216 266h150l206 -266h-156l-124 174l-132 -174h-160zM862 783q0 153 -236 153q-118 0 -185 -49t-67 -129v-758h-188v1505h188v-545q103 120 316 120q270 0 340 -188q20 -54 20 -119v-773h-188v783z" />
    <glyph glyph-name="Hbar" unicode="&#x126;" horiz-adv-x="1536" 
d="M144 1060v124h68v262h201v-262h702v262h201v-262h76v-124h-76v-1060h-201v659h-702v-659h-201v1060h-68zM413 1060v-253h702v253h-702z" />
    <glyph glyph-name="hbar" unicode="&#x127;" horiz-adv-x="1224" 
d="M862 783q0 153 -236 153q-118 0 -185 -49t-67 -129v-758h-188v1249h-157v124h157v132h188v-132h470v-124h-470v-289q103 120 316 120q270 0 340 -188q20 -54 20 -119v-773h-188v783z" />
    <glyph glyph-name="Itilde" unicode="&#x128;" horiz-adv-x="1132" 
d="M765 1645q0 93 -74 93q-36 0 -91 -53.5t-146.5 -53.5t-138 54t-46.5 175h97q0 -93 74 -93q36 0 91 53.5t146.5 53.5t138 -54t46.5 -175h-97zM190 0v150h276v1147h-276v149h752v-149h-275v-1147h275v-150h-752z" />
    <glyph glyph-name="itilde" unicode="&#x129;" horiz-adv-x="596" 
d="M499 1257q0 93 -74 93q-36 0 -91 -53.5t-146.5 -53.5t-138 54t-46.5 175h97q0 -93 74 -93q36 0 91 53.5t146.5 53.5t138 -54t46.5 -175h-97zM206 0v1060h188v-1060h-188z" />
    <glyph glyph-name="Imacron" unicode="&#x12a;" horiz-adv-x="1132" 
d="M366 1631v152h401v-152h-401zM190 0v150h276v1147h-276v149h752v-149h-275v-1147h275v-150h-752z" />
    <glyph glyph-name="imacron" unicode="&#x12b;" horiz-adv-x="596" 
d="M100 1243v152h401v-152h-401zM206 0v1060h188v-1060h-188z" />
    <glyph glyph-name="Ibreve" unicode="&#x12c;" horiz-adv-x="1132" 
d="M566 1631q-101 0 -163.5 61.5t-62.5 150.5h105q0 -50 34.5 -83t88 -33t86.5 32t33 84h105q0 -89 -62.5 -150.5t-163.5 -61.5zM190 0v150h276v1147h-276v149h752v-149h-275v-1147h275v-150h-752z" />
    <glyph glyph-name="ibreve" unicode="&#x12d;" horiz-adv-x="596" 
d="M300 1243q-101 0 -163.5 61.5t-62.5 150.5h105q0 -50 34.5 -83t88 -33t86.5 32t33 84h105q0 -89 -62.5 -150.5t-163.5 -61.5zM206 0v1060h188v-1060h-188z" />
    <glyph glyph-name="Iogonek" unicode="&#x12e;" horiz-adv-x="1132" 
d="M724 -470q-134 0 -213.5 53t-79.5 142q0 137 182 291h62q-51 -49 -85.5 -120.5t-34.5 -134.5q0 -134 169 -134v-97zM190 0v150h276v1147h-276v149h752v-149h-275v-1147h275v-150h-752z" />
    <glyph glyph-name="iogonek" unicode="&#x12f;" horiz-adv-x="596" 
d="M416 -470q-134 0 -213.5 53t-79.5 142q0 137 182 291h62q-51 -49 -85.5 -120.5t-34.5 -134.5q0 -134 169 -134v-97zM206 0v1060h188v-1060h-188zM206 1251v195h188v-195h-188z" />
    <glyph glyph-name="Idotaccent" unicode="&#x130;" horiz-adv-x="1132" 
d="M464 1631v206h205v-206h-205zM190 0v150h276v1147h-276v149h752v-149h-275v-1147h275v-150h-752z" />
    <glyph glyph-name="dotlessi" unicode="&#x131;" horiz-adv-x="596" 
d="M206 0v1060h188v-1060h-188z" />
    <glyph glyph-name="IJ" unicode="&#x132;" horiz-adv-x="2338" 
d="M1654 -17q-115 0 -239 28.5t-181 58.5l55 155q51 -24 157 -50.5t202 -26.5q141 0 206 72t65 215v846h-553v165h754v-1015q0 -213 -114.5 -330.5t-351.5 -117.5zM190 0v150h276v1147h-276v149h752v-149h-275v-1147h275v-150h-752z" />
    <glyph glyph-name="ij" unicode="&#x133;" horiz-adv-x="1198" 
d="M628 -353l-19 156h29q102 0 136 26.5t44 65t10 101.5v1064h188v-1053q0 -261 -120 -323q-71 -37 -202 -37h-66zM828 1251v195h188v-195h-188zM206 0v1060h188v-1060h-188zM206 1251v195h188v-195h-188z" />
    <glyph glyph-name="Jcircumflex" unicode="&#x134;" horiz-adv-x="1206" 
d="M319 1631l216 266h150l206 -266h-156l-124 174l-132 -174h-160zM522 -17q-115 0 -239 28.5t-181 58.5l55 155q51 -24 157 -50.5t202 -26.5q141 0 206 72t65 215v846h-553v165h754v-1015q0 -213 -114.5 -330.5t-351.5 -117.5z" />
    <glyph glyph-name="jcircumflex" unicode="&#x135;" horiz-adv-x="602" 
d="M10 1243l216 266h150l206 -266h-156l-124 174l-132 -174h-160zM32 -353l-19 156h29q102 0 136 26.5t44 65t10 101.5v1064h188v-1053q0 -261 -120 -323q-71 -37 -202 -37h-66z" />
    <glyph glyph-name="Kcommaaccent" unicode="&#x136;" horiz-adv-x="1418" 
d="M741 -734l-81 44q98 118 124 202q14 46 13 92h-141v233h257v-183q0 -173 -120 -330q-26 -34 -52 -58zM218 0v1446h201v-789l384.5 448l299.5 341h218l-543 -648l572 -798h-223l-490 690l-218 -222v-468h-201z" />
    <glyph glyph-name="kcommaaccent" unicode="&#x137;" horiz-adv-x="1152" 
d="M615 -734l-81 44q98 118 124 202q14 46 13 92h-141v233h257v-183q0 -173 -120 -330q-26 -34 -52 -58zM186 0v1506h188v-982l507 536h206l-431 -466l474 -594h-217l-380 492l-159 -158v-334h-188z" />
    <glyph glyph-name="kgreenlandic" unicode="&#x138;" horiz-adv-x="1148" 
d="M374 510l497 550h208l-414 -477l457 -583h-217l-384 498l-147 -144v-354h-188v1060h188v-550z" />
    <glyph glyph-name="Lacute" unicode="&#x139;" horiz-adv-x="1145" 
d="M590 1631l120 341h225l-239 -341h-106zM218 0v1446h201v-1291h649v-155h-850z" />
    <glyph glyph-name="lacute" unicode="&#x13a;" horiz-adv-x="696" 
d="M345 1668l120 341h225l-239 -341h-106zM530 -8q-93 0 -152 14t-104 53q-84 73 -84 299v1147h188v-1149q0 -128 38 -167t157 -39h33l-22 -158h-54z" />
    <glyph glyph-name="Lcommaaccent" unicode="&#x13b;" horiz-adv-x="1145" 
d="M599 -734l-81 44q98 118 124 202q14 46 13 92h-141v233h257v-183q0 -173 -120 -330q-26 -34 -52 -58zM218 0v1446h201v-1291h649v-155h-850z" />
    <glyph glyph-name="lcommaaccent" unicode="&#x13c;" horiz-adv-x="696" 
d="M355 -742l-81 44q98 118 124 202q14 46 13 92h-141v233h257v-183q0 -173 -120 -330q-26 -34 -52 -58zM530 -8q-93 0 -152 14t-104 53q-84 73 -84 299v1147h188v-1149q0 -128 38 -167t157 -39h33l-22 -158h-54z" />
    <glyph glyph-name="Lcaron" unicode="&#x13d;" horiz-adv-x="1145" 
d="M971 897l-81 44q98 118 124 202q14 46 13 92h-141v233h257v-183q0 -173 -120 -330q-26 -34 -52 -58zM218 0v1446h201v-1291h649v-155h-850z" />
    <glyph glyph-name="lcaron" unicode="&#x13e;" horiz-adv-x="696" 
d="M781 934l-81 44q98 118 124 202q14 46 13 92h-141v233h257v-183q0 -173 -120 -330q-26 -34 -52 -58zM530 -8q-93 0 -152 14t-104 53q-84 73 -84 299v1147h188v-1149q0 -128 38 -167t157 -39h33l-22 -158h-54z" />
    <glyph glyph-name="Ldot" unicode="&#x13f;" horiz-adv-x="1145" 
d="M706 631v206h205v-206h-205zM218 0v1446h201v-1291h649v-155h-850z" />
    <glyph glyph-name="ldot" unicode="&#x140;" horiz-adv-x="1108" 
d="M804 1277v206h205v-206h-205zM530 -8q-93 0 -152 14t-104 53q-84 73 -84 299v1147h188v-1149q0 -128 38 -167t157 -39h33l-22 -158h-54z" />
    <glyph glyph-name="Lslash" unicode="&#x141;" horiz-adv-x="1145" 
d="M52 616v124l166 83v623h201v-523l407 203v-124l-407 -203v-644h649v-155h-850v699z" />
    <glyph glyph-name="lslash" unicode="&#x142;" horiz-adv-x="708" 
d="M530 -8q-93 0 -152 14t-104 53q-84 73 -84 299v326l-138 -68v124l138 68v697h188v-605l226 111v-124l-226 -111v-420q0 -128 38 -167t157 -39h33l-22 -158h-54z" />
    <glyph glyph-name="Nacute" unicode="&#x143;" horiz-adv-x="1594" 
d="M744 1631l120 341h225l-239 -341h-106zM218 0v1446h153l828 -1156v1156h177v-1446h-179l-802 1104v-1104h-177z" />
    <glyph glyph-name="nacute" unicode="&#x144;" horiz-adv-x="1226" 
d="M565 1243l120 341h225l-239 -341h-106zM862 781q0 155 -237 155q-117 0 -184 -50t-67 -131v-755h-188v1060h188v-103q106 123 314 123q270 0 342 -190q20 -54 20 -120v-770h-188v781z" />
    <glyph glyph-name="Ncommaaccent" unicode="&#x145;" horiz-adv-x="1594" 
d="M753 -734l-81 44q98 118 124 202q14 46 13 92h-141v233h257v-183q0 -173 -120 -330q-26 -34 -52 -58zM218 0v1446h153l828 -1156v1156h177v-1446h-179l-802 1104v-1104h-177z" />
    <glyph glyph-name="ncommaaccent" unicode="&#x146;" horiz-adv-x="1226" 
d="M575 -734l-81 44q98 118 124 202q14 46 13 92h-141v233h257v-183q0 -173 -120 -330q-26 -34 -52 -58zM862 781q0 155 -237 155q-117 0 -184 -50t-67 -131v-755h-188v1060h188v-103q106 123 314 123q270 0 342 -190q20 -54 20 -120v-770h-188v781z" />
    <glyph glyph-name="Ncaron" unicode="&#x147;" horiz-adv-x="1594" 
d="M716 1631l-205 266h155l124 -174l132 174h161l-217 -266h-150zM218 0v1446h153l828 -1156v1156h177v-1446h-179l-802 1104v-1104h-177z" />
    <glyph glyph-name="ncaron" unicode="&#x148;" horiz-adv-x="1226" 
d="M537 1243l-205 266h155l124 -174l132 174h161l-217 -266h-150zM862 781q0 155 -237 155q-117 0 -184 -50t-67 -131v-755h-188v1060h188v-103q106 123 314 123q270 0 342 -190q20 -54 20 -120v-770h-188v781z" />
    <glyph glyph-name="napostrophe" unicode="&#x149;" horiz-adv-x="1226" 
d="M862 781q0 155 -237 155q-117 0 -184 -50t-67 -131v-755h-188v1060h188v-103q106 123 314 123q270 0 342 -190q20 -54 20 -120v-770h-188v781zM295 1255l-81 44q98 118 124 202q14 46 13 92h-141v233h257v-183q0 -173 -120 -330q-26 -34 -52 -58z" />
    <glyph glyph-name="Eng" unicode="&#x14a;" horiz-adv-x="1582" 
d="M821 -373l-28 141q207 18 257 48q80 46 99 98q33 88 33 201v75l-793 914v-1104h-177v1446h153l828 -976v976h177v-1324q0 -416 -364 -480q-82 -14 -185 -15z" />
    <glyph glyph-name="eng" unicode="&#x14b;" horiz-adv-x="1226" 
d="M862 781q0 155 -237 155q-117 0 -184 -50t-67 -131v-755h-188v1060h188v-103q106 123 314 123q270 0 342 -190q20 -54 20 -120v-551q0 -199 -23 -285t-52 -126t-75 -70q-84 -54 -259 -54l-28 141q139 -1 175 31l30 26q44 34 44 330v569z" />
    <glyph glyph-name="Omacron" unicode="&#x14c;" horiz-adv-x="1546" 
d="M572 1631v152h401v-152h-401zM1069 203.5q90 63.5 90 251.5v523q0 188 -90.5 258t-286.5 70q-304 0 -369 -168q-25 -64 -25 -160v-523q0 -187 98 -251t295.5 -64t287.5 63.5zM233 221q-47 111 -47 265v455q0 311 176 431q142 96 420 96q492 0 563 -366q15 -77 15 -174
v-428q0 -302 -173 -424q-139 -98 -392 -98t-384 66t-178 177z" />
    <glyph glyph-name="omacron" unicode="&#x14d;" horiz-adv-x="1174" 
d="M386 1243v152h401v-152h-401zM587 122q251 0 251 177v459q0 178 -251 178t-251 -178v-459q0 -177 251 -177zM919.5 68.5q-106.5 -90.5 -333.5 -90.5t-332.5 90t-105.5 247v427q0 157 105.5 247.5t332.5 90.5t333.5 -91t106.5 -247v-427q0 -156 -106.5 -246.5z" />
    <glyph glyph-name="Obreve" unicode="&#x14e;" horiz-adv-x="1546" 
d="M773 1631q-101 0 -163.5 61.5t-62.5 150.5h105q0 -50 34.5 -83t88 -33t86.5 32t33 84h105q0 -89 -62.5 -150.5t-163.5 -61.5zM1069 203.5q90 63.5 90 251.5v523q0 188 -90.5 258t-286.5 70q-304 0 -369 -168q-25 -64 -25 -160v-523q0 -187 98 -251t295.5 -64t287.5 63.5z
M233 221q-47 111 -47 265v455q0 311 176 431q142 96 420 96q492 0 563 -366q15 -77 15 -174v-428q0 -302 -173 -424q-139 -98 -392 -98t-384 66t-178 177z" />
    <glyph glyph-name="obreve" unicode="&#x14f;" horiz-adv-x="1174" 
d="M587 1243q-101 0 -163.5 61.5t-62.5 150.5h105q0 -50 34.5 -83t88 -33t86.5 32t33 84h105q0 -89 -62.5 -150.5t-163.5 -61.5zM587 122q251 0 251 177v459q0 178 -251 178t-251 -178v-459q0 -177 251 -177zM919.5 68.5q-106.5 -90.5 -333.5 -90.5t-332.5 90t-105.5 247
v427q0 157 105.5 247.5t332.5 90.5t333.5 -91t106.5 -247v-427q0 -156 -106.5 -246.5z" />
    <glyph glyph-name="Ohungarumlaut" unicode="&#x150;" horiz-adv-x="1546" 
d="M563 1631l106 475h211l-219 -475h-98zM860 1631l200 475h219l-296 -475h-123zM1069 203.5q90 63.5 90 251.5v523q0 188 -90.5 258t-286.5 70q-304 0 -369 -168q-25 -64 -25 -160v-523q0 -187 98 -251t295.5 -64t287.5 63.5zM233 221q-47 111 -47 265v455q0 311 176 431
q142 96 420 96q492 0 563 -366q15 -77 15 -174v-428q0 -302 -173 -424q-139 -98 -392 -98t-384 66t-178 177z" />
    <glyph glyph-name="ohungarumlaut" unicode="&#x151;" horiz-adv-x="1174" 
d="M377 1243l106 475h211l-219 -475h-98zM674 1243l200 475h219l-296 -475h-123zM587 122q251 0 251 177v459q0 178 -251 178t-251 -178v-459q0 -177 251 -177zM919.5 68.5q-106.5 -90.5 -333.5 -90.5t-332.5 90t-105.5 247v427q0 157 105.5 247.5t332.5 90.5t333.5 -91
t106.5 -247v-427q0 -156 -106.5 -246.5z" />
    <glyph glyph-name="OE" unicode="&#x152;" horiz-adv-x="1557" 
d="M776 0q-403 0 -523 201q-70 116 -69 309v408q0 311 174 431q140 97 418 97h615v-150h-414v-482h353v-150h-353v-514h423v-150h-624zM766 150h10v1145h-11q-192 0 -285.5 -78t-93.5 -262v-476q0 -183 92 -256t288 -73z" />
    <glyph glyph-name="oe" unicode="&#x153;" horiz-adv-x="1734" 
d="M569 -20q-419 0 -419 337v430q0 152 112 242.5t317.5 90.5t303.5 -130q92 130 305 130t314.5 -84t101.5 -238v-252h-625v-178q0 -106 54 -156.5t143 -50.5t128 7q38 8 68 30q51 38 61 173h170q-16 -196 -103 -273.5t-300 -77.5t-317 142q-98 -142 -314 -142zM569 121
q222 0 222 180v462q0 92 -55.5 133.5t-166.5 41.5t-171 -40.5t-60 -134.5v-462q0 -95 58.5 -137.5t172.5 -42.5zM979 633h443v145q0 91 -54 125.5t-169.5 34.5t-167.5 -40.5t-52 -137.5v-127z" />
    <glyph glyph-name="Racute" unicode="&#x154;" horiz-adv-x="1464" 
d="M741 1631l120 341h225l-239 -341h-106zM218 0v1446h645q299 0 375 -226q28 -84 28.5 -199.5t-26.5 -194t-69.5 -121t-107.5 -69.5l307 -636h-207l-287 600l-456 -1v-599h-202zM420 752h426q128 0 173.5 69t45.5 195q-1 226 -119 266q-34 12 -77 11h-449v-541z" />
    <glyph glyph-name="racute" unicode="&#x155;" horiz-adv-x="794" 
d="M411 1243l120 341h225l-239 -341h-106zM186 0v1060h188v-150q36 98 195 142q83 24 173 23l-6 -161q-136 0 -249 -54t-113 -118v-742h-188z" />
    <glyph glyph-name="Rcommaaccent" unicode="&#x156;" horiz-adv-x="1464" 
d="M751 -734l-81 44q98 118 124 202q14 46 13 92h-141v233h257v-183q0 -173 -120 -330q-26 -34 -52 -58zM218 0v1446h645q299 0 375 -226q28 -84 28.5 -199.5t-26.5 -194t-69.5 -121t-107.5 -69.5l307 -636h-207l-287 600l-456 -1v-599h-202zM420 752h426q128 0 173.5 69
t45.5 195q-1 226 -119 266q-34 12 -77 11h-449v-541z" />
    <glyph glyph-name="rcommaaccent" unicode="&#x157;" horiz-adv-x="794" 
d="M421 -734l-81 44q98 118 124 202q14 46 13 92h-141v233h257v-183q0 -173 -120 -330q-26 -34 -52 -58zM186 0v1060h188v-150q36 98 195 142q83 24 173 23l-6 -161q-136 0 -249 -54t-113 -118v-742h-188z" />
    <glyph glyph-name="Rcaron" unicode="&#x158;" horiz-adv-x="1464" 
d="M713 1631l-205 266h155l124 -174l132 174h161l-217 -266h-150zM218 0v1446h645q299 0 375 -226q28 -84 28.5 -199.5t-26.5 -194t-69.5 -121t-107.5 -69.5l307 -636h-207l-287 600l-456 -1v-599h-202zM420 752h426q128 0 173.5 69t45.5 195q-1 226 -119 266q-34 12 -77 11
h-449v-541z" />
    <glyph glyph-name="rcaron" unicode="&#x159;" horiz-adv-x="794" 
d="M383 1243l-205 266h155l124 -174l132 174h161l-217 -266h-150zM186 0v1060h188v-150q36 98 195 142q83 24 173 23l-6 -161q-136 0 -249 -54t-113 -118v-742h-188z" />
    <glyph glyph-name="Sacute" unicode="&#x15a;" horiz-adv-x="1304" 
d="M601 1631l120 341h225l-239 -341h-106zM1164 406q0 -428 -473 -428q-314 0 -547 135l71 154q90 -53 218.5 -90t250 -37t183.5 31q111 56 111 228q0 71 -7 95q-23 80 -169 126l-349 116q-169 55 -225.5 139.5t-56.5 216.5q1 190 139 290q119 85 346 86q323 0 485 -101
l-49 -157q-178 96 -401 96q-155 0 -236 -40t-87 -129q-2 -28 -2 -50q0 -72 30.5 -111t118.5 -69l364 -123q150 -51 217.5 -133.5t67.5 -244.5z" />
    <glyph glyph-name="sacute" unicode="&#x15b;" horiz-adv-x="992" 
d="M456 1243l120 341h225l-239 -341h-106zM503 122q213 0 213 159q0 69 -19 102.5t-89 59.5l-252 93q-116 41 -161.5 97.5t-45.5 141.5t17 136.5t56 90.5q78 78 280 78t348 -58l-43 -144q-51 21 -134 39.5t-145 18.5q-143 0 -181 -46q-23 -29 -23 -85t18.5 -79.5t72.5 -42.5
l249 -98q130 -51 171 -112.5t41 -193.5t-85 -216.5t-263 -84.5q-130 0 -231 28t-155 58l46 138q143 -80 315 -80z" />
    <glyph glyph-name="Scircumflex" unicode="&#x15c;" horiz-adv-x="1304" 
d="M368 1631l216 266h150l206 -266h-156l-124 174l-132 -174h-160zM1164 406q0 -428 -473 -428q-314 0 -547 135l71 154q90 -53 218.5 -90t250 -37t183.5 31q111 56 111 228q0 71 -7 95q-23 80 -169 126l-349 116q-169 55 -225.5 139.5t-56.5 216.5q1 190 139 290
q119 85 346 86q323 0 485 -101l-49 -157q-178 96 -401 96q-155 0 -236 -40t-87 -129q-2 -28 -2 -50q0 -72 30.5 -111t118.5 -69l364 -123q150 -51 217.5 -133.5t67.5 -244.5z" />
    <glyph glyph-name="scircumflex" unicode="&#x15d;" horiz-adv-x="992" 
d="M223 1243l216 266h150l206 -266h-156l-124 174l-132 -174h-160zM503 122q213 0 213 159q0 69 -19 102.5t-89 59.5l-252 93q-116 41 -161.5 97.5t-45.5 141.5t17 136.5t56 90.5q78 78 280 78t348 -58l-43 -144q-51 21 -134 39.5t-145 18.5q-143 0 -181 -46
q-23 -29 -23 -85t18.5 -79.5t72.5 -42.5l249 -98q130 -51 171 -112.5t41 -193.5t-85 -216.5t-263 -84.5q-130 0 -231 28t-155 58l46 138q143 -80 315 -80z" />
    <glyph glyph-name="Scedilla" unicode="&#x15e;" horiz-adv-x="1304" 
d="M637 -492q-48 0 -93 8v96q36 -7 88 -7t87.5 28.5t35.5 74t-44.5 86t-115.5 42.5v158h62l6 -94q105 -19 163 -78.5t58 -133t-65 -127t-182 -53.5zM1164 406q0 -428 -473 -428q-314 0 -547 135l71 154q90 -53 218.5 -90t250 -37t183.5 31q111 56 111 228q0 71 -7 95
q-23 80 -169 126l-349 116q-169 55 -225.5 139.5t-56.5 216.5q1 190 139 290q119 85 346 86q323 0 485 -101l-49 -157q-178 96 -401 96q-155 0 -236 -40t-87 -129q-2 -28 -2 -50q0 -72 30.5 -111t118.5 -69l364 -123q150 -51 217.5 -133.5t67.5 -244.5z" />
    <glyph glyph-name="scedilla" unicode="&#x15f;" horiz-adv-x="992" 
d="M491 -492q-48 0 -93 8v96q36 -7 88 -7t87.5 28.5t35.5 74t-44.5 86t-115.5 42.5v158h62l6 -94q105 -19 163 -78.5t58 -133t-65 -127t-182 -53.5zM503 122q213 0 213 159q0 69 -19 102.5t-89 59.5l-252 93q-116 41 -161.5 97.5t-45.5 141.5t17 136.5t56 90.5q78 78 280 78
t348 -58l-43 -144q-51 21 -134 39.5t-145 18.5q-143 0 -181 -46q-23 -29 -23 -85t18.5 -79.5t72.5 -42.5l249 -98q130 -51 171 -112.5t41 -193.5t-85 -216.5t-263 -84.5q-130 0 -231 28t-155 58l46 138q143 -80 315 -80z" />
    <glyph glyph-name="Scaron" unicode="&#x160;" horiz-adv-x="1304" 
d="M573 1631l-205 266h155l124 -174l132 174h161l-217 -266h-150zM1164 406q0 -428 -473 -428q-314 0 -547 135l71 154q90 -53 218.5 -90t250 -37t183.5 31q111 56 111 228q0 71 -7 95q-23 80 -169 126l-349 116q-169 55 -225.5 139.5t-56.5 216.5q1 190 139 290
q119 85 346 86q323 0 485 -101l-49 -157q-178 96 -401 96q-155 0 -236 -40t-87 -129q-2 -28 -2 -50q0 -72 30.5 -111t118.5 -69l364 -123q150 -51 217.5 -133.5t67.5 -244.5z" />
    <glyph glyph-name="scaron" unicode="&#x161;" horiz-adv-x="992" 
d="M428 1243l-205 266h155l124 -174l132 174h161l-217 -266h-150zM503 122q213 0 213 159q0 69 -19 102.5t-89 59.5l-252 93q-116 41 -161.5 97.5t-45.5 141.5t17 136.5t56 90.5q78 78 280 78t348 -58l-43 -144q-51 21 -134 39.5t-145 18.5q-143 0 -181 -46q-23 -29 -23 -85
t18.5 -79.5t72.5 -42.5l249 -98q130 -51 171 -112.5t41 -193.5t-85 -216.5t-263 -84.5q-130 0 -231 28t-155 58l46 138q143 -80 315 -80z" />
    <glyph glyph-name="Tcommaaccent" unicode="&#x162;" horiz-adv-x="1204" 
d="M585 -470q-48 0 -93 8v96q36 -7 88 -7t87.5 28.5t35.5 74t-44.5 86t-115.5 42.5v158h62l6 -94q105 -19 163 -78.5t58 -133t-65 -127t-182 -53.5zM501 0v1281h-417v165h1036v-165h-418v-1281h-201z" />
    <glyph glyph-name="tcommaaccent" unicode="&#x163;" horiz-adv-x="840" 
d="M559 -478q-48 0 -93 8v96q36 -7 88 -7t87.5 28.5t35.5 74t-44.5 86t-115.5 42.5v158h62l6 -94q105 -19 163 -78.5t58 -133t-65 -127t-182 -53.5zM676 -8q-222 0 -320.5 70t-98.5 241v615h-177v142h184l23 328h158v-328h266v-142h-266v-603q0 -100 57.5 -132.5
t200.5 -32.5h21l-20 -158h-28z" />
    <glyph glyph-name="Tcaron" unicode="&#x164;" horiz-adv-x="1204" 
d="M521 1631l-205 266h155l124 -174l132 174h161l-217 -266h-150zM501 0v1281h-417v165h1036v-165h-418v-1281h-201z" />
    <glyph glyph-name="tcaron" unicode="&#x165;" horiz-adv-x="840" 
d="M1053 817l-81 44q98 118 124 202q14 46 13 92h-141v233h257v-183q0 -173 -120 -330q-26 -34 -52 -58zM676 -8q-222 0 -320.5 70t-98.5 241v615h-177v142h184l23 328h158v-328h266v-142h-266v-603q0 -100 57.5 -132.5t200.5 -32.5h21l-20 -158h-28z" />
    <glyph glyph-name="Tbar" unicode="&#x166;" horiz-adv-x="1204" 
d="M232 688v129h269v464h-417v165h1036v-165h-418v-464h246v-129h-246v-688h-201v688h-269z" />
    <glyph glyph-name="tbar" unicode="&#x167;" horiz-adv-x="840" 
d="M676 -8q-222 0 -320.5 70t-98.5 241v257h-199v129h199v229h-177v142h184l23 328h158v-328h266v-142h-266v-229h329v-129h-329v-245q0 -100 57.5 -132.5t200.5 -32.5h21l-20 -158h-28z" />
    <glyph glyph-name="Utilde" unicode="&#x168;" horiz-adv-x="1538" 
d="M969 1645q0 93 -74 93q-36 0 -91 -53.5t-146.5 -53.5t-138 54t-46.5 175h97q0 -93 74 -93q36 0 91 53.5t146.5 53.5t138 -54t46.5 -175h-97zM776 -22q-386 0 -508 204q-68 114 -68 291v973h202v-994q0 -272 260 -306q51 -6 126 -6q154 0 251 60t97 252v994h202v-973
q0 -281 -166 -399q-136 -96 -396 -96z" />
    <glyph glyph-name="utilde" unicode="&#x169;" horiz-adv-x="1224" 
d="M807 1257q0 93 -74 93q-36 0 -91 -53.5t-146.5 -53.5t-138 54t-46.5 175h97q0 -93 74 -93q36 0 91 53.5t146.5 53.5t138 -54t46.5 -175h-97zM541 -22q-271 0 -344 192q-21 55 -21 120v770h188v-771q0 -78 57.5 -122.5t171.5 -44.5t185.5 56.5t71.5 130.5v751h188v-1060
h-168l-20 133q-88 -155 -309 -155z" />
    <glyph glyph-name="Umacron" unicode="&#x16a;" horiz-adv-x="1538" 
d="M568 1631v152h401v-152h-401zM776 -22q-386 0 -508 204q-68 114 -68 291v973h202v-994q0 -272 260 -306q51 -6 126 -6q154 0 251 60t97 252v994h202v-973q0 -281 -166 -399q-136 -96 -396 -96z" />
    <glyph glyph-name="umacron" unicode="&#x16b;" horiz-adv-x="1224" 
d="M406 1243v152h401v-152h-401zM541 -22q-271 0 -344 192q-21 55 -21 120v770h188v-771q0 -78 57.5 -122.5t171.5 -44.5t185.5 56.5t71.5 130.5v751h188v-1060h-168l-20 133q-88 -155 -309 -155z" />
    <glyph glyph-name="Ubreve" unicode="&#x16c;" horiz-adv-x="1538" 
d="M769 1631q-101 0 -163.5 61.5t-62.5 150.5h105q0 -50 34.5 -83t88 -33t86.5 32t33 84h105q0 -89 -62.5 -150.5t-163.5 -61.5zM776 -22q-386 0 -508 204q-68 114 -68 291v973h202v-994q0 -272 260 -306q51 -6 126 -6q154 0 251 60t97 252v994h202v-973q0 -281 -166 -399
q-136 -96 -396 -96z" />
    <glyph glyph-name="ubreve" unicode="&#x16d;" horiz-adv-x="1224" 
d="M607 1243q-101 0 -163.5 61.5t-62.5 150.5h105q0 -50 34.5 -83t88 -33t86.5 32t33 84h105q0 -89 -62.5 -150.5t-163.5 -61.5zM541 -22q-271 0 -344 192q-21 55 -21 120v770h188v-771q0 -78 57.5 -122.5t171.5 -44.5t185.5 56.5t71.5 130.5v751h188v-1060h-168l-20 133
q-88 -155 -309 -155z" />
    <glyph glyph-name="Uring" unicode="&#x16e;" horiz-adv-x="1538" 
d="M769 1696q109 0 109 113t-109 113q-48 0 -78.5 -26t-30.5 -86q0 -114 109 -114zM769 1631q-82 0 -138 45.5t-56 132.5t56 132.5t138 45.5t138 -45.5t56 -132.5t-56 -132.5t-138 -45.5zM776 -22q-386 0 -508 204q-68 114 -68 291v973h202v-994q0 -272 260 -306
q51 -6 126 -6q154 0 251 60t97 252v994h202v-973q0 -281 -166 -399q-136 -96 -396 -96z" />
    <glyph glyph-name="uring" unicode="&#x16f;" horiz-adv-x="1224" 
d="M607 1308q109 0 109 113t-109 113q-48 0 -78.5 -26t-30.5 -86q0 -114 109 -114zM607 1243q-82 0 -138 45.5t-56 132.5t56 132.5t138 45.5t138 -45.5t56 -132.5t-56 -132.5t-138 -45.5zM541 -22q-271 0 -344 192q-21 55 -21 120v770h188v-771q0 -78 57.5 -122.5
t171.5 -44.5t185.5 56.5t71.5 130.5v751h188v-1060h-168l-20 133q-88 -155 -309 -155z" />
    <glyph glyph-name="Uhungarumlaut" unicode="&#x170;" horiz-adv-x="1538" 
d="M559 1631l106 475h211l-219 -475h-98zM856 1631l200 475h219l-296 -475h-123zM776 -22q-386 0 -508 204q-68 114 -68 291v973h202v-994q0 -272 260 -306q51 -6 126 -6q154 0 251 60t97 252v994h202v-973q0 -281 -166 -399q-136 -96 -396 -96z" />
    <glyph glyph-name="uhungarumlaut" unicode="&#x171;" horiz-adv-x="1224" 
d="M397 1243l106 475h211l-219 -475h-98zM694 1243l200 475h219l-296 -475h-123zM541 -22q-271 0 -344 192q-21 55 -21 120v770h188v-771q0 -78 57.5 -122.5t171.5 -44.5t185.5 56.5t71.5 130.5v751h188v-1060h-168l-20 133q-88 -155 -309 -155z" />
    <glyph glyph-name="Uogonek" unicode="&#x172;" horiz-adv-x="1538" 
d="M849 -492q-134 0 -213.5 53t-79.5 142q0 137 182 291h62q-51 -49 -85.5 -120.5t-34.5 -134.5q0 -134 169 -134v-97zM776 -22q-386 0 -508 204q-68 114 -68 291v973h202v-994q0 -272 260 -306q51 -6 126 -6q154 0 251 60t97 252v994h202v-973q0 -281 -166 -399
q-136 -96 -396 -96z" />
    <glyph glyph-name="uogonek" unicode="&#x173;" horiz-adv-x="1224" 
d="M1036 -477q-134 0 -213.5 53t-79.5 142q0 137 182 291h62q-51 -49 -85.5 -120.5t-34.5 -134.5q0 -134 169 -134v-97zM541 -22q-271 0 -344 192q-21 55 -21 120v770h188v-771q0 -78 57.5 -122.5t171.5 -44.5t185.5 56.5t71.5 130.5v751h188v-1060h-168l-20 133
q-88 -155 -309 -155z" />
    <glyph glyph-name="Wcircumflex" unicode="&#x174;" horiz-adv-x="2048" 
d="M738 1631l216 266h150l206 -266h-156l-124 174l-132 -174h-160zM522 0l-410 1446h184l307 -1100l315 1100h215l329 -1100l291 1100h183l-394 -1446h-152l-353 1232l-363 -1232h-152z" />
    <glyph glyph-name="wcircumflex" unicode="&#x175;" horiz-adv-x="1614" 
d="M521 1243l216 266h150l206 -266h-156l-124 174l-132 -174h-160zM357 0l-305 1060h172l235 -832l255 832h181l266 -832l227 832h174l-310 -1060h-175l-271 845l-271 -845h-178z" />
    <glyph glyph-name="Ycircumflex" unicode="&#x176;" horiz-adv-x="1318" 
d="M373 1631l216 266h150l206 -266h-156l-124 174l-132 -174h-160zM560 0v568l-512 878h213l400 -702l402 702h207l-509 -878v-568h-201z" />
    <glyph glyph-name="ycircumflex" unicode="&#x177;" horiz-adv-x="1118" 
d="M282 1243l216 266h150l206 -266h-156l-124 174l-132 -174h-160zM198 -406v147q124 0 200.5 61t114.5 202l-437 1056h199l324 -844l271 844h190l-348 -1015q-69 -201 -124.5 -278.5t-106.5 -108.5q-105 -64 -283 -64z" />
    <glyph glyph-name="Ydieresis" unicode="&#x178;" horiz-adv-x="1318" 
d="M304 1631v181h206v-181h-206zM807 1631v181h206v-181h-206zM560 0v568l-512 878h213l400 -702l402 702h207l-509 -878v-568h-201z" />
    <glyph glyph-name="Zacute" unicode="&#x179;" horiz-adv-x="1242" 
d="M585 1631l120 341h225l-239 -341h-106zM180 0v150l682 1131h-651v165h872v-151l-681 -1130h694v-165h-916z" />
    <glyph glyph-name="zacute" unicode="&#x17a;" horiz-adv-x="964" 
d="M444 1243l120 341h225l-239 -341h-106zM140 0v118l507 818h-489v124h687v-115l-510 -821h519v-124h-714z" />
    <glyph glyph-name="Zdotaccent" unicode="&#x17b;" horiz-adv-x="1242" 
d="M536 1631v206h205v-206h-205zM180 0v150l682 1131h-651v165h872v-151l-681 -1130h694v-165h-916z" />
    <glyph glyph-name="zdotaccent" unicode="&#x17c;" horiz-adv-x="964" 
d="M394 1243v206h205v-206h-205zM140 0v118l507 818h-489v124h687v-115l-510 -821h519v-124h-714z" />
    <glyph glyph-name="Zcaron" unicode="&#x17d;" horiz-adv-x="1242" 
d="M597 1631l-205 266h155l124 -174l132 174h161l-217 -266h-150zM180 0v150l682 1131h-651v165h872v-151l-681 -1130h694v-165h-916z" />
    <glyph glyph-name="zcaron" unicode="&#x17e;" horiz-adv-x="964" 
d="M446 1243l-205 266h155l124 -174l132 174h161l-217 -266h-150zM140 0v118l507 818h-489v124h687v-115l-510 -821h519v-124h-714z" />
    <glyph glyph-name="florin" unicode="&#x192;" horiz-adv-x="890" 
d="M251 -190q-54 0 -110 7v124q17 -2 73 -2q120 0 119 124v664h-117v131h117v297q0 166 60 237.5t213 71.5q47 0 104 -6v-124q-12 1 -46 1q-85 0 -114 -44.5t-29 -113.5v-319h129v-131h-129v-636q0 -146 -61.5 -213.5t-208.5 -67.5z" />
    <glyph glyph-name="uni01C4" unicode="&#x1c4;" horiz-adv-x="2764" 
d="M2119 1631l-205 266h155l124 -174l132 174h161l-217 -266h-150zM1702 0v150l682 1131h-651v165h872v-151l-681 -1130h694v-165h-916zM420 150h354q218 0 291.5 81t73.5 231v509q0 221 -148 287q-84 38 -217 37h-354v-1145zM218 0v1446h574q415 0 518 -294q30 -86 30 -193
v-477q0 -237 -136.5 -359.5t-409.5 -122.5h-576z" />
    <glyph glyph-name="uni01C5" unicode="&#x1c5;" horiz-adv-x="2486" 
d="M1968 1243l-205 266h155l124 -174l132 174h161l-217 -266h-150zM1662 0v118l507 818h-489v124h687v-115l-510 -821h519v-124h-714zM420 150h354q218 0 291.5 81t73.5 231v509q0 221 -148 287q-84 38 -217 37h-354v-1145zM218 0v1446h574q415 0 518 -294q30 -86 30 -193
v-477q0 -237 -136.5 -359.5t-409.5 -122.5h-576z" />
    <glyph glyph-name="uni01C6" unicode="&#x1c6;" horiz-adv-x="2164" 
d="M1646 1243l-205 266h155l124 -174l132 174h161l-217 -266h-150zM1340 0v118l507 818h-489v124h687v-115l-510 -821h519v-124h-714zM591 1080q128 0 235 -40v466h188v-1506h-128l-31 70q-49 -38 -129 -65t-158 -27q-217 0 -318.5 96.5t-101.5 260.5v400q0 165 109 255
t334 90zM403.5 176q67.5 -50 158.5 -50q162 0 264 63v703q-91 44 -221 44q-269 0 -269 -180v-435q0 -95 67.5 -145z" />
    <glyph glyph-name="uni01C7" unicode="&#x1c7;" horiz-adv-x="2351" 
d="M1667 -17q-115 0 -239 28.5t-181 58.5l55 155q51 -24 157 -50.5t202 -26.5q141 0 206 72t65 215v846h-553v165h754v-1015q0 -213 -114.5 -330.5t-351.5 -117.5zM218 0v1446h201v-1291h649v-155h-850z" />
    <glyph glyph-name="uni01C8" unicode="&#x1c8;" horiz-adv-x="1747" 
d="M1177 -353l-19 156h29q102 0 136 26.5t44 65t10 101.5v1064h188v-1053q0 -261 -120 -323q-71 -37 -202 -37h-66zM1377 1251v195h188v-195h-188zM218 0v1446h201v-1291h649v-155h-850z" />
    <glyph glyph-name="uni01C9" unicode="&#x1c9;" horiz-adv-x="1298" 
d="M728 -353l-19 156h29q102 0 136 26.5t44 65t10 101.5v1064h188v-1053q0 -261 -120 -323q-71 -37 -202 -37h-66zM928 1251v195h188v-195h-188zM530 -8q-93 0 -152 14t-104 53q-84 73 -84 299v1147h188v-1149q0 -128 38 -167t157 -39h33l-22 -158h-54z" />
    <glyph glyph-name="uni01CA" unicode="&#x1ca;" horiz-adv-x="2800" 
d="M2116 -17q-115 0 -239 28.5t-181 58.5l55 155q51 -24 157 -50.5t202 -26.5q141 0 206 72t65 215v846h-553v165h754v-1015q0 -213 -114.5 -330.5t-351.5 -117.5zM218 0v1446h153l828 -1156v1156h177v-1446h-179l-802 1104v-1104h-177z" />
    <glyph glyph-name="uni01CB" unicode="&#x1cb;" horiz-adv-x="2196" 
d="M1626 -353l-19 156h29q102 0 136 26.5t44 65t10 101.5v1064h188v-1053q0 -261 -120 -323q-71 -37 -202 -37h-66zM1826 1251v195h188v-195h-188zM218 0v1446h153l828 -1156v1156h177v-1446h-179l-802 1104v-1104h-177z" />
    <glyph glyph-name="uni01CC" unicode="&#x1cc;" horiz-adv-x="1828" 
d="M1258 -353l-19 156h29q102 0 136 26.5t44 65t10 101.5v1064h188v-1053q0 -261 -120 -323q-71 -37 -202 -37h-66zM1458 1251v195h188v-195h-188zM862 781q0 155 -237 155q-117 0 -184 -50t-67 -131v-755h-188v1060h188v-103q106 123 314 123q270 0 342 -190
q20 -54 20 -120v-770h-188v781z" />
    <glyph glyph-name="uni01F1" unicode="&#x1f1;" horiz-adv-x="2764" 
d="M1702 0v150l682 1131h-651v165h872v-151l-681 -1130h694v-165h-916zM420 150h354q218 0 291.5 81t73.5 231v509q0 221 -148 287q-84 38 -217 37h-354v-1145zM218 0v1446h574q415 0 518 -294q30 -86 30 -193v-477q0 -237 -136.5 -359.5t-409.5 -122.5h-576z" />
    <glyph glyph-name="uni01F2" unicode="&#x1f2;" horiz-adv-x="2486" 
d="M1662 0v118l507 818h-489v124h687v-115l-510 -821h519v-124h-714zM420 150h354q218 0 291.5 81t73.5 231v509q0 221 -148 287q-84 38 -217 37h-354v-1145zM218 0v1446h574q415 0 518 -294q30 -86 30 -193v-477q0 -237 -136.5 -359.5t-409.5 -122.5h-576z" />
    <glyph glyph-name="uni01F3" unicode="&#x1f3;" horiz-adv-x="2164" 
d="M1340 0v118l507 818h-489v124h687v-115l-510 -821h519v-124h-714zM591 1080q128 0 235 -40v466h188v-1506h-128l-31 70q-49 -38 -129 -65t-158 -27q-217 0 -318.5 96.5t-101.5 260.5v400q0 165 109 255t334 90zM403.5 176q67.5 -50 158.5 -50q162 0 264 63v703
q-91 44 -221 44q-269 0 -269 -180v-435q0 -95 67.5 -145z" />
    <glyph glyph-name="uni01F4" unicode="&#x1f4;" horiz-adv-x="1556" 
d="M720 1631l120 341h225l-239 -341h-106zM788 -22q-404 0 -529 200q-73 117 -73 308v454q0 309 180 431q143 97 402 97t379.5 -58.5t158.5 -156t38 -237.5l-184 -15q0 141 -27.5 188.5t-53 67.5t-86 34.5t-183 14.5t-192.5 -16q-70 -15 -124 -52q-106 -73 -106 -261v-522
q0 -188 101 -251.5t297.5 -63.5t284 62.5t87.5 252.5v133h-343v147h545v-735h-110l-25 246q-19 -125 -125.5 -196.5t-311.5 -71.5z" />
    <glyph glyph-name="uni01F5" unicode="&#x1f5;" horiz-adv-x="1186" 
d="M526 1243l120 341h225l-239 -341h-106zM295 -227q104 -38 255 -38t211.5 57t60.5 177v147q-41 -38 -122.5 -57t-149.5 -19q-402 0 -402 339v349q0 165 100.5 258.5t301.5 93.5q80 0 164.5 -33.5t107.5 -71.5v85h188v-1035q0 -191 -100.5 -312t-324.5 -121t-332 40z
M822 790q0 146 -243 146t-243 -188v-398q0 -166 243 -166q143 0 243 80v526z" />
    <glyph glyph-name="uni0200" unicode="&#x200;" horiz-adv-x="1428" 
d="M504 1631l-296 475h219l200 -475h-123zM826 1631l-219 475h211l106 -475h-98zM86 0l539 1446h177l540 -1446h-205l-98 282h-645l-99 -282h-209zM442 425h551l-274 791z" />
    <glyph glyph-name="uni0201" unicode="&#x201;" horiz-adv-x="1172" 
d="M396 1243l-296 475h219l200 -475h-123zM718 1243l-219 475h211l106 -475h-98zM471 -22q-161 0 -250 87.5t-89 217.5q0 74 31 123q63 100 376 191q181 50 208.5 86t30.5 56.5t3 65.5t-36.5 88t-158.5 43q-172 0 -211 -66q-20 -34 -20 -92v-47h-181v48q0 155 103.5 228
t309.5 73t294 -93.5t88 -266.5v-452q0 -83 21 -107.5t90 -24.5l-22 -144h-38q-100 0 -149 38.5t-75 119.5q-83 -124 -200 -156q-56 -16 -125 -16zM368.5 386q-54.5 -41 -54.5 -115.5t50.5 -112.5t122 -38t129.5 18.5t104.5 55t60.5 83.5v306q-73 -73 -215.5 -114.5
t-197 -82.5z" />
    <glyph glyph-name="uni0202" unicode="&#x202;" horiz-adv-x="1428" 
d="M488 1631q0 89 62.5 150.5t163.5 61.5t163.5 -61.5t62.5 -150.5h-105q0 50 -34.5 83t-88 33t-86.5 -32t-33 -84h-105zM86 0l539 1446h177l540 -1446h-205l-98 282h-645l-99 -282h-209zM442 425h551l-274 791z" />
    <glyph glyph-name="uni0203" unicode="&#x203;" horiz-adv-x="1172" 
d="M380 1243q0 89 62.5 150.5t163.5 61.5t163.5 -61.5t62.5 -150.5h-105q0 50 -34.5 83t-88 33t-86.5 -32t-33 -84h-105zM471 -22q-161 0 -250 87.5t-89 217.5q0 74 31 123q63 100 376 191q181 50 208.5 86t30.5 56.5t3 65.5t-36.5 88t-158.5 43q-172 0 -211 -66
q-20 -34 -20 -92v-47h-181v48q0 155 103.5 228t309.5 73t294 -93.5t88 -266.5v-452q0 -83 21 -107.5t90 -24.5l-22 -144h-38q-100 0 -149 38.5t-75 119.5q-83 -124 -200 -156q-56 -16 -125 -16zM368.5 386q-54.5 -41 -54.5 -115.5t50.5 -112.5t122 -38t129.5 18.5t104.5 55
t60.5 83.5v306q-73 -73 -215.5 -114.5t-197 -82.5z" />
    <glyph glyph-name="uni0204" unicode="&#x204;" horiz-adv-x="1255" 
d="M466 1631l-296 475h219l200 -475h-123zM788 1631l-219 475h211l106 -475h-98zM218 0v1446h903v-150h-702v-476h620v-150h-620v-520h714v-150h-915z" />
    <glyph glyph-name="uni0205" unicode="&#x205;" horiz-adv-x="1158" 
d="M367 1243l-296 475h219l200 -475h-123zM689 1243l-219 475h211l106 -475h-98zM589 -22q-233 0 -337 97t-104 299v369q0 157 107 247t323.5 90t322 -83.5t105.5 -238.5v-252h-670v-149q0 -132 53 -183.5t191 -51.5t156 6t37 14t26.5 19t20 33.5t18.5 87.5h166
q-10 -95 -33.5 -153t-74 -92.5t-121 -46.5t-186.5 -12zM336 633h488v145q0 90 -61.5 124t-180.5 34t-182.5 -41t-63.5 -135v-127z" />
    <glyph glyph-name="uni0206" unicode="&#x206;" horiz-adv-x="1255" 
d="M450 1631q0 89 62.5 150.5t163.5 61.5t163.5 -61.5t62.5 -150.5h-105q0 50 -34.5 83t-88 33t-86.5 -32t-33 -84h-105zM218 0v1446h903v-150h-702v-476h620v-150h-620v-520h714v-150h-915z" />
    <glyph glyph-name="uni0207" unicode="&#x207;" horiz-adv-x="1158" 
d="M351 1243q0 89 62.5 150.5t163.5 61.5t163.5 -61.5t62.5 -150.5h-105q0 50 -34.5 83t-88 33t-86.5 -32t-33 -84h-105zM589 -22q-233 0 -337 97t-104 299v369q0 157 107 247t323.5 90t322 -83.5t105.5 -238.5v-252h-670v-149q0 -132 53 -183.5t191 -51.5t156 6t37 14
t26.5 19t20 33.5t18.5 87.5h166q-10 -95 -33.5 -153t-74 -92.5t-121 -46.5t-186.5 -12zM336 633h488v145q0 90 -61.5 124t-180.5 34t-182.5 -41t-63.5 -135v-127z" />
    <glyph glyph-name="uni0208" unicode="&#x208;" horiz-adv-x="1132" 
d="M356 1631l-296 475h219l200 -475h-123zM678 1631l-219 475h211l106 -475h-98zM190 0v150h276v1147h-276v149h752v-149h-275v-1147h275v-150h-752z" />
    <glyph glyph-name="uni0209" unicode="&#x209;" horiz-adv-x="596" 
d="M90 1243l-296 475h219l200 -475h-123zM412 1243l-219 475h211l106 -475h-98zM206 0v1060h188v-1060h-188z" />
    <glyph glyph-name="uni020A" unicode="&#x20a;" horiz-adv-x="1132" 
d="M340 1631q0 89 62.5 150.5t163.5 61.5t163.5 -61.5t62.5 -150.5h-105q0 50 -34.5 83t-88 33t-86.5 -32t-33 -84h-105zM190 0v150h276v1147h-276v149h752v-149h-275v-1147h275v-150h-752z" />
    <glyph glyph-name="uni020B" unicode="&#x20b;" horiz-adv-x="596" 
d="M74 1243q0 89 62.5 150.5t163.5 61.5t163.5 -61.5t62.5 -150.5h-105q0 50 -34.5 83t-88 33t-86.5 -32t-33 -84h-105zM206 0v1060h188v-1060h-188z" />
    <glyph glyph-name="uni020C" unicode="&#x20c;" horiz-adv-x="1546" 
d="M563 1631l-296 475h219l200 -475h-123zM885 1631l-219 475h211l106 -475h-98zM1069 203.5q90 63.5 90 251.5v523q0 188 -90.5 258t-286.5 70q-304 0 -369 -168q-25 -64 -25 -160v-523q0 -187 98 -251t295.5 -64t287.5 63.5zM233 221q-47 111 -47 265v455q0 311 176 431
q142 96 420 96q492 0 563 -366q15 -77 15 -174v-428q0 -302 -173 -424q-139 -98 -392 -98t-384 66t-178 177z" />
    <glyph glyph-name="uni020D" unicode="&#x20d;" horiz-adv-x="1174" 
d="M377 1243l-296 475h219l200 -475h-123zM699 1243l-219 475h211l106 -475h-98zM587 122q251 0 251 177v459q0 178 -251 178t-251 -178v-459q0 -177 251 -177zM919.5 68.5q-106.5 -90.5 -333.5 -90.5t-332.5 90t-105.5 247v427q0 157 105.5 247.5t332.5 90.5t333.5 -91
t106.5 -247v-427q0 -156 -106.5 -246.5z" />
    <glyph glyph-name="uni020E" unicode="&#x20e;" horiz-adv-x="1546" 
d="M547 1631q0 89 62.5 150.5t163.5 61.5t163.5 -61.5t62.5 -150.5h-105q0 50 -34.5 83t-88 33t-86.5 -32t-33 -84h-105zM1069 203.5q90 63.5 90 251.5v523q0 188 -90.5 258t-286.5 70q-304 0 -369 -168q-25 -64 -25 -160v-523q0 -187 98 -251t295.5 -64t287.5 63.5z
M233 221q-47 111 -47 265v455q0 311 176 431q142 96 420 96q492 0 563 -366q15 -77 15 -174v-428q0 -302 -173 -424q-139 -98 -392 -98t-384 66t-178 177z" />
    <glyph glyph-name="uni020F" unicode="&#x20f;" horiz-adv-x="1174" 
d="M361 1243q0 89 62.5 150.5t163.5 61.5t163.5 -61.5t62.5 -150.5h-105q0 50 -34.5 83t-88 33t-86.5 -32t-33 -84h-105zM587 122q251 0 251 177v459q0 178 -251 178t-251 -178v-459q0 -177 251 -177zM919.5 68.5q-106.5 -90.5 -333.5 -90.5t-332.5 90t-105.5 247v427
q0 157 105.5 247.5t332.5 90.5t333.5 -91t106.5 -247v-427q0 -156 -106.5 -246.5z" />
    <glyph glyph-name="uni0210" unicode="&#x210;" horiz-adv-x="1464" 
d="M584 1631l-296 475h219l200 -475h-123zM906 1631l-219 475h211l106 -475h-98zM218 0v1446h645q299 0 375 -226q28 -84 28.5 -199.5t-26.5 -194t-69.5 -121t-107.5 -69.5l307 -636h-207l-287 600l-456 -1v-599h-202zM420 752h426q128 0 173.5 69t45.5 195q-1 226 -119 266
q-34 12 -77 11h-449v-541z" />
    <glyph glyph-name="uni0211" unicode="&#x211;" horiz-adv-x="794" 
d="M254 1243l-296 475h219l200 -475h-123zM576 1243l-219 475h211l106 -475h-98zM186 0v1060h188v-150q36 98 195 142q83 24 173 23l-6 -161q-136 0 -249 -54t-113 -118v-742h-188z" />
    <glyph glyph-name="uni0212" unicode="&#x212;" horiz-adv-x="1464" 
d="M568 1631q0 89 62.5 150.5t163.5 61.5t163.5 -61.5t62.5 -150.5h-105q0 50 -34.5 83t-88 33t-86.5 -32t-33 -84h-105zM218 0v1446h645q299 0 375 -226q28 -84 28.5 -199.5t-26.5 -194t-69.5 -121t-107.5 -69.5l307 -636h-207l-287 600l-456 -1v-599h-202zM420 752h426
q128 0 173.5 69t45.5 195q-1 226 -119 266q-34 12 -77 11h-449v-541z" />
    <glyph glyph-name="uni0213" unicode="&#x213;" horiz-adv-x="794" 
d="M238 1243q0 89 62.5 150.5t163.5 61.5t163.5 -61.5t62.5 -150.5h-105q0 50 -34.5 83t-88 33t-86.5 -32t-33 -84h-105zM186 0v1060h188v-150q36 98 195 142q83 24 173 23l-6 -161q-136 0 -249 -54t-113 -118v-742h-188z" />
    <glyph glyph-name="uni0214" unicode="&#x214;" horiz-adv-x="1538" 
d="M559 1631l-296 475h219l200 -475h-123zM881 1631l-219 475h211l106 -475h-98zM776 -22q-386 0 -508 204q-68 114 -68 291v973h202v-994q0 -272 260 -306q51 -6 126 -6q154 0 251 60t97 252v994h202v-973q0 -281 -166 -399q-136 -96 -396 -96z" />
    <glyph glyph-name="uni0215" unicode="&#x215;" horiz-adv-x="1224" 
d="M397 1243l-296 475h219l200 -475h-123zM719 1243l-219 475h211l106 -475h-98zM541 -22q-271 0 -344 192q-21 55 -21 120v770h188v-771q0 -78 57.5 -122.5t171.5 -44.5t185.5 56.5t71.5 130.5v751h188v-1060h-168l-20 133q-88 -155 -309 -155z" />
    <glyph glyph-name="uni0216" unicode="&#x216;" horiz-adv-x="1538" 
d="M543 1631q0 89 62.5 150.5t163.5 61.5t163.5 -61.5t62.5 -150.5h-105q0 50 -34.5 83t-88 33t-86.5 -32t-33 -84h-105zM776 -22q-386 0 -508 204q-68 114 -68 291v973h202v-994q0 -272 260 -306q51 -6 126 -6q154 0 251 60t97 252v994h202v-973q0 -281 -166 -399
q-136 -96 -396 -96z" />
    <glyph glyph-name="uni0217" unicode="&#x217;" horiz-adv-x="1224" 
d="M381 1243q0 89 62.5 150.5t163.5 61.5t163.5 -61.5t62.5 -150.5h-105q0 50 -34.5 83t-88 33t-86.5 -32t-33 -84h-105zM541 -22q-271 0 -344 192q-21 55 -21 120v770h188v-771q0 -78 57.5 -122.5t171.5 -44.5t185.5 56.5t71.5 130.5v751h188v-1060h-168l-20 133
q-88 -155 -309 -155z" />
    <glyph glyph-name="Scommaaccent" unicode="&#x218;" horiz-adv-x="1304" 
d="M611 -756l-81 44q98 118 124 202q14 46 13 92h-141v233h257v-183q0 -173 -120 -330q-26 -34 -52 -58zM1164 406q0 -428 -473 -428q-314 0 -547 135l71 154q90 -53 218.5 -90t250 -37t183.5 31q111 56 111 228q0 71 -7 95q-23 80 -169 126l-349 116q-169 55 -225.5 139.5
t-56.5 216.5q1 190 139 290q119 85 346 86q323 0 485 -101l-49 -157q-178 96 -401 96q-155 0 -236 -40t-87 -129q-2 -28 -2 -50q0 -72 30.5 -111t118.5 -69l364 -123q150 -51 217.5 -133.5t67.5 -244.5z" />
    <glyph glyph-name="scommaaccent" unicode="&#x219;" horiz-adv-x="992" 
d="M465 -756l-81 44q98 118 124 202q14 46 13 92h-141v233h257v-183q0 -173 -120 -330q-26 -34 -52 -58zM503 122q213 0 213 159q0 69 -19 102.5t-89 59.5l-252 93q-116 41 -161.5 97.5t-45.5 141.5t17 136.5t56 90.5q78 78 280 78t348 -58l-43 -144q-51 21 -134 39.5
t-145 18.5q-143 0 -181 -46q-23 -29 -23 -85t18.5 -79.5t72.5 -42.5l249 -98q130 -51 171 -112.5t41 -193.5t-85 -216.5t-263 -84.5q-130 0 -231 28t-155 58l46 138q143 -80 315 -80z" />
    <glyph glyph-name="uni021A" unicode="&#x21a;" horiz-adv-x="1204" 
d="M559 -734l-81 44q98 118 124 202q14 46 13 92h-141v233h257v-183q0 -173 -120 -330q-26 -34 -52 -58zM501 0v1281h-417v165h1036v-165h-418v-1281h-201z" />
    <glyph glyph-name="uni021B" unicode="&#x21b;" horiz-adv-x="840" 
d="M359 -742l-81 44q98 118 124 202q14 46 13 92h-141v233h257v-183q0 -173 -120 -330q-26 -34 -52 -58zM676 -8q-222 0 -320.5 70t-98.5 241v615h-177v142h184l23 328h158v-328h266v-142h-266v-603q0 -100 57.5 -132.5t200.5 -32.5h21l-20 -158h-28z" />
    <glyph glyph-name="uni0237" unicode="&#x237;" horiz-adv-x="602" 
d="M32 -353l-19 156h29q102 0 136 26.5t44 65t10 101.5v1064h188v-1053q0 -261 -120 -323q-71 -37 -202 -37h-66z" />
    <glyph glyph-name="circumflex" unicode="&#x2c6;" horiz-adv-x="512" 
d="M-30 1240l216 266h150l206 -266h-156l-124 174l-132 -174h-160z" />
    <glyph glyph-name="caron" unicode="&#x2c7;" horiz-adv-x="512" 
d="M175 1240l-205 266h155l124 -174l132 174h161l-217 -266h-150z" />
    <glyph glyph-name="uni02C9" unicode="&#x2c9;" horiz-adv-x="513" 
d="M56 1354v152h401v-152h-401z" />
    <glyph glyph-name="breve" unicode="&#x2d8;" horiz-adv-x="512" 
d="M256 1294q-101 0 -163.5 61.5t-62.5 150.5h105q0 -50 34.5 -83t88 -33t86.5 32t33 84h105q0 -89 -62.5 -150.5t-163.5 -61.5z" />
    <glyph glyph-name="dotaccent" unicode="&#x2d9;" horiz-adv-x="512" 
d="M136 1275v231h240v-231h-240z" />
    <glyph glyph-name="ring" unicode="&#x2da;" horiz-adv-x="512" 
d="M256 1215q109 0 109 113t-109 113q-48 0 -78.5 -26t-30.5 -86q0 -114 109 -114zM256 1150q-82 0 -138 45.5t-56 132.5t56 132.5t138 45.5t138 -45.5t56 -132.5t-56 -132.5t-138 -45.5z" />
    <glyph glyph-name="ogonek" unicode="&#x2db;" horiz-adv-x="513" 
d="M403 -486q-134 0 -213.5 53t-79.5 142q0 137 182 291h62q-51 -49 -85.5 -120.5t-34.5 -134.5q0 -134 169 -134v-97z" />
    <glyph glyph-name="tilde" unicode="&#x2dc;" horiz-adv-x="512" 
d="M455 1277q0 93 -74 93q-36 0 -91 -53.5t-146.5 -53.5t-138 54t-46.5 175h97q0 -93 74 -93q36 0 91 53.5t146.5 53.5t138 -54t46.5 -175h-97z" />
    <glyph glyph-name="hungarumlaut" unicode="&#x2dd;" horiz-adv-x="1024" 
d="M154 1031l106 475h211l-219 -475h-98zM451 1031l200 475h219l-296 -475h-123z" />
    <glyph glyph-name="uni0307" unicode="&#x307;" horiz-adv-x="412" 
d="M108 1277v206h205v-206h-205z" />
    <glyph glyph-name="uni030F" unicode="&#x30f;" horiz-adv-x="1024" 
d="M450 1031l-296 475h219l200 -475h-123zM772 1031l-219 475h211l106 -475h-98z" />
    <glyph glyph-name="uni0311" unicode="&#x311;" horiz-adv-x="512" 
d="M30 1294q0 89 62.5 150.5t163.5 61.5t163.5 -61.5t62.5 -150.5h-105q0 50 -34.5 83t-88 33t-86.5 -32t-33 -84h-105z" />
    <glyph glyph-name="uni0326" unicode="&#x326;" horiz-adv-x="769" 
d="M341 -664l-81 44q98 118 124 202q14 46 13 92h-141v233h257v-183q0 -173 -120 -330q-26 -34 -52 -58z" />
    <glyph glyph-name="Delta" unicode="&#x394;" horiz-adv-x="1428" 
d="M422 143h591l-294 1053zM1237 0h-1046l434 1446h177z" />
    <glyph glyph-name="uni1E02" unicode="&#x1e02;" horiz-adv-x="1420" 
d="M602 1631v206h205v-206h-205zM218 0v1446h524q336 0 426 -149q54 -89 54 -248q-5 -215 -182 -276q124 -28 188 -124t64 -238q0 -215 -121 -313t-385 -98h-568zM420 149h351q170 0 246.5 55t76.5 229q0 263 -274 263h-400v-547zM420 833h371q129 0 179.5 54t50.5 147
t-13.5 140t-51 75t-93 37t-152.5 9h-291v-462z" />
    <glyph glyph-name="uni1E03" unicode="&#x1e03;" horiz-adv-x="1204" 
d="M518 1669v206h205v-206h-205zM374 1010q124 70 299 70t279 -93t104 -251v-384q0 -165 -114 -269.5t-316 -104.5q-128 0 -277 93l-24 -71h-139v1506h188v-496zM868 750q0 186 -235 186q-115 0 -259 -66v-682q110 -62 224.5 -62t192 55.5t77.5 150.5v418z" />
    <glyph glyph-name="uni1E0A" unicode="&#x1e0a;" horiz-adv-x="1522" 
d="M676 1631v206h205v-206h-205zM420 150h354q218 0 291.5 81t73.5 231v509q0 221 -148 287q-84 38 -217 37h-354v-1145zM218 0v1446h574q415 0 518 -294q30 -86 30 -193v-477q0 -237 -136.5 -359.5t-409.5 -122.5h-576z" />
    <glyph glyph-name="uni1E0B" unicode="&#x1e0b;" horiz-adv-x="1200" 
d="M478 1669v206h205v-206h-205zM591 1080q128 0 235 -40v466h188v-1506h-128l-31 70q-49 -38 -129 -65t-158 -27q-217 0 -318.5 96.5t-101.5 260.5v400q0 165 109 255t334 90zM403.5 176q67.5 -50 158.5 -50q162 0 264 63v703q-91 44 -221 44q-269 0 -269 -180v-435
q0 -95 67.5 -145z" />
    <glyph glyph-name="uni1E1E" unicode="&#x1e1e;" horiz-adv-x="1159" 
d="M526 1631v206h205v-206h-205zM218 0v1446h821v-150h-620v-482h584v-150h-584v-664h-201z" />
    <glyph glyph-name="uni1E1F" unicode="&#x1e1f;" horiz-adv-x="790" 
d="M374 1669v206h205v-206h-205zM287 0v918h-177v142h177v161q0 147 80.5 215.5t245.5 68.5h119l12 -133h-116q-153 0 -153 -133v-179h257v-142h-257v-918h-188z" />
    <glyph glyph-name="uni1E40" unicode="&#x1e40;" horiz-adv-x="1778" 
d="M786 1631v206h205v-206h-205zM218 0v1446h185l487 -808l492 808h178v-1446h-190v1121l-405 -663h-149l-406 659v-1117h-192z" />
    <glyph glyph-name="uni1E41" unicode="&#x1e41;" horiz-adv-x="1860" 
d="M832 1243v206h205v-206h-205zM844 781q0 155 -229 155q-116 0 -178.5 -49.5t-62.5 -131.5v-755h-188v1060h188v-103q106 123 318.5 123t296.5 -139l25 24q115 115 322 115q267 0 330 -190q18 -54 18 -120v-770h-188v781q0 155 -208 155q-131 0 -193.5 -49.5t-62.5 -131.5
v-755h-188v781z" />
    <glyph glyph-name="uni1E56" unicode="&#x1e56;" horiz-adv-x="1326" 
d="M606 1631v206h205v-206h-205zM218 0v1446h578q402 0 402 -455q0 -248 -104.5 -355t-300.5 -107h-373v-529h-202zM420 682h377q177 0 195 206q4 38 4 90q0 175 -47.5 245t-146.5 70h-382v-611z" />
    <glyph glyph-name="uni1E57" unicode="&#x1e57;" horiz-adv-x="1198" 
d="M516 1243v206h205v-206h-205zM186 -408v1468h148l22 -80q46 41 126 70.5t166 29.5q197 0 299.5 -96t102.5 -255v-385q0 -164 -112 -265t-314 -101q-140 0 -250 56v-442h-188zM374 179q101 -57 226 -57t193.5 53t68.5 149v420q0 92 -67.5 142t-165 50t-166 -40t-89.5 -72
v-645z" />
    <glyph glyph-name="uni1E60" unicode="&#x1e60;" horiz-adv-x="1304" 
d="M552 1631v206h205v-206h-205zM1164 406q0 -428 -473 -428q-314 0 -547 135l71 154q90 -53 218.5 -90t250 -37t183.5 31q111 56 111 228q0 71 -7 95q-23 80 -169 126l-349 116q-169 55 -225.5 139.5t-56.5 216.5q1 190 139 290q119 85 346 86q323 0 485 -101l-49 -157
q-178 96 -401 96q-155 0 -236 -40t-87 -129q-2 -28 -2 -50q0 -72 30.5 -111t118.5 -69l364 -123q150 -51 217.5 -133.5t67.5 -244.5z" />
    <glyph glyph-name="uni1E61" unicode="&#x1e61;" horiz-adv-x="992" 
d="M406 1243v206h205v-206h-205zM503 122q213 0 213 159q0 69 -19 102.5t-89 59.5l-252 93q-116 41 -161.5 97.5t-45.5 141.5t17 136.5t56 90.5q78 78 280 78t348 -58l-43 -144q-51 21 -134 39.5t-145 18.5q-143 0 -181 -46q-23 -29 -23 -85t18.5 -79.5t72.5 -42.5l249 -98
q130 -51 171 -112.5t41 -193.5t-85 -216.5t-263 -84.5q-130 0 -231 28t-155 58l46 138q143 -80 315 -80z" />
    <glyph glyph-name="uni1E6A" unicode="&#x1e6a;" horiz-adv-x="1204" 
d="M500 1631v206h205v-206h-205zM501 0v1281h-417v165h1036v-165h-418v-1281h-201z" />
    <glyph glyph-name="uni1E6B" unicode="&#x1e6b;" horiz-adv-x="840" 
d="M300 1551v206h205v-206h-205zM676 -8q-222 0 -320.5 70t-98.5 241v615h-177v142h184l23 328h158v-328h266v-142h-266v-603q0 -100 57.5 -132.5t200.5 -32.5h21l-20 -158h-28z" />
    <glyph glyph-name="Wgrave" unicode="&#x1e80;" horiz-adv-x="2048" 
d="M971 1631l-257 341h225l138 -341h-106zM522 0l-410 1446h184l307 -1100l315 1100h215l329 -1100l291 1100h183l-394 -1446h-152l-353 1232l-363 -1232h-152z" />
    <glyph glyph-name="wgrave" unicode="&#x1e81;" horiz-adv-x="1614" 
d="M754 1243l-257 341h225l138 -341h-106zM357 0l-305 1060h172l235 -832l255 832h181l266 -832l227 832h174l-310 -1060h-175l-271 845l-271 -845h-178z" />
    <glyph glyph-name="Wacute" unicode="&#x1e82;" horiz-adv-x="2048" 
d="M971 1631l120 341h225l-239 -341h-106zM522 0l-410 1446h184l307 -1100l315 1100h215l329 -1100l291 1100h183l-394 -1446h-152l-353 1232l-363 -1232h-152z" />
    <glyph glyph-name="wacute" unicode="&#x1e83;" horiz-adv-x="1614" 
d="M754 1243l120 341h225l-239 -341h-106zM357 0l-305 1060h172l235 -832l255 832h181l266 -832l227 832h174l-310 -1060h-175l-271 845l-271 -845h-178z" />
    <glyph glyph-name="Wdieresis" unicode="&#x1e84;" horiz-adv-x="2048" 
d="M670 1631v181h206v-181h-206zM1173 1631v181h206v-181h-206zM522 0l-410 1446h184l307 -1100l315 1100h215l329 -1100l291 1100h183l-394 -1446h-152l-353 1232l-363 -1232h-152z" />
    <glyph glyph-name="wdieresis" unicode="&#x1e85;" horiz-adv-x="1614" 
d="M452 1243v181h206v-181h-206zM955 1243v181h206v-181h-206zM357 0l-305 1060h172l235 -832l255 832h181l266 -832l227 832h174l-310 -1060h-175l-271 845l-271 -845h-178z" />
    <glyph glyph-name="Ygrave" unicode="&#x1ef2;" horiz-adv-x="1318" 
d="M606 1631l-257 341h225l138 -341h-106zM560 0v568l-512 878h213l400 -702l402 702h207l-509 -878v-568h-201z" />
    <glyph glyph-name="ygrave" unicode="&#x1ef3;" horiz-adv-x="1118" 
d="M515 1243l-257 341h225l138 -341h-106zM198 -406v147q124 0 200.5 61t114.5 202l-437 1056h199l324 -844l271 844h190l-348 -1015q-69 -201 -124.5 -278.5t-106.5 -108.5q-105 -64 -283 -64z" />
    <glyph glyph-name="endash" unicode="&#x2013;" horiz-adv-x="539" 
d="M2 606v126h533v-126h-533z" />
    <glyph glyph-name="emdash" unicode="&#x2014;" horiz-adv-x="1101" 
d="M2 402v146h1096v-146h-1096z" />
    <glyph glyph-name="quoteleft" unicode="&#x2018;" horiz-adv-x="769" 
d="M428 1468l81 -44q-98 -118 -124 -202q-14 -46 -13 -92h141v-233h-257v183q0 173 120 330q26 34 52 58z" />
    <glyph glyph-name="quoteright" unicode="&#x2019;" horiz-adv-x="769" 
d="M341 897l-81 44q98 118 124 202q14 46 13 92h-141v233h257v-183q0 -173 -120 -330q-26 -34 -52 -58z" />
    <glyph glyph-name="quotesinglbase" unicode="&#x201a;" horiz-adv-x="769" 
d="M341 -338l-81 44q98 118 124 202q14 46 13 92h-141v233h257v-183q0 -173 -120 -330q-26 -34 -52 -58z" />
    <glyph glyph-name="quotedblleft" unicode="&#x201c;" horiz-adv-x="1181" 
d="M428 1468l81 -44q-98 -118 -124 -202q-14 -46 -13 -92h141v-233h-257v183q0 173 120 330q26 34 52 58zM840 1468l81 -44q-98 -118 -124 -202q-14 -46 -13 -92h141v-233h-257v183q0 173 120 330q26 34 52 58z" />
    <glyph glyph-name="quotedblright" unicode="&#x201d;" horiz-adv-x="1181" 
d="M341 897l-81 44q98 118 124 202q14 46 13 92h-141v233h257v-183q0 -173 -120 -330q-26 -34 -52 -58zM753 897l-81 44q98 118 124 202q14 46 13 92h-141v233h257v-183q0 -173 -120 -330q-26 -34 -52 -58z" />
    <glyph glyph-name="quotedblbase" unicode="&#x201e;" horiz-adv-x="1181" 
d="M753 -338l-81 44q98 118 124 202q14 46 13 92h-141v233h257v-183q0 -173 -120 -330q-26 -34 -52 -58zM341 -338l-81 44q98 118 124 202q14 46 13 92h-141v233h257v-183q0 -173 -120 -330q-26 -34 -52 -58z" />
    <glyph glyph-name="dagger" unicode="&#x2020;" horiz-adv-x="890" 
d="M348 0v931h-260v129h260v386h188v-386h266v-129h-266v-931h-188z" />
    <glyph glyph-name="daggerdbl" unicode="&#x2021;" horiz-adv-x="938" 
d="M372 0v409h-260v129h260v393h-260v129h260v386h188v-386h266v-129h-266v-393h266v-129h-266v-409h-188z" />
    <glyph glyph-name="bullet" unicode="&#x2022;" horiz-adv-x="975" 
d="M723 373q-72 -75 -236.5 -75t-235.5 74.5t-71 226.5t71.5 227t236 75t236 -75t71.5 -226.5t-72 -226.5z" />
    <glyph glyph-name="ellipsis" unicode="&#x2026;" horiz-adv-x="1884" 
d="M1442 0v242h256v-242h-256zM814 0v242h256v-242h-256zM186 0v242h256v-242h-256z" />
    <glyph glyph-name="perthousand" unicode="&#x2030;" horiz-adv-x="2886" 
d="M507 774q113 0 141 99q16 54 16 147v93q0 148 -38.5 190t-99.5 42q-61 1 -90 -11q-55 -22 -69.5 -76.5t-14.5 -142.5v-95q0 -150 38.5 -198t116.5 -48zM740 755.5q-69 -97.5 -232.5 -97.5t-231 97.5t-67.5 281.5v53q0 186 66.5 278.5t233.5 92.5t232.5 -95t67.5 -275v-54
q0 -184 -69 -281.5zM1611 97q113 0 141 99q16 54 16 147v93q0 148 -38.5 190t-99.5 42t-90 -12q-55 -22 -69.5 -76t-14.5 -142v-95q0 -150 38.5 -198t116.5 -48zM1844 78.5q-69 -97.5 -232.5 -97.5t-231 97.5t-67.5 281.5v53q0 186 66.5 278.5t233.5 92.5t232.5 -95
t67.5 -275v-54q0 -184 -69 -281.5zM2390 97q114 0 142 99q16 54 15 147v93q0 148 -38.5 190t-99.5 42t-90 -12q-55 -22 -69.5 -76t-14.5 -142v-95q0 -150 38.5 -198t116.5 -48zM2623 78.5q-69 -97.5 -232.5 -97.5t-231 97.5t-67.5 281.5v53q0 186 66.5 278.5t233.5 92.5
t232.5 -95t67.5 -275v-54q0 -184 -69 -281.5zM705 0l543 1446h149l-538 -1446h-154z" />
    <glyph glyph-name="guilsinglleft" unicode="&#x2039;" horiz-adv-x="768" 
d="M454 80l-280 450l273 450l147 -70l-207 -380l207 -380z" />
    <glyph glyph-name="guilsinglright" unicode="&#x203a;" horiz-adv-x="768" 
d="M327 80l-147 70l207 380l-207 380l140 70l280 -450z" />
    <glyph glyph-name="fraction" unicode="&#x2044;" horiz-adv-x="768" 
d="M16 0l553 1506h183l-549 -1506h-187z" />
    <glyph glyph-name="uni2074" unicode="&#x2074;" horiz-adv-x="1267" 
d="M689 614v207h-434v92l359 593h141l-348 -594h282v235h113v-235h144v-91h-144v-207h-113z" />
    <glyph glyph-name="Euro" unicode="&#x20ac;" horiz-adv-x="1460" 
d="M225 219.5q-43 110.5 -43 266.5v19h-181v134h181v180h-181v134h181q3 306 164 418q139 97 404.5 97t385.5 -73.5t150 -230.5q14 -70 14 -167l-191 -17q0 146 -25 197.5t-49.5 73.5t-80.5 38.5t-175 16.5t-187 -16q-68 -15 -116 -52q-92 -71 -92 -261v-24h359v-134h-359
v-180h359v-134h-359v-50q0 -188 93 -251.5t296.5 -63.5t259.5 48t69 140q7 50 7 120h191q0 -218 -63 -306q-116 -164 -441 -164q-273 0 -400.5 65.5t-170.5 176z" />
    <glyph glyph-name="trademark" unicode="&#x2122;" horiz-adv-x="1843" 
d="M845 766v680h198l184 -413l186 413h196v-680h-127v563l-172 -398h-161l-179 398v-563h-125zM345 766v566h-212v114h559v-114h-212v-566h-135z" />
    <glyph glyph-name="uni2206" unicode="&#x2206;" horiz-adv-x="1104" 
d="M82 350v124l398 1031h170l372 -1031v-124h-940zM263 494h583l-279 841z" />
    <glyph glyph-name="product" unicode="&#x220f;" horiz-adv-x="1792" 
d="M660 319v834h322q257 0 263 -245v-14q0 -113 -61.5 -177.5t-214.5 -64.5h-178v-333h-131zM791 742h186q134 0 136 135v24q0 161 -127 161h-195v-320zM574.5 165.5q144.5 -83.5 324 -83.5t323.5 83.5t224 229.5t80 326.5t-80 326.5t-224 229.5t-323.5 83.5t-324 -83.5
t-225 -229.5t-80.5 -326t80.5 -326.5t225 -230zM1186.5 42.5q-136.5 -56.5 -315.5 -56.5t-347.5 96t-266 265t-97.5 374.5t97.5 374t266 264.5t373 96t373.5 -96t265.5 -264.5t96.5 -348.5t-57 -316.5t-154.5 -234t-234 -154z" />
    <glyph glyph-name="minus" unicode="&#x2212;" horiz-adv-x="911" 
d="M142 439v170h627v-170h-627z" />
    <glyph glyph-name="uni2215" unicode="&#x2215;" horiz-adv-x="768" 
d="M521 1506h183l-453 -1506h-187z" />
    <glyph glyph-name="uni2219" unicode="&#x2219;" horiz-adv-x="412" 
d="M108 1277v206h205v-206h-205z" />
    <glyph glyph-name="infinity" unicode="&#x221e;" horiz-adv-x="1650" 
d="M376 616q33 0 118 53t154 107l69 53q-107 79 -207.5 138.5t-133.5 59.5q-74 0 -115 -61t-41 -145t41 -144.5t115 -60.5zM236.5 1129.5q59.5 28.5 121.5 28.5q112 0 235 -72t196 -130l29 -23l32 24q162 123 314 177q68 24 117 24q97 0 168 -50t104 -125.5t33 -162.5
t-33 -161.5t-104 -124t-168 -49.5q-125 0 -351 162q-52 37 -82 63l-30 26q-176 -160 -333 -224q-66 -27 -116 -27q-97 0 -168 50q-137 96 -137 287q0 132 76 231q37 48 96.5 76.5zM1261 1027q-33 0 -118.5 -50.5t-154.5 -100.5l-69 -50q91 -73 200 -141.5t142 -68.5
q74 0 115 60.5t41 144.5t-41 145t-115 61z" />
    <glyph glyph-name="integral" unicode="&#x222b;" horiz-adv-x="890" 
d="M251 -380q-54 0 -110 7v124q17 -2 73 -2q120 0 119 124v1286q0 166 60 237.5t213 71.5q47 0 104 -6v-124q-12 1 -46 1q-85 0 -114 -44.5t-29 -113.5v-1280q0 -146 -61.5 -213.5t-208.5 -67.5z" />
    <glyph glyph-name="approxequal" unicode="&#x2248;" horiz-adv-x="881" 
d="M470 839.5q103 -58.5 140 -58.5q110 0 110 103h97q0 -119 -61 -184t-149 -65q-87 0 -253 88q-54 29 -83 29q-110 0 -110 -103h-97q0 119 61 184t151.5 65t193.5 -58.5zM470 1145.5q103 -58.5 140 -58.5q110 0 110 103h97q0 -119 -61 -184t-149 -65q-87 0 -253 88
q-54 29 -83 29q-110 0 -110 -103h-97q0 119 61 184t151.5 65t193.5 -58.5z" />
    <glyph glyph-name="notequal" unicode="&#x2260;" 
d="M258 0l553 1506h183l-549 -1506h-187zM224 467v148h802v-148h-802zM224 805v148h802v-148h-802z" />
    <glyph glyph-name="lessequal" unicode="&#x2264;" 
d="M1042 0l-886 471v201l886 472v-203l-731 -368l731 -364v-209zM142 -252v150h901v-150h-901z" />
    <glyph glyph-name="greaterequal" unicode="&#x2265;" 
d="M208 0v203l731 368l-731 364v209l886 -471v-201zM172 -242v150h901v-150h-901z" />
    <glyph glyph-name="lozenge" unicode="&#x25ca;" horiz-adv-x="1104" 
d="M480 0l-364 725l364 721h170l338 -721l-338 -725h-170zM567 160l247 565l-247 551l-272 -551z" />
    <glyph glyph-name="uniFB00" unicode="&#xfb00;" horiz-adv-x="1542" 
d="M1039 0v918h-564v-918h-188v918h-177v142h177v161q0 147 80.5 215.5t245.5 68.5h119l12 -133h-116q-153 0 -153 -133v-179h564v161q0 147 80.5 215.5t245.5 68.5h119l12 -133h-116q-153 0 -153 -133v-179h257v-142h-257v-918h-188z" />
    <glyph glyph-name="uniFB03" unicode="&#xfb03;" horiz-adv-x="2176" 
d="M1786 1251v195h188v-195h-188zM1077 0v918h-602v-918h-188v918h-177v142h177v161q0 147 80.5 215.5t245.5 68.5h119l12 -133h-116q-153 0 -153 -133v-179h602v161q0 147 80.5 215.5t245.5 68.5h119l12 -133h-116q-153 0 -153 -133v-179h709v-1060h-188v918h-521v-918
h-188z" />
    <glyph glyph-name="uniFB04" unicode="&#xfb04;" horiz-adv-x="2225" 
d="M2059 -8q-93 0 -152 14t-104 53q-84 73 -84 299v1014h-352q-153 0 -153 -133v-179h257v-142h-257v-918h-188v918h-551v-918h-188v918h-177v142h177v161q0 147 80.5 215.5t245.5 68.5h119l12 -133h-116q-153 0 -153 -133v-179h551v161q0 147 80.5 215.5t245.5 68.5h555
v-1149q0 -128 38 -167t157 -39h33l-22 -158h-54z" />
    </font>
</defs>
</svg>
