<?xml version="1.0" standalone="no"?>
<!DOCTYPE svg PUBLIC "-//W3C//DTD SVG 1.1//EN" "http://www.w3.org/Graphics/SVG/1.1/DTD/svg11.dtd" >
<svg>
<metadata>
Created by FontForge 20090622 at Wed Jul 10 04:48:06 2013
 By ffonts
Copyright (c) 2012, vernon adams (vern@newtypography.co.uk), with Reserved Font Names 'Monda'
</metadata>
<defs>
<font id="Monda-Bold" horiz-adv-x="1024" >
  <font-face 
    font-family="Monda"
    font-weight="700"
    font-stretch="normal"
    units-per-em="2048"
    panose-1="2 0 8 3 0 0 0 0 0 0"
    ascent="1638"
    descent="-410"
    x-height="1074"
    cap-height="1476"
    bbox="-247 -875 2670 2461"
    underline-thickness="0"
    underline-position="0"
    unicode-range="U+0020-U+FB04"
  />
<missing-glyph horiz-adv-x="748" 
d="M68 0v1365h544v-1365h-544zM136 68h408v1229h-408v-1229z" />
    <glyph glyph-name="uniFB00" unicode="ff" horiz-adv-x="1570" 
d="M1022 0v901h-521v-901h-273v901h-142v173h142v51q0 195 87.5 293t275.5 98h126l13 -189h-90q-82 0 -110.5 -32.5t-28.5 -94.5v-126h521v51q0 195 87.5 293t275.5 98h126l13 -189h-90q-82 0 -110.5 -32.5t-28.5 -94.5v-126h214v-173h-214v-901h-273z" />
    <glyph glyph-name="uniFB01" unicode="fi" horiz-adv-x="1366" 
d="M934 1227v241h272v-241h-272zM228 0v901h-142v173h142v51q0 195 87.5 293t275.5 98h126l13 -189h-90q-82 0 -110.5 -32.5t-28.5 -94.5v-126h705v-1074h-272v901h-433v-901h-273z" />
    <glyph glyph-name="uniFB02" unicode="fl" horiz-adv-x="1468" 
d="M1287 -12q-183 0 -267 83.5t-84 281.5v974h-296q-82 0 -110.5 -32.5t-28.5 -94.5v-126h214v-173h-214v-901h-273v901h-142v173h142v51q0 195 87.5 293t275.5 98l617 -1v-1158q0 -92 37 -129.5t143 -37.5h34l-21 -202h-114z" />
    <glyph glyph-name="uniFB03" unicode="ffi" horiz-adv-x="2192" 
d="M1754 1227v241h272v-241h-272zM1048 0v901h-521v-901h-273v901h-142v173h142v51q0 195 87.5 293t275.5 98h126l13 -189h-90q-82 0 -110.5 -32.5t-28.5 -94.5v-126h521v51q0 195 87.5 293t275.5 98h126l13 -189h-90q-82 0 -110.5 -32.5t-28.5 -94.5v-126h705v-1074h-272
v901h-433v-901h-273z" />
    <glyph glyph-name="uniFB04" unicode="ffl" horiz-adv-x="2234" 
d="M2053 -12q-183 0 -267 83.5t-84 281.5v974h-296q-82 0 -110.5 -32.5t-28.5 -94.5v-126h214v-173h-214v-901h-273v901h-493v-901h-273v901h-142v173h142v51q0 195 87.5 293t275.5 98h126l13 -189h-90q-82 0 -110.5 -32.5t-28.5 -94.5v-126h493v51q0 195 87.5 293t275.5 98
l617 -1v-1158q0 -92 37 -129.5t143 -37.5h34l-21 -202h-114z" />
    <glyph glyph-name=".notdef" horiz-adv-x="748" 
d="M68 0v1365h544v-1365h-544zM136 68h408v1229h-408v-1229z" />
    <glyph glyph-name="glyph1" horiz-adv-x="0" 
 />
    <glyph glyph-name="glyph2" horiz-adv-x="682" 
 />
    <glyph glyph-name="space" unicode=" " horiz-adv-x="516" 
 />
    <glyph glyph-name="exclam" unicode="!" horiz-adv-x="648" 
d="M280 410q-83 949 -83 1067h259q0 -107 -100 -1067h-76zM192 0v245h250v-245h-250z" />
    <glyph glyph-name="quotedbl" unicode="&#x22;" 
d="M630 872l-58 644h254l-77 -644h-119zM277 872l-79 644h253l-55 -644h-119z" />
    <glyph glyph-name="numbersign" unicode="#" horiz-adv-x="1430" 
d="M536 618h257l50 278h-259zM223 0l86 478h-205v140h230l50 278h-256v140h280l79 441h198l-76 -441h259l79 441h198l-76 -441h199v-140h-224l-48 -278h248v-140h-273l-82 -478h-206l86 478h-257l-83 -478h-206z" />
    <glyph glyph-name="dollar" unicode="$" horiz-adv-x="1281" 
d="M601 1264q-167 -19 -173 -143v-16q0 -71 34 -112.5t139 -74.5v346zM711 1500q253 -11 432 -114l-84 -209q-172 82 -348 90v-382l159 -48q152 -46 225.5 -145t73.5 -278.5t-111.5 -306.5t-346.5 -133v-216h-110v219q-280 19 -481 131l102 217q180 -95 379 -114v423
l-159 47q-116 34 -186 97.5t-95 139t-25 173.5q0 194 130.5 296.5t334.5 112.5v138h110v-138zM711 208q186 11 186 180q0 78 -19 111q-39 63 -167 103v-394z" />
    <glyph glyph-name="percent" unicode="%" horiz-adv-x="2114" 
d="M694 0l543 1446h173l-538 -1446h-178zM1614 -19q-164 0 -232.5 98t-68.5 281v53q0 185 67.5 278t233 93t234 -92.5t70.5 -277.5v-54q0 -183 -70 -281t-234 -98zM1614 111q104 1 128 95q14 52 13 140v87q0 143 -34 182t-90 39q-125 0 -146 -83q-12 -51 -12 -136v-89
q0 -146 35 -190.5t106 -44.5zM196 1043v53q0 185 67.5 278t232.5 93t234 -92.5t71 -277.5v-54q0 -183 -70.5 -281t-237 -98t-232 101t-65.5 278zM560 806q49 22 63.5 78t14.5 145v87q0 142 -34 181.5t-90 39.5q-125 0 -146 -83q-12 -51 -12 -136v-89q0 -146 35 -190.5
t89 -44.5t80 12z" />
    <glyph glyph-name="ampersand" unicode="&#x26;" horiz-adv-x="1526" 
d="M897.5 208q69.5 13 95.5 71l-434 425q-129 -36 -136 -144q-3 -49 -3 -112q0 -137 62.5 -195t204 -58t211 13zM1023 4.5q-105 -31.5 -308.5 -31.5t-330.5 49.5t-181.5 153.5t-54.5 268.5t68 250.5t216 130q-89 82 -132 157.5t-43 182.5q0 176 114 258.5t380 82.5
t376.5 -69t110.5 -244v-83h-238v42q0 90 -32.5 115.5t-81.5 31.5t-125 6q-150 0 -195 -40.5t-45 -105.5t20.5 -97t96.5 -111l457 -451q1 14 1 31v291h235v-273q0 -156 -26 -240l169 -159l-160 -173l-128 126q-58 -67 -163 -98.5z" />
    <glyph glyph-name="quotesingle" unicode="'" horiz-adv-x="769" 
d="M337 872l-79 644h253l-55 -644h-119z" />
    <glyph glyph-name="parenleft" unicode="(" horiz-adv-x="946" 
d="M782 -159q-478 0 -556 383q-18 87 -18 196v566q0 439 300 548q113 41 274 41v-216q-108 0 -170 -28q-126 -57 -125 -311v-630q1 -252 125 -307q62 -27 170 -27v-215z" />
    <glyph glyph-name="parenright" unicode=")" horiz-adv-x="946" 
d="M181 -159v216q107 0 169 28q126 57 126 310v630q0 252 -124 307q-62 27 -171 27v216q321 0 447 -152.5t126 -426.5v-566q0 -440 -299 -548q-113 -41 -274 -41z" />
    <glyph glyph-name="asterisk" unicode="*" horiz-adv-x="998" 
d="M410 599l29 325l-273 -174l-80 161l290 117l-280 142l95 153l247 -190l-28 313h178l-30 -325l273 174l81 -161l-291 -117l280 -142l-95 -153l-247 190l29 -313h-178z" />
    <glyph glyph-name="plus" unicode="+" horiz-adv-x="966" 
d="M401 156v331h-269v162h269v319h164v-319h269v-162h-269v-331h-164z" />
    <glyph glyph-name="comma" unicode="," horiz-adv-x="768" 
d="M349 -389l-107 46q51 58 98.5 154.5t47.5 188.5h-165v276h322v-223q0 -133 -66 -258.5t-130 -183.5z" />
    <glyph glyph-name="hyphen" unicode="-" horiz-adv-x="968" 
d="M132 494v148h704v-148h-704z" />
    <glyph glyph-name="period" unicode="." horiz-adv-x="768" 
d="M235 0v284h298v-284h-298z" />
    <glyph glyph-name="slash" unicode="/" 
d="M106 0l569 1516h243l-569 -1516h-243z" />
    <glyph glyph-name="zero" unicode="0" horiz-adv-x="1420" 
d="M704 -27q-130 0 -242 44t-178 119q-134 151 -134 362v473q0 274 192 423q141 109 377 109q332 0 472 -230q79 -130 79 -306v-465q0 -168 -82 -300q-142 -228 -484 -229zM719 198q169 0 231 136q32 68 32 159v486q0 113 -49 197q-59 102 -224 102t-227 -138
q-32 -69 -32 -161v-486q0 -146 74.5 -220.5t194.5 -74.5z" />
    <glyph glyph-name="one" unicode="1" horiz-adv-x="1420" 
d="M203 0v209h432v1032l-410 -54l-26 217l528 72h205v-1267h379v-209h-1108z" />
    <glyph glyph-name="two" unicode="2" horiz-adv-x="1420" 
d="M955 1069q0 210 -228 210q-143 0 -201.5 -63.5t-58.5 -223.5h-305q0 267 128 389t424 122q396 0 499 -265q30 -77 30 -171q0 -154 -72 -269t-235 -254l-370 -317h652v-227h-973l-36 226l547 493q116 104 157.5 177t41.5 173z" />
    <glyph glyph-name="three" unicode="3" horiz-adv-x="1420" 
d="M715 198q263 0 263 228q0 108 -27.5 157.5t-96.5 72t-200 22.5v199q242 0 288 74q28 46 28 139.5t-57 141t-201 47.5t-200.5 -53.5t-55.5 -192.5h-268q2 260 140 365t382.5 105t390.5 -106.5t146 -295.5q0 -152 -58 -224.5t-166 -96.5q237 -64 237 -354q0 -201 -128 -327
t-407 -126t-408 118.5t-135 344.5h268q2 -136 63.5 -187t201.5 -51z" />
    <glyph glyph-name="four" unicode="4" horiz-adv-x="1420" 
d="M839 0v282h-669v249l449 945h305l-430 -948h345v334h237v-334h220v-246h-220v-282h-237z" />
    <glyph glyph-name="five" unicode="5" horiz-adv-x="1420" 
d="M511 860q86 90 298.5 90t343 -138t130.5 -353t-151 -350.5t-406 -135.5q-157 0 -307 46t-224 100l79 199q204 -122 436 -122q282 0 283 269v1q0 107 -68.5 170.5t-173.5 63.5q-181 0 -290 -103l-214 107l81 772h842v-246h-618z" />
    <glyph glyph-name="six" unicode="6" horiz-adv-x="1420" 
d="M747 720q-249 0 -249 -263.5t253.5 -263.5t253.5 261q0 129 -60 197.5t-198 68.5zM637 904q88 26 156 26q244 0 364.5 -113t120.5 -369t-132 -365t-407.5 -109t-400 115t-124.5 366.5t135 509.5l290 512h320z" />
    <glyph glyph-name="seven" unicode="7" horiz-adv-x="1420" 
d="M360 0l544 1244h-674v232h998v-206l-554 -1270h-314z" />
    <glyph glyph-name="eight" unicode="8" horiz-adv-x="1420" 
d="M944 1126q0 170 -236.5 170t-236.5 -170q0 -79 53 -133t184 -117q126 63 181 119t55 131zM709 187q144 0 207 54t63 140.5t-66 156t-205 134.5q-139 -65 -205 -134.5t-66 -152.5q0 -198 272 -198zM924 783q332 -120 332 -415q0 -191 -142 -292.5t-402.5 -101.5
t-404 103.5t-143.5 288.5q0 280 313 417q-286 103 -286 358q0 158 124.5 260t393.5 102q385 1 482 -223q28 -64 28 -162.5t-73.5 -193t-221.5 -141.5z" />
    <glyph glyph-name="nine" unicode="9" horiz-adv-x="1420" 
d="M520.5 844q55.5 -55 193 -55t188 56.5t50.5 200t-49.5 193.5t-188 50t-194 -52.5t-55.5 -195t55.5 -197.5zM821 589q-62 -20 -168 -20q-224 0 -348.5 106t-124.5 362.5t131 361t408.5 104.5t401 -110.5t123.5 -358.5t-135 -506l-290 -528h-320z" />
    <glyph glyph-name="colon" unicode=":" horiz-adv-x="769" 
d="M241 197v284h298v-284h-298zM241 854v284h298v-284h-298z" />
    <glyph glyph-name="semicolon" unicode=";" horiz-adv-x="769" 
d="M363 -191l-107 46q51 58 98.5 154.5t47.5 188.5h-165v276h322v-223q0 -133 -66 -258.5t-130 -183.5zM241 854v284h298v-284h-298z" />
    <glyph glyph-name="less" unicode="&#x3c;" 
d="M856 31l-744 414v219l744 417v-231l-563 -294l563 -294v-231z" />
    <glyph glyph-name="equal" unicode="=" horiz-adv-x="880" 
d="M112 740v173h656v-173h-656zM112 371v173h656v-173h-656z" />
    <glyph glyph-name="greater" unicode="&#x3e;" 
d="M152 31v229l563 296l-563 292v233l744 -416v-219z" />
    <glyph glyph-name="question" unicode="?" horiz-adv-x="1244" 
d="M429 0v245h249v-245h-249zM445 431l248 309q133 167 133 279.5t-16 153t-38 60.5q-49 46 -151.5 46t-136.5 -22.5t-48 -40.5q-32 -40 -32 -169v-85h-274v74q0 206 54.5 295t157.5 129.5t235 40.5q133 -1 205 -13q139 -24 212.5 -87.5t98.5 -146.5t25 -210t-61 -236.5
t-201 -225.5l-182 -151h-229z" />
    <glyph glyph-name="at" unicode="@" horiz-adv-x="2048" 
d="M1209 666q-133 -36 -180 -87t-47 -140t57.5 -130.5t149 -41.5t194 36t109.5 74v367q-3 -2 -123 -35t-160 -43zM1084 -477q-844 0 -844 825v422q0 377 183.5 565t596.5 188t576 -151.5t163 -508.5l2 -469q0 -79 19 -107t88 -28l-20 -200h-106q-124 1 -176 63
q-25 31 -50 86q-48 -67 -155 -111t-225 -44q-174 0 -290.5 100t-116.5 275q0 103 32.5 159.5t76.5 90.5q99 77 303 131l350 86q0 208 -49.5 285t-138.5 108.5t-209 31.5t-184 -6q-151 -13 -240 -69.5t-132 -176t-43 -327.5v-378q-1 -405 249 -541q142 -78 341.5 -78
t343.5 28t206 41l72 15l58 -203q-389 -102 -681 -102z" />
    <glyph glyph-name="A" unicode="A" horiz-adv-x="1512" 
d="M525 479h462l-227 776zM70 0l486 1476h394l492 -1476h-315l-83 281h-578l-86 -281h-310z" />
    <glyph glyph-name="B" unicode="B" horiz-adv-x="1456" 
d="M487 882h307q142 0 169 75q15 42 15 125.5t-18.5 121.5t-67.5 53.5t-153 15.5h-252v-391zM487 208h288q90 0 140.5 9t82 38t41 74t9.5 110.5t-4 98.5q-10 84 -63 124.5t-176 40.5h-318v-495zM190 0v1476h568q304 0 416 -95q58 -50 82.5 -119t24.5 -182t-40 -180.5
t-149 -95.5q148 -20 200 -112t52 -244v-18q0 -218 -120 -324t-394 -106h-640z" />
    <glyph glyph-name="C" unicode="C" horiz-adv-x="1490" 
d="M514 0q-112 26 -179.5 69t-107.5 110.5t-53.5 138.5t-13.5 166v493q0 264 107 370q107 107 284 137q100 18 226 17q457 0 545 -250q40 -112 40 -268v-18l-291 -34v75q0 154 -60.5 208t-231.5 54t-246.5 -54.5t-75.5 -201.5v-558q0 -148 77.5 -197.5t246.5 -49.5
q89 0 141 9.5t87.5 38.5t48.5 77t13 128v47h291v-27q0 -219 -64.5 -316.5t-185.5 -143.5t-303.5 -46t-294.5 26z" />
    <glyph glyph-name="D" unicode="D" horiz-adv-x="1534" 
d="M190 0v1476h640q354 0 476 -210q68 -118 68 -305v-453q0 -374 -284 -471q-108 -37 -259 -37h-641zM487 231h318q152 0 212 56t60 183v530q0 125 -61.5 185t-210.5 60h-318v-1014z" />
    <glyph glyph-name="E" unicode="E" horiz-adv-x="1294" 
d="M190 0v1476h967v-224h-671v-392h595v-214h-595v-422h682v-224h-978z" />
    <glyph glyph-name="F" unicode="F" horiz-adv-x="1173" 
d="M190 0v1476h893v-227h-596v-402h555v-213h-555v-634h-297z" />
    <glyph glyph-name="G" unicode="G" horiz-adv-x="1607" 
d="M975.5 -9.5q-72.5 -16.5 -194.5 -16.5q-121 0 -237 26q-217 48 -300.5 172.5t-83.5 311.5v493q0 305 194 426q157 98 459 98q485 -1 575 -273q30 -92 30 -221v-23l-292 -22v59q0 144 -70 195.5t-245.5 51.5t-264 -56t-88.5 -200v-558q0 -147 91 -197t264 -50t255.5 50
t82.5 197v108h-298v195h566v-757h-157l-47 170q-13 -44 -49.5 -81.5t-77 -59.5t-113 -38.5z" />
    <glyph glyph-name="H" unicode="H" horiz-adv-x="1624" 
d="M190 0v1476h298v-628h648v628h298v-1476h-298v615h-648v-615h-298z" />
    <glyph glyph-name="I" unicode="I" horiz-adv-x="1148" 
d="M158 0v222h269v1033h-269v221h832v-221h-267v-1033h267v-222h-832z" />
    <glyph glyph-name="J" unicode="J" horiz-adv-x="1222" 
d="M895 92.5q-141 -117.5 -385 -117.5t-440 92l69 220q73 -34 170.5 -56t175.5 -22q132 0 193 64t61 168v809h-508v226h805v-1054q0 -212 -141 -329.5z" />
    <glyph glyph-name="K" unicode="K" horiz-adv-x="1448" 
d="M190 0v1476h297v-716l574 716h328l-517 -672l554 -804h-335l-465 679l-139 -138v-541h-297z" />
    <glyph glyph-name="L" unicode="L" horiz-adv-x="1172" 
d="M190 0v1476h297v-1244h617v-232h-914z" />
    <glyph glyph-name="M" unicode="M" horiz-adv-x="1874" 
d="M190 0v1476h327l420 -715l414 715h333v-1476h-278v1091l-369 -662h-199l-370 658v-1087h-278z" />
    <glyph glyph-name="N" unicode="N" horiz-adv-x="1634" 
d="M190 0v1476h223l767 -1012v1012h264v-1476h-223l-764 996v-996h-267z" />
    <glyph glyph-name="O" unicode="O" horiz-adv-x="1606" 
d="M810 -26q-434 0 -572 216q-78 120 -78 311v462q0 311 193 435q159 102 461 103q421 0 556 -230q76 -129 76 -323v-431q0 -302 -190 -436q-152 -107 -446 -107zM547 265q89 -58 265.5 -58t256 57.5t79.5 203.5v535q0 144 -81 204.5t-254.5 60.5t-264 -60t-90.5 -205v-535
q0 -145 89 -203z" />
    <glyph glyph-name="P" unicode="P" horiz-adv-x="1336" 
d="M487 726h300q108 0 146.5 61.5t38.5 202.5q0 202 -89 254q-35 20 -86 21h-310v-539zM190 0v1476h579q247 0 364 -112t117 -365t-112.5 -371.5t-397.5 -118.5h-253v-509h-297z" />
    <glyph glyph-name="Q" unicode="Q" horiz-adv-x="1606" 
d="M547 264q89 -58 265.5 -58t256 57.5t79.5 203.5v535q0 144 -81 204.5t-254.5 60.5t-264 -60t-90.5 -205v-535q0 -145 89 -203zM1010 -534l-322 512q-447 36 -514 368q-14 69 -14 154v462q0 312 193 436q159 102 461 102q421 0 556 -230q76 -129 76 -323v-431
q0 -270 -150 -404q-119 -106 -342 -131l245 -407z" />
    <glyph glyph-name="R" unicode="R" horiz-adv-x="1484" 
d="M487 795h365q105 0 144.5 59.5t39.5 180.5q0 230 -172 230h-377v-470zM190 0v1476h637q286 0 389.5 -116t103.5 -314.5t-57.5 -289t-159.5 -130.5l285 -626h-308l-259 583h-334v-583h-297z" />
    <glyph glyph-name="S" unicode="S" horiz-adv-x="1281" 
d="M674 -26q-137 0 -290 36t-264 98l102 217q222 -118 459 -118q119 0 168 49t49 147q0 19 -4 57q-9 90 -200 147l-252 74q-116 34 -186 97.5t-95 139t-25 176.5q0 203 144.5 305t368.5 102q296 0 494 -115l-84 -209q-193 91 -384 91q-240 0 -247 -147v-15q0 -75 37.5 -117
t153.5 -77l251 -75q152 -46 225.5 -145t73.5 -281.5t-116.5 -309.5t-378.5 -127z" />
    <glyph glyph-name="T" unicode="T" horiz-adv-x="1194" 
d="M449 0v1250h-411v226h1118v-226h-411v-1250h-296z" />
    <glyph glyph-name="U" unicode="U" horiz-adv-x="1574" 
d="M794 -26q-416 0 -545 198q-73 112 -73 296v1009h297v-1022q0 -139 79.5 -193.5t242.5 -54.5t234.5 54t71.5 194v1022h297v-997q0 -294 -174 -410q-146 -96 -430 -96z" />
    <glyph glyph-name="V" unicode="V" horiz-adv-x="1484" 
d="M564 0l-524 1476h318l390 -1193l378 1193h318l-520 -1476h-360z" />
    <glyph glyph-name="W" unicode="W" horiz-adv-x="1954" 
d="M423 0l-383 1476h288l255 -1021l259 1021h251l296 -1010l240 1010h285l-382 -1476h-249l-310 1053l-284 -1053h-266z" />
    <glyph glyph-name="X" unicode="X" horiz-adv-x="1352" 
d="M38 0l475 748l-463 728h309l310 -479l300 479h328l-467 -727l484 -749h-327l-318 501l-321 -501h-310z" />
    <glyph glyph-name="Y" unicode="Y" horiz-adv-x="1304" 
d="M509 0v567l-509 909h313l346 -617l345 617h300l-499 -909v-567h-296z" />
    <glyph glyph-name="Z" unicode="Z" horiz-adv-x="1184" 
d="M126 0v177l620 1081h-592v218h936v-179l-618 -1087h630v-210h-976z" />
    <glyph glyph-name="bracketleft" unicode="[" horiz-adv-x="842" 
d="M212 -89v1681h482v-161h-209v-1359h209v-161h-482z" />
    <glyph glyph-name="backslash" unicode="\" 
d="M675 0l-569 1516h243l569 -1516h-243z" />
    <glyph glyph-name="bracketright" unicode="]" horiz-adv-x="842" 
d="M146 -89v161h210v1359h-210v161h482v-1681h-482z" />
    <glyph glyph-name="asciicircum" unicode="^" horiz-adv-x="1257" 
d="M80 511l406 772h259l408 -772h-227l-304 601l-305 -601h-237z" />
    <glyph glyph-name="underscore" unicode="_" horiz-adv-x="904" 
d="M8 -32v175h883v-175h-883z" />
    <glyph glyph-name="grave" unicode="`" horiz-adv-x="556" 
d="M316 1157l-237 365h267l121 -365h-151z" />
    <glyph glyph-name="a" unicode="a" horiz-adv-x="1174" 
d="M383 294q0 -129 140 -129q55 0 116 29t96 82v268q-48 -39 -169 -83.5t-152 -82t-31 -84.5zM622.5 17.5q-87.5 -40.5 -212.5 -40.5t-211.5 81t-86.5 207t78.5 202t300.5 146q135 43 189.5 77t54.5 94q0 124 -169 123q-95 0 -131 -36.5t-36 -105.5v-42h-255v32
q0 161 107 251.5t329 90.5t322.5 -94t100.5 -270v-425q0 -72 18 -95t69 -23l-11 -198h-57q-111 0 -173 30.5t-92 96.5q-47 -61 -134.5 -101.5z" />
    <glyph glyph-name="b" unicode="b" horiz-adv-x="1206" 
d="M810 758q0 149 -184 149q-90 0 -194 -50v-641q62 -48 166 -48q212 0 212 155v435zM965.5 74q-116.5 -97 -288 -97t-303.5 88l-27 -65h-187v1516h272v-476q108 57 218 57q271 0 370 -140q62 -88 62 -204v-424q0 -158 -116.5 -255z" />
    <glyph glyph-name="c" unicode="c" horiz-adv-x="1107" 
d="M584 -23q-312 0 -403 140q-57 86 -57 210v430q0 161 117 250.5t333 89.5t325.5 -85.5t109.5 -312.5l-256 -20q0 145 -35 187q-21 26 -52 34q-30 7 -104 7q-166 0 -166 -151v-434q0 -84 43.5 -119t129 -35t120.5 15.5t50 59t15 137.5h254q-2 -118 -22 -192
q-20 -72 -70 -122q-90 -88 -332 -89z" />
    <glyph glyph-name="d" unicode="d" horiz-adv-x="1198" 
d="M443 204q47 -36 151 -36t176 43v659q-78 37 -176 37t-148 -34.5t-50 -113.5v-439q0 -80 47 -116zM551 -23q-214 0 -320.5 90.5t-106.5 256.5v429q0 157 110.5 250.5t335.5 93.5q96 0 200 -38v457h272v-1516h-184l-29 63q-123 -86 -278 -86z" />
    <glyph glyph-name="e" unicode="e" horiz-adv-x="1149" 
d="M396 651h386v126q0 97 -78 119q-41 12 -124.5 11.5t-133.5 -28.5t-50 -107v-121zM402 -5q-80 17 -144 57q-134 82 -134 284v419q0 162 123 252t335 90q457 0 457 -352v-260h-643v-175q0 -89 44 -116.5t149 -27.5t124 10q45 25 58 60.5t15 93.5h252q-6 -248 -175 -314
q-99 -38 -240 -38.5t-221 17.5z" />
    <glyph glyph-name="f" unicode="f" horiz-adv-x="770" 
d="M229 0v901h-143v173h143v51q0 195 87 293t275 98h126l7 -189h-84q-81 0 -110 -38.5t-29 -102.5v-112h214v-173h-214v-901h-272z" />
    <glyph glyph-name="g" unicode="g" horiz-adv-x="1211" 
d="M588 213q133 0 199 48v571q0 24 -57 50q-58 25 -148 25q-186 0 -186 -150v-401q0 -143 192 -143zM574 -441q-237 0 -355 56l56 185q151 -42 278.5 -42t180.5 50.5t53 161.5v118q-94 -56 -266.5 -56t-284.5 88.5t-112 245.5v385q0 145 94.5 245.5t314.5 100.5
q85 0 166.5 -28.5t134.5 -71.5l23 78h202v-1087q0 -429 -485 -429z" />
    <glyph glyph-name="h" unicode="h" horiz-adv-x="1254" 
d="M162 0v1515h272v-545q34 56 129 91.5t227.5 35.5t222 -82.5t89.5 -219.5v-795h-272v756q0 138 -183 138q-82 0 -147.5 -41.5t-65.5 -114.5v-738h-272z" />
    <glyph glyph-name="i" unicode="i" horiz-adv-x="598" 
d="M166 1227v241h272v-241h-272zM166 0v1074h272v-1074h-272z" />
    <glyph glyph-name="j" unicode="j" horiz-adv-x="638" 
d="M204 1227v241h272v-241h-272zM3 -362l-13 194h44q172 0 172 178v1064h272v-1077q0 -168 -91 -263.5t-283 -95.5h-101z" />
    <glyph glyph-name="k" unicode="k" horiz-adv-x="1199" 
d="M162 0v1516h272v-914l425 472h310l-404 -463l422 -611h-297l-336 497l-120 -123v-374h-272z" />
    <glyph glyph-name="l" unicode="l" horiz-adv-x="708" 
d="M527 -12q-185 0 -274 84t-89 281v1162h272v-1158q0 -90 42 -128.5t150 -38.5h34l-21 -202h-114z" />
    <glyph glyph-name="m" unicode="m" horiz-adv-x="1894" 
d="M160 0v1074h272v-96q56 58 145.5 88.5t171.5 30.5q215 0 295 -133q133 133 357 133q154 0 247.5 -83.5t93.5 -219.5v-794h-272v762q0 78 -40.5 106.5t-117 28.5t-147 -40t-76.5 -107v-750h-272v762q0 78 -43 106.5t-121.5 28.5t-149.5 -42.5t-71 -115.5v-739h-272z" />
    <glyph glyph-name="n" unicode="n" horiz-adv-x="1254" 
d="M830 755q0 139 -189 139q-81 0 -145 -42.5t-64 -116.5v-735h-272v1074h272v-95q137 120 320 120t266.5 -94t83.5 -235v-770h-272v755z" />
    <glyph glyph-name="o" unicode="o" horiz-adv-x="1180" 
d="M590 -23q-466 0 -466 348v423q0 165 122.5 257t343 92t343.5 -92.5t123 -256.5v-423q0 -259 -246 -324q-92 -24 -220 -24zM590 166q194 0 194 147v447q0 79 -49 113t-145 34q-194 0 -194 -147v-447q0 -79 48.5 -113t145.5 -34z" />
    <glyph glyph-name="p" unicode="p" horiz-adv-x="1202" 
d="M614 166q192 0 192 154v435q0 152 -183 152q-61 0 -113 -20t-78 -46v-628q88 -47 182 -47zM160 -410v1484h190l27 -70q127 93 305.5 93t287 -94.5t108.5 -251.5v-425q0 -144 -110 -246.5t-331 -102.5q-115 0 -205 40v-427h-272z" />
    <glyph glyph-name="q" unicode="q" horiz-adv-x="1194" 
d="M396 308q0 -142 170 -142q122 0 182 37q20 12 22 17v619q-44 68 -182 68q-192 0 -192 -151v-448zM770 -410v443q-98 -56 -220 -56q-233 0 -329.5 98.5t-96.5 241.5v433q0 159 112.5 253t306.5 94q81 0 155 -26t122 -66l19 69h203v-1484h-272z" />
    <glyph glyph-name="r" unicode="r" horiz-adv-x="831" 
d="M160 0v1074h272v-128q24 46 100 82q131 63 253 63q14 0 26 -1l-6 -231q-179 -9 -297 -67q-66 -32 -76 -72v-720h-272z" />
    <glyph glyph-name="s" unicode="s" horiz-adv-x="994" 
d="M527 -23q-254 0 -419 84l55 185q188 -80 354 -80q127 0 144 113q2 14 2 26q0 81 -91 110l-236 74q-121 38 -171.5 114t-50.5 185v8q2 301 412 301q202 0 362 -91l-64 -169q-51 27 -138.5 48.5t-164.5 21.5t-112 -27.5t-35 -94t74 -89.5l222 -70q133 -42 187.5 -118
t54.5 -212t-100 -227.5t-285 -91.5z" />
    <glyph glyph-name="t" unicode="t" horiz-adv-x="813" 
d="M664 -12q-245 0 -351 74t-106 279v560h-143v173h151l25 345h239v-345h255v-173h-255v-541q0 -100 47.5 -135t182.5 -35h32l-10 -202h-67z" />
    <glyph glyph-name="u" unicode="u" horiz-adv-x="1247" 
d="M827 118q-32 -66 -124 -103.5t-204 -37.5q-161 0 -254 89t-93 225v783h272v-739q0 -77 54.5 -115t133.5 -38t143 42.5t64 125.5v724h272v-1074h-256z" />
    <glyph glyph-name="v" unicode="v" horiz-adv-x="1103" 
d="M416 0l-382 1074h271l256 -808l251 808h257l-364 -1074h-289z" />
    <glyph glyph-name="w" unicode="w" horiz-adv-x="1648" 
d="M343 0l-297 1074h254l192 -770l225 770h221l232 -779l179 779h253l-286 -1074h-266l-220 741l-229 -741h-258z" />
    <glyph glyph-name="x" unicode="x" horiz-adv-x="1082" 
d="M36 0l370 540l-369 534h284l223 -336l223 336h277l-360 -538l362 -536h-271l-226 338l-224 -338h-289z" />
    <glyph glyph-name="y" unicode="y" horiz-adv-x="1083" 
d="M148 -485l-20 225q143 28 208.5 109.5t100.5 186.5l-404 1038h262l279 -721l223 721h270l-326 -934q-84 -241 -153 -346.5t-128 -153.5q-126 -102 -312 -125z" />
    <glyph glyph-name="z" unicode="z" horiz-adv-x="906" 
d="M104 0v167l422 721h-412v186h704v-164l-419 -720h414v-190h-709z" />
    <glyph glyph-name="braceleft" unicode="{" horiz-adv-x="992" 
d="M846 -128q-142 0 -231.5 22.5t-142.5 78.5t-73 137.5t-20 211.5v87q0 120 -40.5 153t-150.5 33v238q112 0 151.5 41t39.5 162v103q0 147 18 207t35 90t61 62q79 58 353 58v-130v-44q-67 0 -103.5 -6.5t-56 -28.5t-24 -50.5t-4.5 -86.5v-130q0 -307 -160 -358
q87 -31 124 -115.5t37 -237.5v-117q0 -64 5 -97t23.5 -61t56 -38t102.5 -10v-174z" />
    <glyph glyph-name="bar" unicode="|" horiz-adv-x="768" 
d="M262 -126v1734h244v-1734h-244z" />
    <glyph glyph-name="braceright" unicode="}" horiz-adv-x="991" 
d="M363 360q0 307 160 358q-87 31 -124 115t-37 238v116q0 149 -45.5 177.5t-141.5 28.5v174q142 0 231.5 -22.5t142.5 -78t73 -137t20 -211.5v-88q0 -118 41 -154q24 -20 57 -26t92 -6v-238q-111 0 -150.5 -41t-39.5 -161v-104q0 -147 -18 -207t-35 -90t-61 -62
q-79 -58 -353 -58q0 87 -0.5 130.5t0.5 43.5q67 0 103.5 6.5t56 28.5t24 50.5t4.5 86.5v131z" />
    <glyph glyph-name="asciitilde" unicode="~" 
d="M332 1466q52 0 111 -26t101 -58q112 -84 166 -84t84.5 45.5t30.5 106.5h109q0 -139 -70 -229t-170.5 -90t-215 84.5t-167 84.5t-83 -46t-30.5 -107h-108q0 140 69.5 229.5t172.5 89.5z" />
    <glyph glyph-name="uni00A0" unicode="&#xa0;" horiz-adv-x="516" 
 />
    <glyph glyph-name="exclamdown" unicode="&#xa1;" horiz-adv-x="648" 
d="M368 662q83 -949 83 -1067h-259q0 107 100 1067h76zM456 1072v-245h-250v245h250z" />
    <glyph glyph-name="cent" unicode="&#xa2;" horiz-adv-x="1107" 
d="M538 -22q-352 11 -404 244q-10 47 -10 105v430q0 155 108.5 243.5t305.5 95.5v195h93v-196q194 -10 286 -99.5t92 -296.5l-256 -20q-1 126 -25.5 172.5t-96.5 53.5v-735q73 7 98 49t25 161h254q-2 -111 -20 -182t-61 -121t-114 -72.5t-182 -26.5v-192h-93v192zM538 905
q-142 -14 -142 -149v-434q0 -74 34.5 -109.5t107.5 -42.5v735z" />
    <glyph glyph-name="sterling" unicode="&#xa3;" horiz-adv-x="1285" 
d="M206 0l50 621h-122v191h137l20 249q13 222 126.5 338t353.5 116q101 0 198.5 -29t160.5 -71l-71 -201q-151 67 -262 67t-157 -61.5t-54 -175.5l-19 -232h476v-191h-493l-34 -395h608v-226h-918z" />
    <glyph glyph-name="currency" unicode="&#xa4;" horiz-adv-x="1126" 
d="M417.5 584.5q49.5 -56.5 141.5 -56.5t140.5 56.5t48.5 138.5t-48.5 138.5t-140.5 56.5t-141.5 -56.5t-49.5 -138.5t49.5 -138.5zM811 485q-96 -104 -252 -104t-250 99l-135 -97l-48 84l128 92q-38 74 -38 163.5t40 169.5l-132 95l53 80l134 -99q94 96 249.5 96
t248.5 -100l143 103l47 -81l-137 -100q37 -74 37 -163.5t-35 -159.5l138 -98l-52 -81z" />
    <glyph glyph-name="yen" unicode="&#xa5;" horiz-adv-x="1304" 
d="M805 368h253v-160h-253v-208h-296v208h-251v160h251v128h-251v160h201l-459 820h313l346 -617l345 617h300l-450 -820h204v-160h-253v-128z" />
    <glyph glyph-name="brokenbar" unicode="&#xa6;" horiz-adv-x="769" 
d="M280 800v676h209v-676h-209zM280 -120v710h209v-710h-209z" />
    <glyph glyph-name="section" unicode="&#xa7;" horiz-adv-x="1085" 
d="M738 579q22 32 22 74.5t-17 79t-82 64.5l-301 144q-13 -9 -28 -37.5t-15 -62.5q0 -71 86 -108zM964 714q0 -110 -107 -209q84 -74 84 -209t-100 -226.5t-285 -91.5q-268 0 -432 134l94 169q163 -106 298 -106q41 -1 79 9q94 24 94 102q0 41 -22.5 69t-79.5 56l-261 126
q-93 45 -143.5 111.5t-50.5 136.5q0 131 110 214q-92 75 -92 212t101.5 211.5t252.5 74.5q262 0 420 -120l-84 -159q-157 90 -282 90q-154 0 -154 -102q0 -38 19.5 -59.5t63.5 -42.5l261 -123q125 -59 178 -144q38 -61 38 -123z" />
    <glyph glyph-name="dieresis" unicode="&#xa8;" horiz-adv-x="967" 
d="M624 1244v233h265v-233h-265zM115 1244v233h264v-233h-264z" />
    <glyph glyph-name="copyright" unicode="&#xa9;" horiz-adv-x="1776" 
d="M1178.5 42.5q-136.5 -56.5 -315.5 -56.5t-347.5 96t-266 265t-97.5 374.5t97.5 374t266 264.5t373 96t373.5 -96t265.5 -264.5t96.5 -348.5t-57 -316.5t-154.5 -234t-234 -154zM566.5 165.5q144.5 -83.5 324 -83.5t323.5 83.5t224 229.5t80 326.5t-80 326.5t-224 229.5
t-323.5 83.5t-324 -83.5t-225 -229.5t-80.5 -326t80.5 -326.5t225 -230zM618.5 368q-71.5 81 -71.5 222v278q0 236 175 292q72 22 174 22q203 0 265.5 -87.5t62.5 -233.5v-25l-116 -10v64q0 113 -47.5 157t-164 44t-173 -45.5t-56.5 -155.5v-319q0 -109 56 -152t174.5 -43
t164.5 41.5t46 153.5v61h116v-34q0 -117 -28 -171.5t-63 -80.5q-77 -58 -260 -58.5t-254.5 80.5z" />
    <glyph glyph-name="ordfeminine" unicode="&#xaa;" 
d="M344 802q0 -118 114 -118h1q47 0 97 21t77 65v232q-40 -39 -164.5 -76t-124.5 -124zM386 517l-2 1q-111 0 -180.5 69t-69.5 200q0 40 7.5 70.5t36.5 63.5q58 65 292 135q106 32 120 45t29 32t15 73.5t-30.5 82t-105 27.5t-103.5 -31.5t-29 -90.5v-36h-205v27
q0 138 86 215q85 78 265 78q342 0 342 -312v-354q0 -64 17 -87.5t69 -23.5l-18 -170h-85q-83 0 -120 30t-64 95q-41 -57 -110.5 -98t-156.5 -41z" />
    <glyph glyph-name="guillemotleft" unicode="&#xab;" 
d="M761 80l-280 450l273 450l145 -70l-205 -380l205 -380zM347 80l-280 450l273 450l147 -70l-207 -380l207 -380z" />
    <glyph glyph-name="logicalnot" unicode="&#xac;" 
d="M705 226v361h-576v170h724v-531h-148z" />
    <glyph glyph-name="uni00AD" unicode="&#xad;" horiz-adv-x="775" 
d="M131 400v191h525v-191h-525z" />
    <glyph glyph-name="registered" unicode="&#xae;" horiz-adv-x="1776" 
d="M1178.5 42.5q-136.5 -56.5 -315.5 -56.5t-347.5 96t-266 265t-97.5 374.5t97.5 374t266 264.5t373 96t373.5 -96t265.5 -264.5t96.5 -348.5t-57 -316.5t-154.5 -234t-234 -154zM566.5 165.5q144.5 -83.5 324 -83.5t323.5 83.5t224 229.5t80 326.5t-80 326.5t-224 229.5
t-323.5 83.5t-324 -83.5t-225 -229.5t-80.5 -326t80.5 -326.5t225 -230zM723 742h267q134 0 136 135v24q0 161 -127 161h-276v-320zM592 319v834h403q257 0 263 -245v-14q0 -187 -152 -228l184 -347h-128l-180 333h-259v-333h-131z" />
    <glyph glyph-name="macron" unicode="&#xaf;" horiz-adv-x="511" 
d="M-7 1251v157h525v-157h-525z" />
    <glyph glyph-name="degree" unicode="&#xb0;" horiz-adv-x="974" 
d="M128 1182q0 135 95.5 232t264.5 97t263.5 -97t94.5 -233.5t-94.5 -233.5t-266 -97t-264.5 98.5t-93 233.5zM339.5 1046.5q51.5 -54.5 148.5 -54.5t148.5 54.5t51.5 134t-51.5 134.5t-148.5 55t-148.5 -55t-51.5 -134.5t51.5 -134z" />
    <glyph glyph-name="plusminus" unicode="&#xb1;" 
d="M171 0v165h682v-165h-682zM429 326v265h-258v164h258v263h166v-263h258v-164h-258v-265h-166z" />
    <glyph glyph-name="uni00B3" unicode="&#xb3;" horiz-adv-x="834" 
d="M417 624q96 0 96 135q0 63 -36 90.5t-135 27.5v122q131 -1 154 51q11 24 11 71q0 120 -92 120q-103 0 -103 -144h-168q1 133 72.5 199.5t194 66.5t194 -63.5t71.5 -178.5q0 -141 -135 -183q141 -43 141 -189q0 -119 -72 -184t-199.5 -65t-198 67t-72.5 203h169
q3 -146 108 -146z" />
    <glyph glyph-name="acute" unicode="&#xb4;" horiz-adv-x="554" 
d="M106 1157l114 365h268l-233 -365h-149z" />
    <glyph glyph-name="uni00B5" unicode="&#xb5;" horiz-adv-x="1246" 
d="M719 22q-67 -41 -151 -41t-168 21v-238h-252v1310h272v-766q0 -76 53.5 -109t132 -33t144 40.5t65.5 110.5v757h273v-1074h-267l-6 135q-29 -72 -96 -113z" />
    <glyph glyph-name="paragraph" unicode="&#xb6;" horiz-adv-x="1222" 
d="M448 0v858q-153 1 -252.5 82.5t-99.5 232.5q-1 223 227 285q64 18 140 18h560v-1476h-172v1334h-231v-1334h-172z" />
    <glyph glyph-name="periodcentered" unicode="&#xb7;" horiz-adv-x="512" 
d="M132 780v245h248v-245h-248z" />
    <glyph glyph-name="cedilla" unicode="&#xb8;" horiz-adv-x="512" 
d="M215 -494q-50 0 -95 9v117q34 -7 78 -7t74 23.5t30 65.5t-38 77t-107 37v172h76l6 -101q105 -19 163 -78.5t58 -133.5t-64 -127.5t-181 -53.5z" />
    <glyph glyph-name="ordmasculine" unicode="&#xba;" 
d="M513 512q-377 0 -377 299v364q0 141 98.5 220.5t277 79.5t277.5 -79.5t99 -220.5v-364q0 -145 -86.5 -221.5t-288.5 -77.5zM509 675h2q156 0 156 127v385q0 68 -39.5 97.5t-117.5 29.5q-158 0 -158 -127v-385q0 -68 39 -97.5t118 -29.5z" />
    <glyph glyph-name="guillemotright" unicode="&#xbb;" 
d="M713 80l-147 70l207 380l-207 380l140 70l280 -450zM299 80l-145 70l205 380l-205 380l138 70l280 -450z" />
    <glyph glyph-name="onequarter" unicode="&#xbc;" horiz-adv-x="2433" 
d="M849 0l641 1505h174l-641 -1505h-174zM1978 0v210h-501v159l280 705h191l-269 -701h299v242h159v-242h168v-163h-168v-210h-159zM131 422l-1 147h268v749l-252 -39l-18 145l336 53h146v-908h246v-147h-725z" />
    <glyph glyph-name="onehalf" unicode="&#xbd;" horiz-adv-x="2579" 
d="M1723 -2l-45 161l355 359q70 70 102 127t33 126q0 69 -33 105q-32 35 -119 35t-116.5 -42.5t-29.5 -162.5h-218q0 194 82 279.5t291 85.5q356 0 356 -304q0 -106 -54.5 -192t-160.5 -189l-233 -226h437v-162h-647zM879 0l641 1505h174l-641 -1505h-174zM131 422l-1 147
h268v749l-252 -39l-18 145l336 53h146v-908h246v-147h-725z" />
    <glyph glyph-name="threequarters" unicode="&#xbe;" horiz-adv-x="2882" 
d="M803 990q164 -44 164 -230q0 -146 -76.5 -234.5t-276.5 -88.5t-282.5 78t-86.5 258h185q2 -119 46.5 -150.5t142 -31.5t129 39t31.5 113t-16 107q-32 67 -201 67v142q170 -1 196 53q16 32 15.5 99t-36.5 100t-135 33t-133.5 -36t-34.5 -146v-6h-185q0 196 96.5 268
t268 72t258 -72.5t86.5 -211t-74 -190.5q-32 -22 -81 -32zM2018 0v210h-501v159l280 705h191l-269 -701h299v242h159v-242h168v-163h-168v-210h-159zM889 0l641 1505h174l-641 -1505h-174z" />
    <glyph glyph-name="questiondown" unicode="&#xbf;" horiz-adv-x="1244" 
d="M834 1321v-245h-249v245h249zM818 890l-248 -309q-133 -167 -133 -279.5t16 -153t38 -60.5q49 -46 151.5 -46t136.5 22.5t48 40.5q32 40 32 169v85h274v-74q0 -206 -54.5 -295t-157.5 -129.5t-235 -40.5q-133 1 -205 13q-139 24 -212.5 87.5t-98.5 146.5t-25 210
t61 236.5t201 225.5l182 151h229z" />
    <glyph glyph-name="Agrave" unicode="&#xc0;" horiz-adv-x="1512" 
d="M680 1685l-237 365h267l121 -365h-151zM525 479h462l-227 776zM70 0l486 1476h394l492 -1476h-315l-83 281h-578l-86 -281h-310z" />
    <glyph glyph-name="Aacute" unicode="&#xc1;" horiz-adv-x="1512" 
d="M682 1685l114 365h268l-233 -365h-149zM525 479h462l-227 776zM70 0l486 1476h394l492 -1476h-315l-83 281h-578l-86 -281h-310z" />
    <glyph glyph-name="Acircumflex" unicode="&#xc2;" horiz-adv-x="1512" 
d="M446 1685l234 300h163l222 -300h-175l-128 175l-136 -175h-180zM525 479h462l-227 776zM70 0l486 1476h394l492 -1476h-315l-83 281h-578l-86 -281h-310z" />
    <glyph glyph-name="Atilde" unicode="&#xc3;" horiz-adv-x="1512" 
d="M645 1685q-200 0 -200 260h118q0 -86 63 -86q23 0 62 35q76 67 178 67q200 0 200 -260h-118q0 87 -56 87q-25 0 -67 -36q-80 -68 -180 -67zM525 479h462l-227 776zM70 0l486 1476h394l492 -1476h-315l-83 281h-578l-86 -281h-310z" />
    <glyph glyph-name="Adieresis" unicode="&#xc4;" horiz-adv-x="1512" 
d="M878 1685v233h265v-233h-265zM369 1685v233h264v-233h-264zM525 479h462l-227 776zM70 0l486 1476h394l492 -1476h-315l-83 281h-578l-86 -281h-310z" />
    <glyph glyph-name="Aring" unicode="&#xc5;" horiz-adv-x="1512" 
d="M756 1487q-108 0 -169 56t-61 157t61 156.5t169 55.5t169 -55.5t61 -156.5t-61 -157t-169 -56zM756 1577q118 0 118 123.5t-118 123.5t-118 -123.5t118 -123.5zM525 479h462l-227 776zM70 0l486 1476h394l492 -1476h-315l-83 281h-578l-86 -281h-310z" />
    <glyph glyph-name="AE" unicode="&#xc6;" horiz-adv-x="1834" 
d="M527 477h366v772h-136zM393 0h-310l456 1477h1161v-228h-527v-391h457v-213h-457v-418h537v-227h-817v281h-421z" />
    <glyph glyph-name="Ccedilla" unicode="&#xc7;" horiz-adv-x="1490" 
d="M781 -504q-50 0 -95 9v117q34 -7 78 -7t74 23.5t30 65.5t-38 77t-107 37v172h76l6 -101q105 -19 163 -78.5t58 -133.5t-64 -127.5t-181 -53.5zM514 0q-112 26 -179.5 69t-107.5 110.5t-53.5 138.5t-13.5 166v493q0 264 107 370q107 107 284 137q100 18 226 17
q457 0 545 -250q40 -112 40 -268v-18l-291 -34v75q0 154 -60.5 208t-231.5 54t-246.5 -54.5t-75.5 -201.5v-558q0 -148 77.5 -197.5t246.5 -49.5q89 0 141 9.5t87.5 38.5t48.5 77t13 128v47h291v-27q0 -219 -64.5 -316.5t-185.5 -143.5t-303.5 -46t-294.5 26z" />
    <glyph glyph-name="Egrave" unicode="&#xc8;" horiz-adv-x="1294" 
d="M604 1685l-237 365h267l121 -365h-151zM190 0v1476h967v-224h-671v-392h595v-214h-595v-422h682v-224h-978z" />
    <glyph glyph-name="Eacute" unicode="&#xc9;" horiz-adv-x="1294" 
d="M604 1685l114 365h268l-233 -365h-149zM190 0v1476h967v-224h-671v-392h595v-214h-595v-422h682v-224h-978z" />
    <glyph glyph-name="Ecircumflex" unicode="&#xca;" horiz-adv-x="1294" 
d="M370 1685l234 300h163l222 -300h-175l-128 175l-136 -175h-180zM190 0v1476h967v-224h-671v-392h595v-214h-595v-422h682v-224h-978z" />
    <glyph glyph-name="Edieresis" unicode="&#xcb;" horiz-adv-x="1294" 
d="M801 1685v233h265v-233h-265zM292 1685v233h264v-233h-264zM190 0v1476h967v-224h-671v-392h595v-214h-595v-422h682v-224h-978z" />
    <glyph glyph-name="Igrave" unicode="&#xcc;" horiz-adv-x="1148" 
d="M498 1685l-237 365h267l121 -365h-151zM158 0v222h269v1033h-269v221h832v-221h-267v-1033h267v-222h-832z" />
    <glyph glyph-name="Iacute" unicode="&#xcd;" horiz-adv-x="1148" 
d="M500 1685l114 365h268l-233 -365h-149zM158 0v222h269v1033h-269v221h832v-221h-267v-1033h267v-222h-832z" />
    <glyph glyph-name="Icircumflex" unicode="&#xce;" horiz-adv-x="1148" 
d="M264 1685l234 300h163l222 -300h-175l-128 175l-136 -175h-180zM158 0v222h269v1033h-269v221h832v-221h-267v-1033h267v-222h-832z" />
    <glyph glyph-name="Idieresis" unicode="&#xcf;" horiz-adv-x="1148" 
d="M696 1685v233h265v-233h-265zM187 1685v233h264v-233h-264zM158 0v222h269v1033h-269v221h832v-221h-267v-1033h267v-222h-832z" />
    <glyph glyph-name="Eth" unicode="&#xd0;" horiz-adv-x="1568" 
d="M509 231h318q152 0 212 56t60 183v530q0 125 -61.5 185t-210.5 60h-318v-397h306v-150h-306v-467zM212 848v629h640q356 0 476 -210q68 -119 68 -306v-453q0 -374 -284 -471q-108 -37 -259 -37h-641v698h-122v150h122z" />
    <glyph glyph-name="Ntilde" unicode="&#xd1;" horiz-adv-x="1634" 
d="M707 1685q-200 0 -200 260h118q0 -86 63 -86q23 0 62 35q76 67 178 67q200 0 200 -260h-118q0 87 -56 87q-25 0 -67 -36q-80 -68 -180 -67zM190 0v1476h223l767 -1012v1012h264v-1476h-223l-764 996v-996h-267z" />
    <glyph glyph-name="Ograve" unicode="&#xd2;" horiz-adv-x="1606" 
d="M728 1685l-237 365h267l121 -365h-151zM810 -26q-434 0 -572 216q-78 120 -78 311v462q0 311 193 435q159 102 461 103q421 0 556 -230q76 -129 76 -323v-431q0 -302 -190 -436q-152 -107 -446 -107zM547 265q89 -58 265.5 -58t256 57.5t79.5 203.5v535q0 144 -81 204.5
t-254.5 60.5t-264 -60t-90.5 -205v-535q0 -145 89 -203z" />
    <glyph glyph-name="Oacute" unicode="&#xd3;" horiz-adv-x="1606" 
d="M728 1685l114 365h268l-233 -365h-149zM810 -26q-434 0 -572 216q-78 120 -78 311v462q0 311 193 435q159 102 461 103q421 0 556 -230q76 -129 76 -323v-431q0 -302 -190 -436q-152 -107 -446 -107zM547 265q89 -58 265.5 -58t256 57.5t79.5 203.5v535q0 144 -81 204.5
t-254.5 60.5t-264 -60t-90.5 -205v-535q0 -145 89 -203z" />
    <glyph glyph-name="Ocircumflex" unicode="&#xd4;" horiz-adv-x="1606" 
d="M494 1685l234 300h163l222 -300h-175l-128 175l-136 -175h-180zM810 -26q-434 0 -572 216q-78 120 -78 311v462q0 311 193 435q159 102 461 103q421 0 556 -230q76 -129 76 -323v-431q0 -302 -190 -436q-152 -107 -446 -107zM547 265q89 -58 265.5 -58t256 57.5
t79.5 203.5v535q0 144 -81 204.5t-254.5 60.5t-264 -60t-90.5 -205v-535q0 -145 89 -203z" />
    <glyph glyph-name="Otilde" unicode="&#xd5;" horiz-adv-x="1606" 
d="M693 1685q-200 0 -200 260h118q0 -86 63 -86q23 0 62 35q76 67 178 67q200 0 200 -260h-118q0 87 -56 87q-25 0 -67 -36q-80 -68 -180 -67zM810 -26q-434 0 -572 216q-78 120 -78 311v462q0 311 193 435q159 102 461 103q421 0 556 -230q76 -129 76 -323v-431
q0 -302 -190 -436q-152 -107 -446 -107zM547 265q89 -58 265.5 -58t256 57.5t79.5 203.5v535q0 144 -81 204.5t-254.5 60.5t-264 -60t-90.5 -205v-535q0 -145 89 -203z" />
    <glyph glyph-name="Odieresis" unicode="&#xd6;" horiz-adv-x="1606" 
d="M925 1685v233h265v-233h-265zM416 1685v233h264v-233h-264zM810 -26q-434 0 -572 216q-78 120 -78 311v462q0 311 193 435q159 102 461 103q421 0 556 -230q76 -129 76 -323v-431q0 -302 -190 -436q-152 -107 -446 -107zM547 265q89 -58 265.5 -58t256 57.5t79.5 203.5
v535q0 144 -81 204.5t-254.5 60.5t-264 -60t-90.5 -205v-535q0 -145 89 -203z" />
    <glyph glyph-name="multiply" unicode="&#xd7;" horiz-adv-x="1025" 
d="M265 216l-111 128l238 232l-238 230l111 131l248 -243l248 243l110 -131l-237 -230l237 -232l-110 -128l-248 242z" />
    <glyph glyph-name="Oslash" unicode="&#xd8;" horiz-adv-x="1630" 
d="M970 1253q-64 15 -150 15q-175 0 -265.5 -60t-90.5 -205v-535q0 -163 121 -222zM1142 1454q310 -109 310 -506v-431q0 -302 -190 -436q-152 -107 -442 -107q-137 0 -236 19l-80 -210l-87 23l80 208q-191 58 -261 185.5t-70 301.5v462q0 311 193 435q159 102 461 103
q133 0 236 -23l84 220l87 -23zM820 207q175 0 254.5 57.5t79.5 203.5v535q0 158 -100 218l-383 -1002q59 -12 149 -12z" />
    <glyph glyph-name="Ugrave" unicode="&#xd9;" horiz-adv-x="1574" 
d="M712 1685l-237 365h267l121 -365h-151zM794 -26q-416 0 -545 198q-73 112 -73 296v1009h297v-1022q0 -139 79.5 -193.5t242.5 -54.5t234.5 54t71.5 194v1022h297v-997q0 -294 -174 -410q-146 -96 -430 -96z" />
    <glyph glyph-name="Uacute" unicode="&#xda;" horiz-adv-x="1574" 
d="M712 1685l114 365h268l-233 -365h-149zM794 -26q-416 0 -545 198q-73 112 -73 296v1009h297v-1022q0 -139 79.5 -193.5t242.5 -54.5t234.5 54t71.5 194v1022h297v-997q0 -294 -174 -410q-146 -96 -430 -96z" />
    <glyph glyph-name="Ucircumflex" unicode="&#xdb;" horiz-adv-x="1574" 
d="M478 1685l234 300h163l222 -300h-175l-128 175l-136 -175h-180zM794 -26q-416 0 -545 198q-73 112 -73 296v1009h297v-1022q0 -139 79.5 -193.5t242.5 -54.5t234.5 54t71.5 194v1022h297v-997q0 -294 -174 -410q-146 -96 -430 -96z" />
    <glyph glyph-name="Udieresis" unicode="&#xdc;" horiz-adv-x="1574" 
d="M909 1685v233h265v-233h-265zM400 1685v233h264v-233h-264zM794 -26q-416 0 -545 198q-73 112 -73 296v1009h297v-1022q0 -139 79.5 -193.5t242.5 -54.5t234.5 54t71.5 194v1022h297v-997q0 -294 -174 -410q-146 -96 -430 -96z" />
    <glyph glyph-name="Yacute" unicode="&#xdd;" horiz-adv-x="1304" 
d="M578 1685l114 365h268l-233 -365h-149zM509 0v567l-509 909h313l346 -617l345 617h300l-499 -909v-567h-296z" />
    <glyph glyph-name="Thorn" unicode="&#xde;" horiz-adv-x="1362" 
d="M513 567h312q110 0 144.5 46.5t34.5 177t-35 186.5t-135 56h-321v-466zM216 0v1476h297v-236h293q247 0 356.5 -91t109.5 -338q0 -176 -43.5 -272t-149.5 -139.5t-301 -43.5h-265v-356h-297z" />
    <glyph glyph-name="germandbls" unicode="&#xdf;" horiz-adv-x="1286" 
d="M873 819q321 -95 321 -431q0 -186 -137 -297t-435 -111v189q172 0 245.5 66t73.5 187v17q-5 134 -78.5 191t-226.5 73v190q170 -1 208 139q10 36 10 67q0 123 -56.5 171t-167 48t-154.5 -48.5t-44 -140.5v-1129h-274v1118q0 182 115.5 285.5t339.5 103.5q484 0 484 -394
q0 -94 -59 -175t-165 -119z" />
    <glyph glyph-name="agrave" unicode="&#xe0;" horiz-adv-x="1174" 
d="M526 1281l-237 365h267l121 -365h-151zM383 294q0 -129 140 -129q55 0 116 29t96 82v268q-48 -39 -169 -83.5t-152 -82t-31 -84.5zM622.5 17.5q-87.5 -40.5 -212.5 -40.5t-211.5 81t-86.5 207t78.5 202t300.5 146q135 43 189.5 77t54.5 94q0 124 -169 123
q-95 0 -131 -36.5t-36 -105.5v-42h-255v32q0 161 107 251.5t329 90.5t322.5 -94t100.5 -270v-425q0 -72 18 -95t69 -23l-11 -198h-57q-111 0 -173 30.5t-92 96.5q-47 -61 -134.5 -101.5z" />
    <glyph glyph-name="aacute" unicode="&#xe1;" horiz-adv-x="1174" 
d="M526 1281l114 365h268l-233 -365h-149zM383 294q0 -129 140 -129q55 0 116 29t96 82v268q-48 -39 -169 -83.5t-152 -82t-31 -84.5zM622.5 17.5q-87.5 -40.5 -212.5 -40.5t-211.5 81t-86.5 207t78.5 202t300.5 146q135 43 189.5 77t54.5 94q0 124 -169 123
q-95 0 -131 -36.5t-36 -105.5v-42h-255v32q0 161 107 251.5t329 90.5t322.5 -94t100.5 -270v-425q0 -72 18 -95t69 -23l-11 -198h-57q-111 0 -173 30.5t-92 96.5q-47 -61 -134.5 -101.5z" />
    <glyph glyph-name="acircumflex" unicode="&#xe2;" horiz-adv-x="1174" 
d="M292 1281l234 300h163l222 -300h-175l-128 175l-136 -175h-180zM383 294q0 -129 140 -129q55 0 116 29t96 82v268q-48 -39 -169 -83.5t-152 -82t-31 -84.5zM622.5 17.5q-87.5 -40.5 -212.5 -40.5t-211.5 81t-86.5 207t78.5 202t300.5 146q135 43 189.5 77t54.5 94
q0 124 -169 123q-95 0 -131 -36.5t-36 -105.5v-42h-255v32q0 161 107 251.5t329 90.5t322.5 -94t100.5 -270v-425q0 -72 18 -95t69 -23l-11 -198h-57q-111 0 -173 30.5t-92 96.5q-47 -61 -134.5 -101.5z" />
    <glyph glyph-name="atilde" unicode="&#xe3;" horiz-adv-x="1174" 
d="M491 1281q-200 0 -200 260h118q0 -86 63 -86q23 0 62 35q76 67 178 67q200 0 200 -260h-118q0 87 -56 87q-25 0 -67 -36q-80 -68 -180 -67zM383 294q0 -129 140 -129q55 0 116 29t96 82v268q-48 -39 -169 -83.5t-152 -82t-31 -84.5zM622.5 17.5q-87.5 -40.5 -212.5 -40.5
t-211.5 81t-86.5 207t78.5 202t300.5 146q135 43 189.5 77t54.5 94q0 124 -169 123q-95 0 -131 -36.5t-36 -105.5v-42h-255v32q0 161 107 251.5t329 90.5t322.5 -94t100.5 -270v-425q0 -72 18 -95t69 -23l-11 -198h-57q-111 0 -173 30.5t-92 96.5q-47 -61 -134.5 -101.5z
" />
    <glyph glyph-name="adieresis" unicode="&#xe4;" horiz-adv-x="1174" 
d="M723 1281v233h265v-233h-265zM214 1281v233h264v-233h-264zM383 294q0 -129 140 -129q55 0 116 29t96 82v268q-48 -39 -169 -83.5t-152 -82t-31 -84.5zM622.5 17.5q-87.5 -40.5 -212.5 -40.5t-211.5 81t-86.5 207t78.5 202t300.5 146q135 43 189.5 77t54.5 94
q0 124 -169 123q-95 0 -131 -36.5t-36 -105.5v-42h-255v32q0 161 107 251.5t329 90.5t322.5 -94t100.5 -270v-425q0 -72 18 -95t69 -23l-11 -198h-57q-111 0 -173 30.5t-92 96.5q-47 -61 -134.5 -101.5z" />
    <glyph glyph-name="aring" unicode="&#xe5;" horiz-adv-x="1174" 
d="M601 1281q-108 0 -169 56t-61 157t61 156.5t169 55.5t169 -55.5t61 -156.5t-61 -157t-169 -56zM601 1371q118 0 118 123.5t-118 123.5t-118 -123.5t118 -123.5zM383 294q0 -129 140 -129q55 0 116 29t96 82v268q-48 -39 -169 -83.5t-152 -82t-31 -84.5zM622.5 17.5
q-87.5 -40.5 -212.5 -40.5t-211.5 81t-86.5 207t78.5 202t300.5 146q135 43 189.5 77t54.5 94q0 124 -169 123q-95 0 -131 -36.5t-36 -105.5v-42h-255v32q0 161 107 251.5t329 90.5t322.5 -94t100.5 -270v-425q0 -72 18 -95t69 -23l-11 -198h-57q-111 0 -173 30.5t-92 96.5
q-47 -61 -134.5 -101.5z" />
    <glyph glyph-name="ae" unicode="&#xe6;" horiz-adv-x="1734" 
d="M1012 655h359v110q0 83 -44 112.5t-133 29.5t-135.5 -33t-46.5 -114v-105zM373 293q0 -64 37.5 -100t101 -36t128.5 25t99 77v261q-39 -33 -202.5 -70t-163.5 -157zM1012 321q0 -155 159 -155q70 0 99 6q30 5 54 24q45 35 46 157h252q-4 -180 -70 -263q-66 -84 -210 -104
q-64 -9 -156 -9q-257 0 -339 153q-90 -79 -186.5 -116t-237.5 -37t-226 80.5t-85 223.5t86 205q86 64 322 118q128 30 160 46q59 30 59 120q0 138 -172 138q-95 0 -131 -41t-36 -112v-36h-256v26q0 162 107.5 257t321.5 95q106 0 188.5 -33t116.5 -97q106 130 324 130
q422 0 422 -352v-231h-612v-193z" />
    <glyph glyph-name="ccedilla" unicode="&#xe7;" horiz-adv-x="1107" 
d="M587 -501q-50 0 -95 9v117q34 -7 78 -7t74 23.5t30 65.5t-38 77t-107 37v172h76l6 -101q105 -19 163 -78.5t58 -133.5t-64 -127.5t-181 -53.5zM584 -23q-312 0 -403 140q-57 86 -57 210v430q0 161 117 250.5t333 89.5t325.5 -85.5t109.5 -312.5l-256 -20q0 145 -35 187
q-21 26 -52 34q-30 7 -104 7q-166 0 -166 -151v-434q0 -84 43.5 -119t129 -35t120.5 15.5t50 59t15 137.5h254q-2 -118 -22 -192q-20 -72 -70 -122q-90 -88 -332 -89z" />
    <glyph glyph-name="egrave" unicode="&#xe8;" horiz-adv-x="1149" 
d="M506 1281l-237 365h267l121 -365h-151zM396 651h386v126q0 97 -78 119q-41 12 -124.5 11.5t-133.5 -28.5t-50 -107v-121zM402 -5q-80 17 -144 57q-134 82 -134 284v419q0 162 123 252t335 90q457 0 457 -352v-260h-643v-175q0 -89 44 -116.5t149 -27.5t124 10
q45 25 58 60.5t15 93.5h252q-6 -248 -175 -314q-99 -38 -240 -38.5t-221 17.5z" />
    <glyph glyph-name="eacute" unicode="&#xe9;" horiz-adv-x="1149" 
d="M507 1281l114 365h268l-233 -365h-149zM396 651h386v126q0 97 -78 119q-41 12 -124.5 11.5t-133.5 -28.5t-50 -107v-121zM402 -5q-80 17 -144 57q-134 82 -134 284v419q0 162 123 252t335 90q457 0 457 -352v-260h-643v-175q0 -89 44 -116.5t149 -27.5t124 10
q45 25 58 60.5t15 93.5h252q-6 -248 -175 -314q-99 -38 -240 -38.5t-221 17.5z" />
    <glyph glyph-name="ecircumflex" unicode="&#xea;" horiz-adv-x="1149" 
d="M272 1281l234 300h163l222 -300h-175l-128 175l-136 -175h-180zM396 651h386v126q0 97 -78 119q-41 12 -124.5 11.5t-133.5 -28.5t-50 -107v-121zM402 -5q-80 17 -144 57q-134 82 -134 284v419q0 162 123 252t335 90q457 0 457 -352v-260h-643v-175q0 -89 44 -116.5
t149 -27.5t124 10q45 25 58 60.5t15 93.5h252q-6 -248 -175 -314q-99 -38 -240 -38.5t-221 17.5z" />
    <glyph glyph-name="edieresis" unicode="&#xeb;" horiz-adv-x="1149" 
d="M704 1281v233h265v-233h-265zM195 1281v233h264v-233h-264zM396 651h386v126q0 97 -78 119q-41 12 -124.5 11.5t-133.5 -28.5t-50 -107v-121zM402 -5q-80 17 -144 57q-134 82 -134 284v419q0 162 123 252t335 90q457 0 457 -352v-260h-643v-175q0 -89 44 -116.5
t149 -27.5t124 10q45 25 58 60.5t15 93.5h252q-6 -248 -175 -314q-99 -38 -240 -38.5t-221 17.5z" />
    <glyph glyph-name="igrave" unicode="&#xec;" horiz-adv-x="598" 
d="M226 1281l-237 365h267l121 -365h-151zM166 0v1074h272v-1074h-272z" />
    <glyph glyph-name="iacute" unicode="&#xed;" horiz-adv-x="598" 
d="M228 1281l114 365h268l-233 -365h-149zM166 0v1074h272v-1074h-272z" />
    <glyph glyph-name="icircumflex" unicode="&#xee;" horiz-adv-x="598" 
d="M-8 1281l234 300h163l222 -300h-175l-128 175l-136 -175h-180zM166 0v1074h272v-1074h-272z" />
    <glyph glyph-name="idieresis" unicode="&#xef;" horiz-adv-x="598" 
d="M424 1281v233h265v-233h-265zM-85 1281v233h264v-233h-264zM166 0v1074h272v-1074h-272z" />
    <glyph glyph-name="eth" unicode="&#xf0;" horiz-adv-x="1312" 
d="M497.5 213.5q53.5 -35.5 148 -35.5t137.5 10q83 20 105 77t22 201t-23 270q-31 22 -97.5 39.5t-112.5 17.5q-233 0 -233 -181v-279q0 -84 53.5 -119.5zM293 73q-127 96 -127 269v276q0 167 126.5 262t328.5 95q51 0 137 -18.5t106 -35.5q-16 152 -90 243.5t-172 119.5
l-89 -174l-119 57l77 151q-84 15 -238 17l24 167q46 3 123 3t173 -20l85 170l120 -57l-74 -150q374 -109 468 -594q28 -144 28 -318v-76q0 -210 -112.5 -346.5t-380 -136.5t-394.5 96z" />
    <glyph glyph-name="ntilde" unicode="&#xf1;" horiz-adv-x="1254" 
d="M521 1283q-200 0 -200 260h118q0 -86 63 -86q23 0 62 35q76 67 178 67q200 0 200 -260h-118q0 87 -56 87q-25 0 -67 -36q-80 -68 -180 -67zM830 755q0 139 -189 139q-81 0 -145 -42.5t-64 -116.5v-735h-272v1074h272v-95q137 120 320 120t266.5 -94t83.5 -235v-770h-272
v755z" />
    <glyph glyph-name="ograve" unicode="&#xf2;" horiz-adv-x="1180" 
d="M514 1281l-237 365h267l121 -365h-151zM590 -23q-466 0 -466 348v423q0 165 122.5 257t343 92t343.5 -92.5t123 -256.5v-423q0 -259 -246 -324q-92 -24 -220 -24zM590 166q194 0 194 147v447q0 79 -49 113t-145 34q-194 0 -194 -147v-447q0 -79 48.5 -113t145.5 -34z" />
    <glyph glyph-name="oacute" unicode="&#xf3;" horiz-adv-x="1180" 
d="M516 1281l114 365h268l-233 -365h-149zM590 -23q-466 0 -466 348v423q0 165 122.5 257t343 92t343.5 -92.5t123 -256.5v-423q0 -259 -246 -324q-92 -24 -220 -24zM590 166q194 0 194 147v447q0 79 -49 113t-145 34q-194 0 -194 -147v-447q0 -79 48.5 -113t145.5 -34z" />
    <glyph glyph-name="ocircumflex" unicode="&#xf4;" horiz-adv-x="1180" 
d="M280 1281l234 300h163l222 -300h-175l-128 175l-136 -175h-180zM590 -23q-466 0 -466 348v423q0 165 122.5 257t343 92t343.5 -92.5t123 -256.5v-423q0 -259 -246 -324q-92 -24 -220 -24zM590 166q194 0 194 147v447q0 79 -49 113t-145 34q-194 0 -194 -147v-447
q0 -79 48.5 -113t145.5 -34z" />
    <glyph glyph-name="otilde" unicode="&#xf5;" horiz-adv-x="1180" 
d="M479 1281q-200 0 -200 260h118q0 -86 63 -86q23 0 62 35q76 67 178 67q200 0 200 -260h-118q0 87 -56 87q-25 0 -67 -36q-80 -68 -180 -67zM590 -23q-466 0 -466 348v423q0 165 122.5 257t343 92t343.5 -92.5t123 -256.5v-423q0 -259 -246 -324q-92 -24 -220 -24z
M590 166q194 0 194 147v447q0 79 -49 113t-145 34q-194 0 -194 -147v-447q0 -79 48.5 -113t145.5 -34z" />
    <glyph glyph-name="odieresis" unicode="&#xf6;" horiz-adv-x="1180" 
d="M712 1281v233h265v-233h-265zM203 1281v233h264v-233h-264zM590 -23q-466 0 -466 348v423q0 165 122.5 257t343 92t343.5 -92.5t123 -256.5v-423q0 -259 -246 -324q-92 -24 -220 -24zM590 166q194 0 194 147v447q0 79 -49 113t-145 34q-194 0 -194 -147v-447
q0 -79 48.5 -113t145.5 -34z" />
    <glyph glyph-name="divide" unicode="&#xf7;" horiz-adv-x="1004" 
d="M389 792v229h228v-229h-228zM112 479v163h780v-163h-780zM389 94v229h228v-229h-228z" />
    <glyph glyph-name="oslash" unicode="&#xf8;" horiz-adv-x="1228" 
d="M705 892q-43 15 -107 15q-194 0 -194 -147v-447q0 -81 51 -115zM1064 325q0 -348 -440 -348q-102 0 -165 9l-72 -200l-72 20l70 195q-253 66 -253 324v423q0 165 122.5 257t343.5 92q96 0 174 -18l72 202l72 -21l-73 -203q107 -41 164 -120t57 -189v-423zM598 166
q193 0 193 147v447q0 53 -23 87l-243 -675q33 -6 73 -6z" />
    <glyph glyph-name="ugrave" unicode="&#xf9;" horiz-adv-x="1247" 
d="M546 1281l-237 365h267l121 -365h-151zM827 118q-32 -66 -124 -103.5t-204 -37.5q-161 0 -254 89t-93 225v783h272v-739q0 -77 54.5 -115t133.5 -38t143 42.5t64 125.5v724h272v-1074h-256z" />
    <glyph glyph-name="uacute" unicode="&#xfa;" horiz-adv-x="1247" 
d="M547 1281l114 365h268l-233 -365h-149zM827 118q-32 -66 -124 -103.5t-204 -37.5q-161 0 -254 89t-93 225v783h272v-739q0 -77 54.5 -115t133.5 -38t143 42.5t64 125.5v724h272v-1074h-256z" />
    <glyph glyph-name="ucircumflex" unicode="&#xfb;" horiz-adv-x="1247" 
d="M312 1281l234 300h163l222 -300h-175l-128 175l-136 -175h-180zM827 118q-32 -66 -124 -103.5t-204 -37.5q-161 0 -254 89t-93 225v783h272v-739q0 -77 54.5 -115t133.5 -38t143 42.5t64 125.5v724h272v-1074h-256z" />
    <glyph glyph-name="udieresis" unicode="&#xfc;" horiz-adv-x="1247" 
d="M744 1281v233h265v-233h-265zM235 1281v233h264v-233h-264zM827 118q-32 -66 -124 -103.5t-204 -37.5q-161 0 -254 89t-93 225v783h272v-739q0 -77 54.5 -115t133.5 -38t143 42.5t64 125.5v724h272v-1074h-256z" />
    <glyph glyph-name="yacute" unicode="&#xfd;" horiz-adv-x="1083" 
d="M476 1281l114 365h268l-233 -365h-149zM148 -485l-20 225q143 28 208.5 109.5t100.5 186.5l-404 1038h262l279 -721l223 721h270l-326 -934q-84 -241 -153 -346.5t-128 -153.5q-126 -102 -312 -125z" />
    <glyph glyph-name="thorn" unicode="&#xfe;" horiz-adv-x="1212" 
d="M614 165q193 0 193 155v435q0 151 -184 151q-61 0 -113 -19.5t-79 -45.5v-628q90 -48 183 -48zM158 -410v1926h273v-480q106 59 237 59q193 0 302.5 -93.5t109.5 -250.5v-425q0 -148 -114.5 -249t-329.5 -101q-111 0 -205 41v-427h-273z" />
    <glyph glyph-name="ydieresis" unicode="&#xff;" horiz-adv-x="1083" 
d="M672 1281v233h265v-233h-265zM163 1281v233h264v-233h-264zM148 -485l-20 225q143 28 208.5 109.5t100.5 186.5l-404 1038h262l279 -721l223 721h270l-326 -934q-84 -241 -153 -346.5t-128 -153.5q-126 -102 -312 -125z" />
    <glyph glyph-name="Amacron" unicode="&#x100;" horiz-adv-x="1512" 
d="M549 1685v157h414v-157h-414zM525 479h462l-227 776zM70 0l486 1476h394l492 -1476h-315l-83 281h-578l-86 -281h-310z" />
    <glyph glyph-name="amacron" unicode="&#x101;" horiz-adv-x="1174" 
d="M394 1281v157h414v-157h-414zM383 294q0 -129 140 -129q55 0 116 29t96 82v268q-48 -39 -169 -83.5t-152 -82t-31 -84.5zM622.5 17.5q-87.5 -40.5 -212.5 -40.5t-211.5 81t-86.5 207t78.5 202t300.5 146q135 43 189.5 77t54.5 94q0 124 -169 123q-95 0 -131 -36.5
t-36 -105.5v-42h-255v32q0 161 107 251.5t329 90.5t322.5 -94t100.5 -270v-425q0 -72 18 -95t69 -23l-11 -198h-57q-111 0 -173 30.5t-92 96.5q-47 -61 -134.5 -101.5z" />
    <glyph glyph-name="Abreve" unicode="&#x102;" horiz-adv-x="1512" 
d="M756 1685q-106 0 -171 65.5t-65 159.5h124q0 -52 32.5 -82t79.5 -30t79.5 30t32.5 82h124q0 -94 -65 -159.5t-171 -65.5zM525 479h462l-227 776zM70 0l486 1476h394l492 -1476h-315l-83 281h-578l-86 -281h-310z" />
    <glyph glyph-name="abreve" unicode="&#x103;" horiz-adv-x="1174" 
d="M601 1281q-106 0 -171 65.5t-65 159.5h124q0 -52 32.5 -82t79.5 -30t79.5 30t32.5 82h124q0 -94 -65 -159.5t-171 -65.5zM383 294q0 -129 140 -129q55 0 116 29t96 82v268q-48 -39 -169 -83.5t-152 -82t-31 -84.5zM622.5 17.5q-87.5 -40.5 -212.5 -40.5t-211.5 81
t-86.5 207t78.5 202t300.5 146q135 43 189.5 77t54.5 94q0 124 -169 123q-95 0 -131 -36.5t-36 -105.5v-42h-255v32q0 161 107 251.5t329 90.5t322.5 -94t100.5 -270v-425q0 -72 18 -95t69 -23l-11 -198h-57q-111 0 -173 30.5t-92 96.5q-47 -61 -134.5 -101.5z" />
    <glyph glyph-name="Aogonek" unicode="&#x104;" horiz-adv-x="1512" 
d="M1258 17q-83 -158 -83 -254q0 -122 176 -122l-13 -141h-12q-336 0 -336 214q0 74 42 156t111 147h115zM525 479h462l-227 776zM70 0l486 1476h394l492 -1476h-315l-83 281h-578l-86 -281h-310z" />
    <glyph glyph-name="aogonek" unicode="&#x105;" horiz-adv-x="1174" 
d="M1056 14q-83 -158 -83 -254q0 -122 176 -122l-13 -141h-12q-336 0 -336 214q0 74 42 156t111 147h115zM383 294q0 -129 140 -129q55 0 116 29t96 82v268q-48 -39 -169 -83.5t-152 -82t-31 -84.5zM622.5 17.5q-87.5 -40.5 -212.5 -40.5t-211.5 81t-86.5 207t78.5 202
t300.5 146q135 43 189.5 77t54.5 94q0 124 -169 123q-95 0 -131 -36.5t-36 -105.5v-42h-255v32q0 161 107 251.5t329 90.5t322.5 -94t100.5 -270v-425q0 -72 18 -95t69 -23l-11 -198h-57q-111 0 -173 30.5t-92 96.5q-47 -61 -134.5 -101.5z" />
    <glyph glyph-name="Cacute" unicode="&#x106;" horiz-adv-x="1490" 
d="M686 1685l114 365h268l-233 -365h-149zM514 0q-112 26 -179.5 69t-107.5 110.5t-53.5 138.5t-13.5 166v493q0 264 107 370q107 107 284 137q100 18 226 17q457 0 545 -250q40 -112 40 -268v-18l-291 -34v75q0 154 -60.5 208t-231.5 54t-246.5 -54.5t-75.5 -201.5v-558
q0 -148 77.5 -197.5t246.5 -49.5q89 0 141 9.5t87.5 38.5t48.5 77t13 128v47h291v-27q0 -219 -64.5 -316.5t-185.5 -143.5t-303.5 -46t-294.5 26z" />
    <glyph glyph-name="cacute" unicode="&#x107;" horiz-adv-x="1107" 
d="M492 1281l114 365h268l-233 -365h-149zM584 -23q-312 0 -403 140q-57 86 -57 210v430q0 161 117 250.5t333 89.5t325.5 -85.5t109.5 -312.5l-256 -20q0 145 -35 187q-21 26 -52 34q-30 7 -104 7q-166 0 -166 -151v-434q0 -84 43.5 -119t129 -35t120.5 15.5t50 59
t15 137.5h254q-2 -118 -22 -192q-20 -72 -70 -122q-90 -88 -332 -89z" />
    <glyph glyph-name="Ccircumflex" unicode="&#x108;" horiz-adv-x="1490" 
d="M452 1685l234 300h163l222 -300h-175l-128 175l-136 -175h-180zM514 0q-112 26 -179.5 69t-107.5 110.5t-53.5 138.5t-13.5 166v493q0 264 107 370q107 107 284 137q100 18 226 17q457 0 545 -250q40 -112 40 -268v-18l-291 -34v75q0 154 -60.5 208t-231.5 54
t-246.5 -54.5t-75.5 -201.5v-558q0 -148 77.5 -197.5t246.5 -49.5q89 0 141 9.5t87.5 38.5t48.5 77t13 128v47h291v-27q0 -219 -64.5 -316.5t-185.5 -143.5t-303.5 -46t-294.5 26z" />
    <glyph glyph-name="ccircumflex" unicode="&#x109;" horiz-adv-x="1107" 
d="M257 1281l234 300h163l222 -300h-175l-128 175l-136 -175h-180zM584 -23q-312 0 -403 140q-57 86 -57 210v430q0 161 117 250.5t333 89.5t325.5 -85.5t109.5 -312.5l-256 -20q0 145 -35 187q-21 26 -52 34q-30 7 -104 7q-166 0 -166 -151v-434q0 -84 43.5 -119t129 -35
t120.5 15.5t50 59t15 137.5h254q-2 -118 -22 -192q-20 -72 -70 -122q-90 -88 -332 -89z" />
    <glyph glyph-name="Cdotaccent" unicode="&#x10a;" horiz-adv-x="1490" 
d="M637 1685v247h248v-247h-248zM514 0q-112 26 -179.5 69t-107.5 110.5t-53.5 138.5t-13.5 166v493q0 264 107 370q107 107 284 137q100 18 226 17q457 0 545 -250q40 -112 40 -268v-18l-291 -34v75q0 154 -60.5 208t-231.5 54t-246.5 -54.5t-75.5 -201.5v-558
q0 -148 77.5 -197.5t246.5 -49.5q89 0 141 9.5t87.5 38.5t48.5 77t13 128v47h291v-27q0 -219 -64.5 -316.5t-185.5 -143.5t-303.5 -46t-294.5 26z" />
    <glyph glyph-name="cdotaccent" unicode="&#x10b;" horiz-adv-x="1107" 
d="M443 1281v247h248v-247h-248zM584 -23q-312 0 -403 140q-57 86 -57 210v430q0 161 117 250.5t333 89.5t325.5 -85.5t109.5 -312.5l-256 -20q0 145 -35 187q-21 26 -52 34q-30 7 -104 7q-166 0 -166 -151v-434q0 -84 43.5 -119t129 -35t120.5 15.5t50 59t15 137.5h254
q-2 -118 -22 -192q-20 -72 -70 -122q-90 -88 -332 -89z" />
    <glyph glyph-name="Ccaron" unicode="&#x10c;" horiz-adv-x="1490" 
d="M674 1685l-222 300h175l128 -175l136 175h180l-234 -300h-163zM514 0q-112 26 -179.5 69t-107.5 110.5t-53.5 138.5t-13.5 166v493q0 264 107 370q107 107 284 137q100 18 226 17q457 0 545 -250q40 -112 40 -268v-18l-291 -34v75q0 154 -60.5 208t-231.5 54
t-246.5 -54.5t-75.5 -201.5v-558q0 -148 77.5 -197.5t246.5 -49.5q89 0 141 9.5t87.5 38.5t48.5 77t13 128v47h291v-27q0 -219 -64.5 -316.5t-185.5 -143.5t-303.5 -46t-294.5 26z" />
    <glyph glyph-name="ccaron" unicode="&#x10d;" horiz-adv-x="1107" 
d="M479 1281l-222 300h175l128 -175l136 175h180l-234 -300h-163zM584 -23q-312 0 -403 140q-57 86 -57 210v430q0 161 117 250.5t333 89.5t325.5 -85.5t109.5 -312.5l-256 -20q0 145 -35 187q-21 26 -52 34q-30 7 -104 7q-166 0 -166 -151v-434q0 -84 43.5 -119t129 -35
t120.5 15.5t50 59t15 137.5h254q-2 -118 -22 -192q-20 -72 -70 -122q-90 -88 -332 -89z" />
    <glyph glyph-name="Dcaron" unicode="&#x10e;" horiz-adv-x="1534" 
d="M694 1685l-222 300h175l128 -175l136 175h180l-234 -300h-163zM190 0v1476h640q354 0 476 -210q68 -118 68 -305v-453q0 -374 -284 -471q-108 -37 -259 -37h-641zM487 231h318q152 0 212 56t60 183v530q0 125 -61.5 185t-210.5 60h-318v-1014z" />
    <glyph glyph-name="dcaron" unicode="&#x10f;" horiz-adv-x="1198" 
d="M1444 851l-107 46q51 58 98.5 154.5t47.5 188.5h-165v276h322v-223q0 -133 -66 -258.5t-130 -183.5zM443 204q47 -36 151 -36t176 43v659q-78 37 -176 37t-148 -34.5t-50 -113.5v-439q0 -80 47 -116zM551 -23q-214 0 -320.5 90.5t-106.5 256.5v429q0 157 110.5 250.5
t335.5 93.5q96 0 200 -38v457h272v-1516h-184l-29 63q-123 -86 -278 -86z" />
    <glyph glyph-name="Dcroat" unicode="&#x110;" horiz-adv-x="1568" 
d="M509 231h318q152 0 212 56t60 183v530q0 125 -61.5 185t-210.5 60h-318v-397h306v-150h-306v-467zM212 848v629h640q356 0 476 -210q68 -119 68 -306v-453q0 -374 -284 -471q-108 -37 -259 -37h-641v698h-122v150h122z" />
    <glyph glyph-name="dcroat" unicode="&#x111;" horiz-adv-x="1244" 
d="M560 -23q-214 0 -321 90.5t-107 256.5v429q0 157 111 250.5t336 93.5q96 0 200 -38v187h-322v114h322v156h273v-156h174v-114h-174v-1246h-185l-29 63q-123 -86 -278 -86zM452 204q47 -36 151 -36t176 43v659q-78 37 -176 37t-148 -34.5t-50 -113.5v-439q0 -80 47 -116z
" />
    <glyph glyph-name="Emacron" unicode="&#x112;" horiz-adv-x="1294" 
d="M472 1685v157h414v-157h-414zM190 0v1476h967v-224h-671v-392h595v-214h-595v-422h682v-224h-978z" />
    <glyph glyph-name="emacron" unicode="&#x113;" horiz-adv-x="1149" 
d="M374 1281v157h414v-157h-414zM396 651h386v126q0 97 -78 119q-41 12 -124.5 11.5t-133.5 -28.5t-50 -107v-121zM402 -5q-80 17 -144 57q-134 82 -134 284v419q0 162 123 252t335 90q457 0 457 -352v-260h-643v-175q0 -89 44 -116.5t149 -27.5t124 10q45 25 58 60.5
t15 93.5h252q-6 -248 -175 -314q-99 -38 -240 -38.5t-221 17.5z" />
    <glyph glyph-name="Ebreve" unicode="&#x114;" horiz-adv-x="1294" 
d="M679 1685q-106 0 -171 65.5t-65 159.5h124q0 -52 32.5 -82t79.5 -30t79.5 30t32.5 82h124q0 -94 -65 -159.5t-171 -65.5zM190 0v1476h967v-224h-671v-392h595v-214h-595v-422h682v-224h-978z" />
    <glyph glyph-name="ebreve" unicode="&#x115;" horiz-adv-x="1149" 
d="M582 1281q-106 0 -171 65.5t-65 159.5h124q0 -52 32.5 -82t79.5 -30t79.5 30t32.5 82h124q0 -94 -65 -159.5t-171 -65.5zM396 651h386v126q0 97 -78 119q-41 12 -124.5 11.5t-133.5 -28.5t-50 -107v-121zM402 -5q-80 17 -144 57q-134 82 -134 284v419q0 162 123 252
t335 90q457 0 457 -352v-260h-643v-175q0 -89 44 -116.5t149 -27.5t124 10q45 25 58 60.5t15 93.5h252q-6 -248 -175 -314q-99 -38 -240 -38.5t-221 17.5z" />
    <glyph glyph-name="Edotaccent" unicode="&#x116;" horiz-adv-x="1294" 
d="M555 1685v247h248v-247h-248zM190 0v1476h967v-224h-671v-392h595v-214h-595v-422h682v-224h-978z" />
    <glyph glyph-name="edotaccent" unicode="&#x117;" horiz-adv-x="1149" 
d="M457 1281v247h248v-247h-248zM396 651h386v126q0 97 -78 119q-41 12 -124.5 11.5t-133.5 -28.5t-50 -107v-121zM402 -5q-80 17 -144 57q-134 82 -134 284v419q0 162 123 252t335 90q457 0 457 -352v-260h-643v-175q0 -89 44 -116.5t149 -27.5t124 10q45 25 58 60.5
t15 93.5h252q-6 -248 -175 -314q-99 -38 -240 -38.5t-221 17.5z" />
    <glyph glyph-name="Eogonek" unicode="&#x118;" horiz-adv-x="1294" 
d="M794 17q-83 -158 -83 -254q0 -122 176 -122l-13 -141h-12q-336 0 -336 214q0 74 42 156t111 147h115zM190 0v1476h967v-224h-671v-392h595v-214h-595v-422h682v-224h-978z" />
    <glyph glyph-name="eogonek" unicode="&#x119;" horiz-adv-x="1149" 
d="M639 -5q-83 -158 -83 -254q0 -122 176 -122l-13 -141h-12q-336 0 -336 214q0 74 42 156t111 147h115zM396 651h386v126q0 97 -78 119q-41 12 -124.5 11.5t-133.5 -28.5t-50 -107v-121zM402 -5q-80 17 -144 57q-134 82 -134 284v419q0 162 123 252t335 90q457 0 457 -352
v-260h-643v-175q0 -89 44 -116.5t149 -27.5t124 10q45 25 58 60.5t15 93.5h252q-6 -248 -175 -314q-99 -38 -240 -38.5t-221 17.5z" />
    <glyph glyph-name="Ecaron" unicode="&#x11a;" horiz-adv-x="1294" 
d="M592 1685l-222 300h175l128 -175l136 175h180l-234 -300h-163zM190 0v1476h967v-224h-671v-392h595v-214h-595v-422h682v-224h-978z" />
    <glyph glyph-name="ecaron" unicode="&#x11b;" horiz-adv-x="1149" 
d="M494 1281l-222 300h175l128 -175l136 175h180l-234 -300h-163zM396 651h386v126q0 97 -78 119q-41 12 -124.5 11.5t-133.5 -28.5t-50 -107v-121zM402 -5q-80 17 -144 57q-134 82 -134 284v419q0 162 123 252t335 90q457 0 457 -352v-260h-643v-175q0 -89 44 -116.5
t149 -27.5t124 10q45 25 58 60.5t15 93.5h252q-6 -248 -175 -314q-99 -38 -240 -38.5t-221 17.5z" />
    <glyph glyph-name="Gcircumflex" unicode="&#x11c;" horiz-adv-x="1607" 
d="M480 1685l234 300h163l222 -300h-175l-128 175l-136 -175h-180zM975.5 -9.5q-72.5 -16.5 -194.5 -16.5q-121 0 -237 26q-217 48 -300.5 172.5t-83.5 311.5v493q0 305 194 426q157 98 459 98q485 -1 575 -273q30 -92 30 -221v-23l-292 -22v59q0 144 -70 195.5t-245.5 51.5
t-264 -56t-88.5 -200v-558q0 -147 91 -197t264 -50t255.5 50t82.5 197v108h-298v195h566v-757h-157l-47 170q-13 -44 -49.5 -81.5t-77 -59.5t-113 -38.5z" />
    <glyph glyph-name="gcircumflex" unicode="&#x11d;" horiz-adv-x="1211" 
d="M282 1281l234 300h163l222 -300h-175l-128 175l-136 -175h-180zM588 213q133 0 199 48v571q0 24 -57 50q-58 25 -148 25q-186 0 -186 -150v-401q0 -143 192 -143zM574 -441q-237 0 -355 56l56 185q151 -42 278.5 -42t180.5 50.5t53 161.5v118q-94 -56 -266.5 -56
t-284.5 88.5t-112 245.5v385q0 145 94.5 245.5t314.5 100.5q85 0 166.5 -28.5t134.5 -71.5l23 78h202v-1087q0 -429 -485 -429z" />
    <glyph glyph-name="Gbreve" unicode="&#x11e;" horiz-adv-x="1607" 
d="M790 1685q-106 0 -171 65.5t-65 159.5h124q0 -52 32.5 -82t79.5 -30t79.5 30t32.5 82h124q0 -94 -65 -159.5t-171 -65.5zM975.5 -9.5q-72.5 -16.5 -194.5 -16.5q-121 0 -237 26q-217 48 -300.5 172.5t-83.5 311.5v493q0 305 194 426q157 98 459 98q485 -1 575 -273
q30 -92 30 -221v-23l-292 -22v59q0 144 -70 195.5t-245.5 51.5t-264 -56t-88.5 -200v-558q0 -147 91 -197t264 -50t255.5 50t82.5 197v108h-298v195h566v-757h-157l-47 170q-13 -44 -49.5 -81.5t-77 -59.5t-113 -38.5z" />
    <glyph glyph-name="gbreve" unicode="&#x11f;" horiz-adv-x="1211" 
d="M592 1281q-106 0 -171 65.5t-65 159.5h124q0 -52 32.5 -82t79.5 -30t79.5 30t32.5 82h124q0 -94 -65 -159.5t-171 -65.5zM588 213q133 0 199 48v571q0 24 -57 50q-58 25 -148 25q-186 0 -186 -150v-401q0 -143 192 -143zM574 -441q-237 0 -355 56l56 185
q151 -42 278.5 -42t180.5 50.5t53 161.5v118q-94 -56 -266.5 -56t-284.5 88.5t-112 245.5v385q0 145 94.5 245.5t314.5 100.5q85 0 166.5 -28.5t134.5 -71.5l23 78h202v-1087q0 -429 -485 -429z" />
    <glyph glyph-name="Gdotaccent" unicode="&#x120;" horiz-adv-x="1607" 
d="M665 1685v247h248v-247h-248zM975.5 -9.5q-72.5 -16.5 -194.5 -16.5q-121 0 -237 26q-217 48 -300.5 172.5t-83.5 311.5v493q0 305 194 426q157 98 459 98q485 -1 575 -273q30 -92 30 -221v-23l-292 -22v59q0 144 -70 195.5t-245.5 51.5t-264 -56t-88.5 -200v-558
q0 -147 91 -197t264 -50t255.5 50t82.5 197v108h-298v195h566v-757h-157l-47 170q-13 -44 -49.5 -81.5t-77 -59.5t-113 -38.5z" />
    <glyph glyph-name="gdotaccent" unicode="&#x121;" horiz-adv-x="1211" 
d="M467 1281v247h248v-247h-248zM588 213q133 0 199 48v571q0 24 -57 50q-58 25 -148 25q-186 0 -186 -150v-401q0 -143 192 -143zM574 -441q-237 0 -355 56l56 185q151 -42 278.5 -42t180.5 50.5t53 161.5v118q-94 -56 -266.5 -56t-284.5 88.5t-112 245.5v385
q0 145 94.5 245.5t314.5 100.5q85 0 166.5 -28.5t134.5 -71.5l23 78h202v-1087q0 -429 -485 -429z" />
    <glyph glyph-name="Gcommaaccent" unicode="&#x122;" horiz-adv-x="1607" 
d="M755 -875l-107 47q51 58 98.5 154t47.5 188h-165v276h321v-223q0 -133 -65.5 -258t-129.5 -184zM975.5 -9.5q-72.5 -16.5 -194.5 -16.5q-121 0 -237 26q-217 48 -300.5 172.5t-83.5 311.5v493q0 305 194 426q157 98 459 98q485 -1 575 -273q30 -92 30 -221v-23l-292 -22
v59q0 144 -70 195.5t-245.5 51.5t-264 -56t-88.5 -200v-558q0 -147 91 -197t264 -50t255.5 50t82.5 197v108h-298v195h566v-757h-157l-47 170q-13 -44 -49.5 -81.5t-77 -59.5t-113 -38.5z" />
    <glyph glyph-name="gcommaaccent" unicode="&#x123;" horiz-adv-x="1252" 
d="M495 1230v223q0 133 66 259t130 183l107 -46q-50 -59 -98 -155t-48 -188h165v-276h-322zM588 213q133 0 199 48v571q0 24 -57 50q-58 25 -148 25q-186 0 -186 -150v-401q0 -143 192 -143zM574 -441q-237 0 -355 56l56 185q151 -42 278.5 -42t180.5 50.5t53 161.5v118
q-94 -56 -266.5 -56t-284.5 88.5t-112 245.5v385q0 145 94.5 245.5t314.5 100.5q85 0 166.5 -28.5t134.5 -71.5l23 78h202v-1087q0 -429 -485 -429z" />
    <glyph glyph-name="Hcircumflex" unicode="&#x124;" horiz-adv-x="1624" 
d="M502 1685l234 300h163l222 -300h-175l-128 175l-136 -175h-180zM190 0v1476h298v-628h648v628h298v-1476h-298v615h-648v-615h-298z" />
    <glyph glyph-name="hcircumflex" unicode="&#x125;" horiz-adv-x="1254" 
d="M322 1699l234 300h163l222 -300h-175l-128 175l-136 -175h-180zM162 0v1515h272v-545q34 56 129 91.5t227.5 35.5t222 -82.5t89.5 -219.5v-795h-272v756q0 138 -183 138q-82 0 -147.5 -41.5t-65.5 -114.5v-738h-272z" />
    <glyph glyph-name="Hbar" unicode="&#x126;" horiz-adv-x="1664" 
d="M513 1091v-243h646v243h-646zM216 1195v281h297v-281h646v281h297v-281h104v-104h-104v-1091h-297v615h-646v-615h-297v1091h-112v104h112z" />
    <glyph glyph-name="hbar" unicode="&#x127;" horiz-adv-x="1289" 
d="M178 0v1221h-133v143h133v151h273v-151h324v-143h-324v-261q35 58 128 97.5t202 39.5q154 0 246.5 -83t92.5 -219v-795h-273v769q0 138 -183 138q-83 0 -148 -38t-65 -110v-759h-273z" />
    <glyph glyph-name="Itilde" unicode="&#x128;" horiz-adv-x="1148" 
d="M463 1685q-200 0 -200 260h118q0 -86 63 -86q23 0 62 35q76 67 178 67q200 0 200 -260h-118q0 87 -56 87q-25 0 -67 -36q-80 -68 -180 -67zM158 0v222h269v1033h-269v221h832v-221h-267v-1033h267v-222h-832z" />
    <glyph glyph-name="itilde" unicode="&#x129;" horiz-adv-x="598" 
d="M191 1281q-200 0 -200 260h118q0 -86 63 -86q23 0 62 35q76 67 178 67q200 0 200 -260h-118q0 87 -56 87q-25 0 -67 -36q-80 -68 -180 -67zM166 0v1074h272v-1074h-272z" />
    <glyph glyph-name="Imacron" unicode="&#x12a;" horiz-adv-x="1148" 
d="M367 1685v157h414v-157h-414zM158 0v222h269v1033h-269v221h832v-221h-267v-1033h267v-222h-832z" />
    <glyph glyph-name="imacron" unicode="&#x12b;" horiz-adv-x="598" 
d="M95 1281v157h414v-157h-414zM166 0v1074h272v-1074h-272z" />
    <glyph glyph-name="Ibreve" unicode="&#x12c;" horiz-adv-x="1148" 
d="M574 1685q-106 0 -171 65.5t-65 159.5h124q0 -52 32.5 -82t79.5 -30t79.5 30t32.5 82h124q0 -94 -65 -159.5t-171 -65.5zM158 0v222h269v1033h-269v221h832v-221h-267v-1033h267v-222h-832z" />
    <glyph glyph-name="ibreve" unicode="&#x12d;" horiz-adv-x="598" 
d="M302 1281q-106 0 -171 65.5t-65 159.5h124q0 -52 32.5 -82t79.5 -30t79.5 30t32.5 82h124q0 -94 -65 -159.5t-171 -65.5zM166 0v1074h272v-1074h-272z" />
    <glyph glyph-name="Iogonek" unicode="&#x12e;" horiz-adv-x="1148" 
d="M631 17q-83 -158 -83 -254q0 -122 176 -122l-13 -141h-12q-336 0 -336 214q0 74 42 156t111 147h115zM158 0v222h269v1033h-269v221h832v-221h-267v-1033h267v-222h-832z" />
    <glyph glyph-name="iogonek" unicode="&#x12f;" horiz-adv-x="598" 
d="M359 17q-83 -158 -83 -254q0 -122 176 -122l-13 -141h-12q-336 0 -336 214q0 74 42 156t111 147h115zM166 1227v241h272v-241h-272zM166 0v1074h272v-1074h-272z" />
    <glyph glyph-name="Idotaccent" unicode="&#x130;" horiz-adv-x="1148" 
d="M450 1685v247h248v-247h-248zM158 0v222h269v1033h-269v221h832v-221h-267v-1033h267v-222h-832z" />
    <glyph glyph-name="dotlessi" unicode="&#x131;" horiz-adv-x="598" 
d="M166 0v1074h272v-1074h-272z" />
    <glyph glyph-name="IJ" unicode="&#x132;" horiz-adv-x="2370" 
d="M2043 92.5q-141 -117.5 -385 -117.5t-440 92l69 220q73 -34 170.5 -56t175.5 -22q132 0 193 64t61 168v809h-508v226h805v-1054q0 -212 -141 -329.5zM158 0v222h269v1033h-269v221h832v-221h-267v-1033h267v-222h-832z" />
    <glyph glyph-name="ij" unicode="&#x133;" horiz-adv-x="1236" 
d="M802 1227v241h272v-241h-272zM601 -362l-13 194h44q172 0 172 178v1064h272v-1077q0 -168 -91 -263.5t-283 -95.5h-101zM166 1227v241h272v-241h-272zM166 0v1074h272v-1074h-272z" />
    <glyph glyph-name="Jcircumflex" unicode="&#x134;" horiz-adv-x="1222" 
d="M374 1685l234 300h163l222 -300h-175l-128 175l-136 -175h-180zM895 92.5q-141 -117.5 -385 -117.5t-440 92l69 220q73 -34 170.5 -56t175.5 -22q132 0 193 64t61 168v809h-508v226h805v-1054q0 -212 -141 -329.5z" />
    <glyph glyph-name="jcircumflex" unicode="&#x135;" horiz-adv-x="650" 
d="M22 1281l234 300h163l222 -300h-175l-128 175l-136 -175h-180zM27 -135q171 0 171 178v1031h273v-1044q0 -168 -91 -263.5t-283 -95.5h-109l-6 194h45z" />
    <glyph glyph-name="Kcommaaccent" unicode="&#x136;" horiz-adv-x="1448" 
d="M774 -849l-107 47q51 58 98.5 154t47.5 188h-165v276h321v-223q0 -133 -65.5 -258t-129.5 -184zM190 0v1476h297v-716l574 716h328l-517 -672l554 -804h-335l-465 679l-139 -138v-541h-297z" />
    <glyph glyph-name="kcommaaccent" unicode="&#x137;" horiz-adv-x="1199" 
d="M640 -849l-107 47q51 58 98.5 154t47.5 188h-165v276h321v-223q0 -133 -65.5 -258t-129.5 -184zM162 0v1516h272v-914l425 472h310l-404 -463l422 -611h-297l-336 497l-120 -123v-374h-272z" />
    <glyph glyph-name="kgreenlandic" unicode="&#x138;" horiz-adv-x="1213" 
d="M171 0v1074h273v-472q27 28 201.5 236.5t199.5 235.5h324l-398 -469l419 -605h-326l-324 483l-96 -98v-385h-273z" />
    <glyph glyph-name="Lacute" unicode="&#x139;" horiz-adv-x="1172" 
d="M572 1685l114 365h268l-233 -365h-149zM190 0v1476h297v-1244h617v-232h-914z" />
    <glyph glyph-name="lacute" unicode="&#x13a;" horiz-adv-x="708" 
d="M338 1699l114 365h268l-233 -365h-149zM527 -12q-185 0 -274 84t-89 281v1162h272v-1158q0 -90 42 -128.5t150 -38.5h34l-21 -202h-114z" />
    <glyph glyph-name="Lcommaaccent" unicode="&#x13b;" horiz-adv-x="1172" 
d="M612 -849l-107 47q51 58 98.5 154t47.5 188h-165v276h321v-223q0 -133 -65.5 -258t-129.5 -184zM190 0v1476h297v-1244h617v-232h-914z" />
    <glyph glyph-name="lcommaaccent" unicode="&#x13c;" horiz-adv-x="708" 
d="M378 -861l-107 47q51 58 98.5 154t47.5 188h-165v276h321v-223q0 -133 -65.5 -258t-129.5 -184zM527 -12q-185 0 -274 84t-89 281v1162h272v-1158q0 -90 42 -128.5t150 -38.5h34l-21 -202h-114z" />
    <glyph glyph-name="Lcaron" unicode="&#x13d;" horiz-adv-x="1172" 
d="M979 836l-107 46q51 58 98.5 154.5t47.5 188.5h-165v276h322v-223q0 -133 -66 -258.5t-130 -183.5zM190 0v1476h297v-1244h617v-232h-914z" />
    <glyph glyph-name="lcaron" unicode="&#x13e;" horiz-adv-x="1045" 
d="M873 850l-107 46q51 58 98.5 154.5t47.5 188.5h-165v276h322v-223q0 -133 -66 -258.5t-130 -183.5zM527 -12q-185 0 -274 84t-89 281v1162h272v-1158q0 -90 42 -128.5t150 -38.5h34l-21 -202h-114z" />
    <glyph glyph-name="Ldot" unicode="&#x13f;" horiz-adv-x="1172" 
d="M730 628v245h248v-245h-248zM190 0v1476h297v-1244h617v-232h-914z" />
    <glyph glyph-name="ldot" unicode="&#x140;" horiz-adv-x="1220" 
d="M840 780v245h248v-245h-248zM527 -12q-185 0 -274 84t-89 281v1162h272v-1158q0 -90 42 -128.5t150 -38.5h34l-21 -202h-114z" />
    <glyph glyph-name="Lslash" unicode="&#x141;" horiz-adv-x="1210" 
d="M212 889v588h297v-483l284 100v-143l-284 -100v-619h633v-232h-930v746l-188 -66v143z" />
    <glyph glyph-name="lslash" unicode="&#x142;" horiz-adv-x="577" 
d="M493 -12q-183 0 -267 83.5t-84 281.5v383l-137 -56v143l137 56v636h272v-524l165 68v-144l-165 -68v-490q0 -92 37 -129.5t143 -37.5h34l-21 -202h-114z" />
    <glyph glyph-name="Nacute" unicode="&#x143;" horiz-adv-x="1634" 
d="M742 1685l114 365h268l-233 -365h-149zM190 0v1476h223l767 -1012v1012h264v-1476h-223l-764 996v-996h-267z" />
    <glyph glyph-name="nacute" unicode="&#x144;" horiz-adv-x="1254" 
d="M556 1283l114 365h268l-233 -365h-149zM830 755q0 139 -189 139q-81 0 -145 -42.5t-64 -116.5v-735h-272v1074h272v-95q137 120 320 120t266.5 -94t83.5 -235v-770h-272v755z" />
    <glyph glyph-name="Ncommaaccent" unicode="&#x145;" horiz-adv-x="1634" 
d="M782 -849l-107 47q51 58 98.5 154t47.5 188h-165v276h321v-223q0 -133 -65.5 -258t-129.5 -184zM190 0v1476h223l767 -1012v1012h264v-1476h-223l-764 996v-996h-267z" />
    <glyph glyph-name="ncommaaccent" unicode="&#x146;" horiz-adv-x="1254" 
d="M596 -849l-107 47q51 58 98.5 154t47.5 188h-165v276h321v-223q0 -133 -65.5 -258t-129.5 -184zM830 755q0 139 -189 139q-81 0 -145 -42.5t-64 -116.5v-735h-272v1074h272v-95q137 120 320 120t266.5 -94t83.5 -235v-770h-272v755z" />
    <glyph glyph-name="Ncaron" unicode="&#x147;" horiz-adv-x="1634" 
d="M730 1685l-222 300h175l128 -175l136 175h180l-234 -300h-163zM190 0v1476h223l767 -1012v1012h264v-1476h-223l-764 996v-996h-267z" />
    <glyph glyph-name="ncaron" unicode="&#x148;" horiz-adv-x="1254" 
d="M544 1283l-222 300h175l128 -175l136 175h180l-234 -300h-163zM830 755q0 139 -189 139q-81 0 -145 -42.5t-64 -116.5v-735h-272v1074h272v-95q137 120 320 120t266.5 -94t83.5 -235v-770h-272v755z" />
    <glyph glyph-name="napostrophe" unicode="&#x149;" horiz-adv-x="1290" 
d="M345 1231l-107 47q50 58 98 154t48 188h-165v276h321v-223q0 -133 -66 -258t-129 -184zM830 755q0 139 -189 139q-81 0 -145 -42.5t-64 -116.5v-735h-272v1074h272v-95q137 120 320 120t266.5 -94t83.5 -235v-770h-272v755z" />
    <glyph glyph-name="Eng" unicode="&#x14a;" horiz-adv-x="1640" 
d="M901 -382l-28 190q202 17 246.5 64t51 111t6.5 134v36l-719 843v-996h-268v1477h225l768 -917v917h267v-1315q0 -150 -23.5 -247t-85 -166.5t-168.5 -100t-272 -30.5z" />
    <glyph glyph-name="eng" unicode="&#x14b;" horiz-adv-x="1254" 
d="M553 -365l-28 190q209 21 245 65q47 59 53 130.5t6 151.5v596q0 139 -187 139q-84 0 -146.5 -38t-62.5 -111v-758h-273v1074h273v-126q36 63 125 106t198 43q155 0 250.5 -83.5t95.5 -219.5v-615q0 -150 -23.5 -247t-85 -166.5t-168.5 -100t-272 -30.5z" />
    <glyph glyph-name="Omacron" unicode="&#x14c;" horiz-adv-x="1606" 
d="M596 1685v157h414v-157h-414zM810 -26q-434 0 -572 216q-78 120 -78 311v462q0 311 193 435q159 102 461 103q421 0 556 -230q76 -129 76 -323v-431q0 -302 -190 -436q-152 -107 -446 -107zM547 265q89 -58 265.5 -58t256 57.5t79.5 203.5v535q0 144 -81 204.5
t-254.5 60.5t-264 -60t-90.5 -205v-535q0 -145 89 -203z" />
    <glyph glyph-name="omacron" unicode="&#x14d;" horiz-adv-x="1180" 
d="M383 1281v157h414v-157h-414zM590 -23q-466 0 -466 348v423q0 165 122.5 257t343 92t343.5 -92.5t123 -256.5v-423q0 -259 -246 -324q-92 -24 -220 -24zM590 166q194 0 194 147v447q0 79 -49 113t-145 34q-194 0 -194 -147v-447q0 -79 48.5 -113t145.5 -34z" />
    <glyph glyph-name="Obreve" unicode="&#x14e;" horiz-adv-x="1606" 
d="M803 1685q-106 0 -171 65.5t-65 159.5h124q0 -52 32.5 -82t79.5 -30t79.5 30t32.5 82h124q0 -94 -65 -159.5t-171 -65.5zM810 -26q-434 0 -572 216q-78 120 -78 311v462q0 311 193 435q159 102 461 103q421 0 556 -230q76 -129 76 -323v-431q0 -302 -190 -436
q-152 -107 -446 -107zM547 265q89 -58 265.5 -58t256 57.5t79.5 203.5v535q0 144 -81 204.5t-254.5 60.5t-264 -60t-90.5 -205v-535q0 -145 89 -203z" />
    <glyph glyph-name="obreve" unicode="&#x14f;" horiz-adv-x="1180" 
d="M590 1281q-106 0 -171 65.5t-65 159.5h124q0 -52 32.5 -82t79.5 -30t79.5 30t32.5 82h124q0 -94 -65 -159.5t-171 -65.5zM590 -23q-466 0 -466 348v423q0 165 122.5 257t343 92t343.5 -92.5t123 -256.5v-423q0 -259 -246 -324q-92 -24 -220 -24zM590 166q194 0 194 147
v447q0 79 -49 113t-145 34q-194 0 -194 -147v-447q0 -79 48.5 -113t145.5 -34z" />
    <glyph glyph-name="Ohungarumlaut" unicode="&#x150;" horiz-adv-x="1606" 
d="M924 1685l139 431h289l-266 -431h-162zM520 1685l111 431h286l-242 -431h-155zM810 -26q-434 0 -572 216q-78 120 -78 311v462q0 311 193 435q159 102 461 103q421 0 556 -230q76 -129 76 -323v-431q0 -302 -190 -436q-152 -107 -446 -107zM547 265q89 -58 265.5 -58
t256 57.5t79.5 203.5v535q0 144 -81 204.5t-254.5 60.5t-264 -60t-90.5 -205v-535q0 -145 89 -203z" />
    <glyph glyph-name="ohungarumlaut" unicode="&#x151;" horiz-adv-x="1180" 
d="M711 1281l139 431h289l-266 -431h-162zM307 1281l111 431h286l-242 -431h-155zM590 -23q-466 0 -466 348v423q0 165 122.5 257t343 92t343.5 -92.5t123 -256.5v-423q0 -259 -246 -324q-92 -24 -220 -24zM590 166q194 0 194 147v447q0 79 -49 113t-145 34
q-194 0 -194 -147v-447q0 -79 48.5 -113t145.5 -34z" />
    <glyph glyph-name="OE" unicode="&#x152;" horiz-adv-x="1633" 
d="M714 191h172v1088h-173q-283 0 -283 -257v-578q0 -253 284 -253zM717 0q-377 0 -491 201q-66 117 -66 305v452q0 297 165 419q134 99 392 99h788v-189h-349v-429h266v-193h-266v-475h351v-190h-790z" />
    <glyph glyph-name="oe" unicode="&#x153;" horiz-adv-x="1780" 
d="M1042 655h371v110q0 83 -47 112.5t-137.5 29.5t-138.5 -33t-48 -114v-105zM584 166q185 0 185 148v448q0 78 -45 111.5t-138 33.5t-141 -34t-48 -111v-448q0 -80 46 -114t141 -34zM905 90q-116 -113 -340 -113t-332.5 90t-108.5 259v423q0 164 124.5 256t333 92
t321.5 -120q111 120 317 120q450 0 450 -352v-233h-628v-191q0 -84 47 -119.5t118 -35.5t101.5 6.5t56.5 25.5q49 36 51 159h254q-6 -264 -168 -336q-99 -44 -285 -44t-312 113z" />
    <glyph glyph-name="Racute" unicode="&#x154;" horiz-adv-x="1484" 
d="M714 1685l114 365h268l-233 -365h-149zM487 795h365q105 0 144.5 59.5t39.5 180.5q0 230 -172 230h-377v-470zM190 0v1476h637q286 0 389.5 -116t103.5 -314.5t-57.5 -289t-159.5 -130.5l285 -626h-308l-259 583h-334v-583h-297z" />
    <glyph glyph-name="racute" unicode="&#x155;" horiz-adv-x="831" 
d="M411 1281l114 365h268l-233 -365h-149zM160 0v1074h272v-128q24 46 100 82q131 63 253 63q14 0 26 -1l-6 -231q-179 -9 -297 -67q-66 -32 -76 -72v-720h-272z" />
    <glyph glyph-name="Rcommaaccent" unicode="&#x156;" horiz-adv-x="1484" 
d="M754 -849l-107 47q51 58 98.5 154t47.5 188h-165v276h321v-223q0 -133 -65.5 -258t-129.5 -184zM487 795h365q105 0 144.5 59.5t39.5 180.5q0 230 -172 230h-377v-470zM190 0v1476h637q286 0 389.5 -116t103.5 -314.5t-57.5 -289t-159.5 -130.5l285 -626h-308l-259 583
h-334v-583h-297z" />
    <glyph glyph-name="rcommaaccent" unicode="&#x157;" horiz-adv-x="831" 
d="M451 -849l-107 47q51 58 98.5 154t47.5 188h-165v276h321v-223q0 -133 -65.5 -258t-129.5 -184zM160 0v1074h272v-128q24 46 100 82q131 63 253 63q14 0 26 -1l-6 -231q-179 -9 -297 -67q-66 -32 -76 -72v-720h-272z" />
    <glyph glyph-name="Rcaron" unicode="&#x158;" horiz-adv-x="1484" 
d="M702 1685l-222 300h175l128 -175l136 175h180l-234 -300h-163zM487 795h365q105 0 144.5 59.5t39.5 180.5q0 230 -172 230h-377v-470zM190 0v1476h637q286 0 389.5 -116t103.5 -314.5t-57.5 -289t-159.5 -130.5l285 -626h-308l-259 583h-334v-583h-297z" />
    <glyph glyph-name="rcaron" unicode="&#x159;" horiz-adv-x="831" 
d="M398 1281l-222 300h175l128 -175l136 175h180l-234 -300h-163zM160 0v1074h272v-128q24 46 100 82q131 63 253 63q14 0 26 -1l-6 -231q-179 -9 -297 -67q-66 -32 -76 -72v-720h-272z" />
    <glyph glyph-name="Sacute" unicode="&#x15a;" horiz-adv-x="1281" 
d="M570 1685l114 365h268l-233 -365h-149zM674 -26q-137 0 -290 36t-264 98l102 217q222 -118 459 -118q119 0 168 49t49 147q0 19 -4 57q-9 90 -200 147l-252 74q-116 34 -186 97.5t-95 139t-25 176.5q0 203 144.5 305t368.5 102q296 0 494 -115l-84 -209q-193 91 -384 91
q-240 0 -247 -147v-15q0 -75 37.5 -117t153.5 -77l251 -75q152 -46 225.5 -145t73.5 -281.5t-116.5 -309.5t-378.5 -127z" />
    <glyph glyph-name="sacute" unicode="&#x15b;" horiz-adv-x="994" 
d="M436 1281l114 365h268l-233 -365h-149zM527 -23q-254 0 -419 84l55 185q188 -80 354 -80q127 0 144 113q2 14 2 26q0 81 -91 110l-236 74q-121 38 -171.5 114t-50.5 185v8q2 301 412 301q202 0 362 -91l-64 -169q-51 27 -138.5 48.5t-164.5 21.5t-112 -27.5t-35 -94
t74 -89.5l222 -70q133 -42 187.5 -118t54.5 -212t-100 -227.5t-285 -91.5z" />
    <glyph glyph-name="Scircumflex" unicode="&#x15c;" horiz-adv-x="1281" 
d="M335 1685l234 300h163l222 -300h-175l-128 175l-136 -175h-180zM674 -26q-137 0 -290 36t-264 98l102 217q222 -118 459 -118q119 0 168 49t49 147q0 19 -4 57q-9 90 -200 147l-252 74q-116 34 -186 97.5t-95 139t-25 176.5q0 203 144.5 305t368.5 102q296 0 494 -115
l-84 -209q-193 91 -384 91q-240 0 -247 -147v-15q0 -75 37.5 -117t153.5 -77l251 -75q152 -46 225.5 -145t73.5 -281.5t-116.5 -309.5t-378.5 -127z" />
    <glyph glyph-name="scircumflex" unicode="&#x15d;" horiz-adv-x="994" 
d="M200 1281l234 300h163l222 -300h-175l-128 175l-136 -175h-180zM527 -23q-254 0 -419 84l55 185q188 -80 354 -80q127 0 144 113q2 14 2 26q0 81 -91 110l-236 74q-121 38 -171.5 114t-50.5 185v8q2 301 412 301q202 0 362 -91l-64 -169q-51 27 -138.5 48.5t-164.5 21.5
t-112 -27.5t-35 -94t74 -89.5l222 -70q133 -42 187.5 -118t54.5 -212t-100 -227.5t-285 -91.5z" />
    <glyph glyph-name="Scedilla" unicode="&#x15e;" horiz-adv-x="1281" 
d="M665 -504q-50 0 -95 9v117q34 -7 78 -7t74 23.5t30 65.5t-38 77t-107 37v172h76l6 -101q105 -19 163 -78.5t58 -133.5t-64 -127.5t-181 -53.5zM674 -26q-137 0 -290 36t-264 98l102 217q222 -118 459 -118q119 0 168 49t49 147q0 19 -4 57q-9 90 -200 147l-252 74
q-116 34 -186 97.5t-95 139t-25 176.5q0 203 144.5 305t368.5 102q296 0 494 -115l-84 -209q-193 91 -384 91q-240 0 -247 -147v-15q0 -75 37.5 -117t153.5 -77l251 -75q152 -46 225.5 -145t73.5 -281.5t-116.5 -309.5t-378.5 -127z" />
    <glyph glyph-name="scedilla" unicode="&#x15f;" horiz-adv-x="994" 
d="M530 -501q-50 0 -95 9v117q34 -7 78 -7t74 23.5t30 65.5t-38 77t-107 37v172h76l6 -101q105 -19 163 -78.5t58 -133.5t-64 -127.5t-181 -53.5zM527 -23q-254 0 -419 84l55 185q188 -80 354 -80q127 0 144 113q2 14 2 26q0 81 -91 110l-236 74q-121 38 -171.5 114
t-50.5 185v8q2 301 412 301q202 0 362 -91l-64 -169q-51 27 -138.5 48.5t-164.5 21.5t-112 -27.5t-35 -94t74 -89.5l222 -70q133 -42 187.5 -118t54.5 -212t-100 -227.5t-285 -91.5z" />
    <glyph glyph-name="Scaron" unicode="&#x160;" horiz-adv-x="1281" 
d="M557 1685l-222 300h175l128 -175l136 175h180l-234 -300h-163zM674 -26q-137 0 -290 36t-264 98l102 217q222 -118 459 -118q119 0 168 49t49 147q0 19 -4 57q-9 90 -200 147l-252 74q-116 34 -186 97.5t-95 139t-25 176.5q0 203 144.5 305t368.5 102q296 0 494 -115
l-84 -209q-193 91 -384 91q-240 0 -247 -147v-15q0 -75 37.5 -117t153.5 -77l251 -75q152 -46 225.5 -145t73.5 -281.5t-116.5 -309.5t-378.5 -127z" />
    <glyph glyph-name="scaron" unicode="&#x161;" horiz-adv-x="994" 
d="M422 1281l-222 300h175l128 -175l136 175h180l-234 -300h-163zM527 -23q-254 0 -419 84l55 185q188 -80 354 -80q127 0 144 113q2 14 2 26q0 81 -91 110l-236 74q-121 38 -171.5 114t-50.5 185v8q2 301 412 301q202 0 362 -91l-64 -169q-51 27 -138.5 48.5t-164.5 21.5
t-112 -27.5t-35 -94t74 -89.5l222 -70q133 -42 187.5 -118t54.5 -212t-100 -227.5t-285 -91.5z" />
    <glyph glyph-name="Tcommaaccent" unicode="&#x162;" horiz-adv-x="1194" 
d="M617 -478q-50 0 -95 9v117q34 -7 78 -7t74 23.5t30 65.5t-38 77t-107 37v172h76l6 -101q105 -19 163 -78.5t58 -133.5t-64 -127.5t-181 -53.5zM449 0v1250h-411v226h1118v-226h-411v-1250h-296z" />
    <glyph glyph-name="tcommaaccent" unicode="&#x163;" horiz-adv-x="813" 
d="M423 -490q-50 0 -95 9v117q34 -7 78 -7t74 23.5t30 65.5t-38 77t-107 37v172h76l6 -101q105 -19 163 -78.5t58 -133.5t-64 -127.5t-181 -53.5zM664 -12q-245 0 -351 74t-106 279v560h-143v173h151l25 345h239v-345h255v-173h-255v-541q0 -100 47.5 -135t182.5 -35h32
l-10 -202h-67z" />
    <glyph glyph-name="Tcaron" unicode="&#x164;" horiz-adv-x="1194" 
d="M510 1685l-222 300h175l128 -175l136 175h180l-234 -300h-163zM449 0v1250h-411v226h1118v-226h-411v-1250h-296z" />
    <glyph glyph-name="tcaron" unicode="&#x165;" horiz-adv-x="813" 
d="M1143 754l-107 46q51 58 98.5 154.5t47.5 188.5h-165v276h322v-223q0 -133 -66 -258.5t-130 -183.5zM664 -12q-245 0 -351 74t-106 279v560h-143v173h151l25 345h239v-345h255v-173h-255v-541q0 -100 47.5 -135t182.5 -35h32l-10 -202h-67z" />
    <glyph glyph-name="Tbar" unicode="&#x166;" horiz-adv-x="1210" 
d="M457 817v433h-401v227h1098v-227h-401v-433h206v-129h-206v-688h-296v688h-214v129h214z" />
    <glyph glyph-name="tbar" unicode="&#x167;" horiz-adv-x="870" 
d="M676 -12q-126 0 -207.5 16t-137.5 57t-79.5 108.5t-23.5 171.5v219h-170v129h170v212h-142v173h150l26 345h239v-345h255v-173h-255v-212h273v-129h-273v-200q0 -99 49 -134.5t184 -35.5h32l-20 -202h-70z" />
    <glyph glyph-name="Utilde" unicode="&#x168;" horiz-adv-x="1574" 
d="M677 1685q-200 0 -200 260h118q0 -86 63 -86q23 0 62 35q76 67 178 67q200 0 200 -260h-118q0 87 -56 87q-25 0 -67 -36q-80 -68 -180 -67zM794 -26q-416 0 -545 198q-73 112 -73 296v1009h297v-1022q0 -139 79.5 -193.5t242.5 -54.5t234.5 54t71.5 194v1022h297v-997
q0 -294 -174 -410q-146 -96 -430 -96z" />
    <glyph glyph-name="utilde" unicode="&#x169;" horiz-adv-x="1247" 
d="M511 1281q-200 0 -200 260h118q0 -86 63 -86q23 0 62 35q76 67 178 67q200 0 200 -260h-118q0 87 -56 87q-25 0 -67 -36q-80 -68 -180 -67zM827 118q-32 -66 -124 -103.5t-204 -37.5q-161 0 -254 89t-93 225v783h272v-739q0 -77 54.5 -115t133.5 -38t143 42.5t64 125.5
v724h272v-1074h-256z" />
    <glyph glyph-name="Umacron" unicode="&#x16a;" horiz-adv-x="1574" 
d="M580 1685v157h414v-157h-414zM794 -26q-416 0 -545 198q-73 112 -73 296v1009h297v-1022q0 -139 79.5 -193.5t242.5 -54.5t234.5 54t71.5 194v1022h297v-997q0 -294 -174 -410q-146 -96 -430 -96z" />
    <glyph glyph-name="umacron" unicode="&#x16b;" horiz-adv-x="1247" 
d="M414 1281v157h414v-157h-414zM827 118q-32 -66 -124 -103.5t-204 -37.5q-161 0 -254 89t-93 225v783h272v-739q0 -77 54.5 -115t133.5 -38t143 42.5t64 125.5v724h272v-1074h-256z" />
    <glyph glyph-name="Ubreve" unicode="&#x16c;" horiz-adv-x="1574" 
d="M787 1685q-106 0 -171 65.5t-65 159.5h124q0 -52 32.5 -82t79.5 -30t79.5 30t32.5 82h124q0 -94 -65 -159.5t-171 -65.5zM794 -26q-416 0 -545 198q-73 112 -73 296v1009h297v-1022q0 -139 79.5 -193.5t242.5 -54.5t234.5 54t71.5 194v1022h297v-997q0 -294 -174 -410
q-146 -96 -430 -96z" />
    <glyph glyph-name="ubreve" unicode="&#x16d;" horiz-adv-x="1247" 
d="M622 1281q-106 0 -171 65.5t-65 159.5h124q0 -52 32.5 -82t79.5 -30t79.5 30t32.5 82h124q0 -94 -65 -159.5t-171 -65.5zM827 118q-32 -66 -124 -103.5t-204 -37.5q-161 0 -254 89t-93 225v783h272v-739q0 -77 54.5 -115t133.5 -38t143 42.5t64 125.5v724h272v-1074h-256
z" />
    <glyph glyph-name="Uring" unicode="&#x16e;" horiz-adv-x="1574" 
d="M787 1685q-108 0 -169 56t-61 157t61 156.5t169 55.5t169 -55.5t61 -156.5t-61 -157t-169 -56zM787 1775q118 0 118 123.5t-118 123.5t-118 -123.5t118 -123.5zM794 -26q-416 0 -545 198q-73 112 -73 296v1009h297v-1022q0 -139 79.5 -193.5t242.5 -54.5t234.5 54
t71.5 194v1022h297v-997q0 -294 -174 -410q-146 -96 -430 -96z" />
    <glyph glyph-name="uring" unicode="&#x16f;" horiz-adv-x="1247" 
d="M622 1281q-108 0 -169 56t-61 157t61 156.5t169 55.5t169 -55.5t61 -156.5t-61 -157t-169 -56zM622 1371q118 0 118 123.5t-118 123.5t-118 -123.5t118 -123.5zM827 118q-32 -66 -124 -103.5t-204 -37.5q-161 0 -254 89t-93 225v783h272v-739q0 -77 54.5 -115t133.5 -38
t143 42.5t64 125.5v724h272v-1074h-256z" />
    <glyph glyph-name="Uhungarumlaut" unicode="&#x170;" horiz-adv-x="1574" 
d="M908 1685l139 431h289l-266 -431h-162zM504 1685l111 431h286l-242 -431h-155zM794 -26q-416 0 -545 198q-73 112 -73 296v1009h297v-1022q0 -139 79.5 -193.5t242.5 -54.5t234.5 54t71.5 194v1022h297v-997q0 -294 -174 -410q-146 -96 -430 -96z" />
    <glyph glyph-name="uhungarumlaut" unicode="&#x171;" horiz-adv-x="1247" 
d="M742 1281l139 431h289l-266 -431h-162zM338 1281l111 431h286l-242 -431h-155zM827 118q-32 -66 -124 -103.5t-204 -37.5q-161 0 -254 89t-93 225v783h272v-739q0 -77 54.5 -115t133.5 -38t143 42.5t64 125.5v724h272v-1074h-256z" />
    <glyph glyph-name="Uogonek" unicode="&#x172;" horiz-adv-x="1574" 
d="M845 -9q-83 -158 -83 -254q0 -122 176 -122l-13 -141h-12q-336 0 -336 214q0 74 42 156t111 147h115zM794 -26q-416 0 -545 198q-73 112 -73 296v1009h297v-1022q0 -139 79.5 -193.5t242.5 -54.5t234.5 54t71.5 194v1022h297v-997q0 -294 -174 -410q-146 -96 -430 -96z
" />
    <glyph glyph-name="uogonek" unicode="&#x173;" horiz-adv-x="1247" 
d="M737 -6q-83 -158 -83 -254q0 -122 176 -122l-13 -141h-12q-336 0 -336 214q0 74 42 156t111 147h115zM827 118q-32 -66 -124 -103.5t-204 -37.5q-161 0 -254 89t-93 225v783h272v-739q0 -77 54.5 -115t133.5 -38t143 42.5t64 125.5v724h272v-1074h-256z" />
    <glyph glyph-name="Wcircumflex" unicode="&#x174;" horiz-adv-x="1954" 
d="M668 1685l234 300h163l222 -300h-175l-128 175l-136 -175h-180zM423 0l-383 1476h288l255 -1021l259 1021h251l296 -1010l240 1010h285l-382 -1476h-249l-310 1053l-284 -1053h-266z" />
    <glyph glyph-name="wcircumflex" unicode="&#x175;" horiz-adv-x="1648" 
d="M514 1281l234 300h163l222 -300h-175l-128 175l-136 -175h-180zM343 0l-297 1074h254l192 -770l225 770h221l232 -779l179 779h253l-286 -1074h-266l-220 741l-229 -741h-258z" />
    <glyph glyph-name="Ycircumflex" unicode="&#x176;" horiz-adv-x="1304" 
d="M342 1685l234 300h163l222 -300h-175l-128 175l-136 -175h-180zM509 0v567l-509 909h313l346 -617l345 617h300l-499 -909v-567h-296z" />
    <glyph glyph-name="ycircumflex" unicode="&#x177;" horiz-adv-x="1083" 
d="M240 1281l234 300h163l222 -300h-175l-128 175l-136 -175h-180zM148 -485l-20 225q143 28 208.5 109.5t100.5 186.5l-404 1038h262l279 -721l223 721h270l-326 -934q-84 -241 -153 -346.5t-128 -153.5q-126 -102 -312 -125z" />
    <glyph glyph-name="Ydieresis" unicode="&#x178;" horiz-adv-x="1304" 
d="M774 1685v233h265v-233h-265zM265 1685v233h264v-233h-264zM509 0v567l-509 909h313l346 -617l345 617h300l-499 -909v-567h-296z" />
    <glyph glyph-name="Zacute" unicode="&#x179;" horiz-adv-x="1184" 
d="M540 1685l114 365h268l-233 -365h-149zM126 0v177l620 1081h-592v218h936v-179l-618 -1087h630v-210h-976z" />
    <glyph glyph-name="zacute" unicode="&#x17a;" horiz-adv-x="906" 
d="M386 1281l114 365h268l-233 -365h-149zM104 0v167l422 721h-412v186h704v-164l-419 -720h414v-190h-709z" />
    <glyph glyph-name="Zdotaccent" unicode="&#x17b;" horiz-adv-x="1184" 
d="M490 1685v247h248v-247h-248zM126 0v177l620 1081h-592v218h936v-179l-618 -1087h630v-210h-976z" />
    <glyph glyph-name="zdotaccent" unicode="&#x17c;" horiz-adv-x="906" 
d="M337 1281v247h248v-247h-248zM104 0v167l422 721h-412v186h704v-164l-419 -720h414v-190h-709z" />
    <glyph glyph-name="Zcaron" unicode="&#x17d;" horiz-adv-x="1184" 
d="M526 1685l-222 300h175l128 -175l136 175h180l-234 -300h-163zM126 0v177l620 1081h-592v218h936v-179l-618 -1087h630v-210h-976z" />
    <glyph glyph-name="zcaron" unicode="&#x17e;" horiz-adv-x="906" 
d="M374 1281l-222 300h175l128 -175l136 175h180l-234 -300h-163zM104 0v167l422 721h-412v186h704v-164l-419 -720h414v-190h-709z" />
    <glyph glyph-name="florin" unicode="&#x192;" 
d="M783 1285l-58 6q-93 0 -107 -86q-4 -22 -3 -54v-139h142v-169h-142v-742q0 -186 -61.5 -246t-187.5 -60q-56 0 -125 9v147q42 -7 65 -7q62 0 83 33.5t21 96.5v769h-117v169h117v113q0 166 40 226.5t97.5 74.5t111 14t124.5 -8v-147z" />
    <glyph glyph-name="uni01C4" unicode="&#x1c4;" horiz-adv-x="2718" 
d="M2060 1685l-222 300h175l128 -175l136 175h180l-234 -300h-163zM1660 0v177l620 1081h-592v218h936v-179l-618 -1087h630v-210h-976zM190 0v1476h640q354 0 476 -210q68 -118 68 -305v-453q0 -374 -284 -471q-108 -37 -259 -37h-641zM487 231h318q152 0 212 56t60 183
v530q0 125 -61.5 185t-210.5 60h-318v-1014z" />
    <glyph glyph-name="uni01C5" unicode="&#x1c5;" horiz-adv-x="2440" 
d="M1908 1281l-222 300h175l128 -175l136 175h180l-234 -300h-163zM1638 0v167l422 721h-412v186h704v-164l-419 -720h414v-190h-709zM190 0v1476h640q354 0 476 -210q68 -118 68 -305v-453q0 -374 -284 -471q-108 -37 -259 -37h-641zM487 231h318q152 0 212 56t60 183v530
q0 125 -61.5 185t-210.5 60h-318v-1014z" />
    <glyph glyph-name="uni01C6" unicode="&#x1c6;" horiz-adv-x="2104" 
d="M1572 1281l-222 300h175l128 -175l136 175h180l-234 -300h-163zM1302 0v167l422 721h-412v186h704v-164l-419 -720h414v-190h-709zM443 204q47 -36 151 -36t176 43v659q-78 37 -176 37t-148 -34.5t-50 -113.5v-439q0 -80 47 -116zM551 -23q-214 0 -320.5 90.5
t-106.5 256.5v429q0 157 110.5 250.5t335.5 93.5q96 0 200 -38v457h272v-1516h-184l-29 63q-123 -86 -278 -86z" />
    <glyph glyph-name="uni01C7" unicode="&#x1c7;" horiz-adv-x="2394" 
d="M2067 92.5q-141 -117.5 -385 -117.5t-440 92l69 220q73 -34 170.5 -56t175.5 -22q132 0 193 64t61 168v809h-508v226h805v-1054q0 -212 -141 -329.5zM190 0v1476h297v-1244h617v-232h-914z" />
    <glyph glyph-name="uni01C8" unicode="&#x1c8;" horiz-adv-x="1810" 
d="M1376 1227v241h272v-241h-272zM1175 -362l-13 194h44q172 0 172 178v1064h272v-1077q0 -168 -91 -263.5t-283 -95.5h-101zM190 0v1476h297v-1244h617v-232h-914z" />
    <glyph glyph-name="uni01C9" unicode="&#x1c9;" horiz-adv-x="1346" 
d="M912 1227v241h272v-241h-272zM711 -362l-13 194h44q172 0 172 178v1064h272v-1077q0 -168 -91 -263.5t-283 -95.5h-101zM527 -12q-185 0 -274 84t-89 281v1162h272v-1158q0 -90 42 -128.5t150 -38.5h34l-21 -202h-114z" />
    <glyph glyph-name="uni01CA" unicode="&#x1ca;" horiz-adv-x="2856" 
d="M2529 92.5q-141 -117.5 -385 -117.5t-440 92l69 220q73 -34 170.5 -56t175.5 -22q132 0 193 64t61 168v809h-508v226h805v-1054q0 -212 -141 -329.5zM190 0v1476h223l767 -1012v1012h264v-1476h-223l-764 996v-996h-267z" />
    <glyph glyph-name="uni01CB" unicode="&#x1cb;" horiz-adv-x="2272" 
d="M1838 1227v241h272v-241h-272zM1637 -362l-13 194h44q172 0 172 178v1064h272v-1077q0 -168 -91 -263.5t-283 -95.5h-101zM190 0v1476h223l767 -1012v1012h264v-1476h-223l-764 996v-996h-267z" />
    <glyph glyph-name="uni01CC" unicode="&#x1cc;" horiz-adv-x="1892" 
d="M1458 1227v241h272v-241h-272zM1257 -362l-13 194h44q172 0 172 178v1064h272v-1077q0 -168 -91 -263.5t-283 -95.5h-101zM830 755q0 139 -189 139q-81 0 -145 -42.5t-64 -116.5v-735h-272v1074h272v-95q137 120 320 120t266.5 -94t83.5 -235v-770h-272v755z" />
    <glyph glyph-name="uni01F1" unicode="&#x1f1;" horiz-adv-x="2718" 
d="M1660 0v177l620 1081h-592v218h936v-179l-618 -1087h630v-210h-976zM190 0v1476h640q354 0 476 -210q68 -118 68 -305v-453q0 -374 -284 -471q-108 -37 -259 -37h-641zM487 231h318q152 0 212 56t60 183v530q0 125 -61.5 185t-210.5 60h-318v-1014z" />
    <glyph glyph-name="uni01F2" unicode="&#x1f2;" horiz-adv-x="2440" 
d="M1638 0v167l422 721h-412v186h704v-164l-419 -720h414v-190h-709zM190 0v1476h640q354 0 476 -210q68 -118 68 -305v-453q0 -374 -284 -471q-108 -37 -259 -37h-641zM487 231h318q152 0 212 56t60 183v530q0 125 -61.5 185t-210.5 60h-318v-1014z" />
    <glyph glyph-name="uni01F3" unicode="&#x1f3;" horiz-adv-x="2104" 
d="M1302 0v167l422 721h-412v186h704v-164l-419 -720h414v-190h-709zM443 204q47 -36 151 -36t176 43v659q-78 37 -176 37t-148 -34.5t-50 -113.5v-439q0 -80 47 -116zM551 -23q-214 0 -320.5 90.5t-106.5 256.5v429q0 157 110.5 250.5t335.5 93.5q96 0 200 -38v457h272
v-1516h-184l-29 63q-123 -86 -278 -86z" />
    <glyph glyph-name="uni01F4" unicode="&#x1f4;" horiz-adv-x="1607" 
d="M715 1685l114 365h268l-233 -365h-149zM975.5 -9.5q-72.5 -16.5 -194.5 -16.5q-121 0 -237 26q-217 48 -300.5 172.5t-83.5 311.5v493q0 305 194 426q157 98 459 98q485 -1 575 -273q30 -92 30 -221v-23l-292 -22v59q0 144 -70 195.5t-245.5 51.5t-264 -56t-88.5 -200
v-558q0 -147 91 -197t264 -50t255.5 50t82.5 197v108h-298v195h566v-757h-157l-47 170q-13 -44 -49.5 -81.5t-77 -59.5t-113 -38.5z" />
    <glyph glyph-name="uni01F5" unicode="&#x1f5;" horiz-adv-x="1211" 
d="M517 1281l114 365h268l-233 -365h-149zM588 213q133 0 199 48v571q0 24 -57 50q-58 25 -148 25q-186 0 -186 -150v-401q0 -143 192 -143zM574 -441q-237 0 -355 56l56 185q151 -42 278.5 -42t180.5 50.5t53 161.5v118q-94 -56 -266.5 -56t-284.5 88.5t-112 245.5v385
q0 145 94.5 245.5t314.5 100.5q85 0 166.5 -28.5t134.5 -71.5l23 78h202v-1087q0 -429 -485 -429z" />
    <glyph glyph-name="uni01F8" unicode="&#x1f8;" horiz-adv-x="1634" 
d="M742 1685l-237 365h267l121 -365h-151zM190 0v1476h223l767 -1012v1012h264v-1476h-223l-764 996v-996h-267z" />
    <glyph glyph-name="uni01F9" unicode="&#x1f9;" horiz-adv-x="1254" 
d="M556 1283l-237 365h267l121 -365h-151zM830 755q0 139 -189 139q-81 0 -145 -42.5t-64 -116.5v-735h-272v1074h272v-95q137 120 320 120t266.5 -94t83.5 -235v-770h-272v755z" />
    <glyph glyph-name="Aringacute" unicode="&#x1fa;" horiz-adv-x="1512" 
d="M682 2096l114 365h268l-233 -365h-149zM756 1487q-108 0 -169 56t-61 157t61 156.5t169 55.5t169 -55.5t61 -156.5t-61 -157t-169 -56zM756 1577q118 0 118 123.5t-118 123.5t-118 -123.5t118 -123.5zM525 479h462l-227 776zM70 0l486 1476h394l492 -1476h-315l-83 281
h-578l-86 -281h-310z" />
    <glyph glyph-name="aringacute" unicode="&#x1fb;" horiz-adv-x="1174" 
d="M526 1890l114 365h268l-233 -365h-149zM601 1281q-108 0 -169 56t-61 157t61 156.5t169 55.5t169 -55.5t61 -156.5t-61 -157t-169 -56zM601 1371q118 0 118 123.5t-118 123.5t-118 -123.5t118 -123.5zM383 294q0 -129 140 -129q55 0 116 29t96 82v268q-48 -39 -169 -83.5
t-152 -82t-31 -84.5zM622.5 17.5q-87.5 -40.5 -212.5 -40.5t-211.5 81t-86.5 207t78.5 202t300.5 146q135 43 189.5 77t54.5 94q0 124 -169 123q-95 0 -131 -36.5t-36 -105.5v-42h-255v32q0 161 107 251.5t329 90.5t322.5 -94t100.5 -270v-425q0 -72 18 -95t69 -23l-11 -198
h-57q-111 0 -173 30.5t-92 96.5q-47 -61 -134.5 -101.5z" />
    <glyph glyph-name="AEacute" unicode="&#x1fc;" horiz-adv-x="1834" 
d="M822 1685l114 365h268l-233 -365h-149zM527 477h366v772h-136zM393 0h-310l456 1477h1161v-228h-527v-391h457v-213h-457v-418h537v-227h-817v281h-421z" />
    <glyph glyph-name="aeacute" unicode="&#x1fd;" horiz-adv-x="1734" 
d="M794 1281l114 365h268l-233 -365h-149zM1012 655h359v110q0 83 -44 112.5t-133 29.5t-135.5 -33t-46.5 -114v-105zM373 293q0 -64 37.5 -100t101 -36t128.5 25t99 77v261q-39 -33 -202.5 -70t-163.5 -157zM1012 321q0 -155 159 -155q70 0 99 6q30 5 54 24q45 35 46 157
h252q-4 -180 -70 -263q-66 -84 -210 -104q-64 -9 -156 -9q-257 0 -339 153q-90 -79 -186.5 -116t-237.5 -37t-226 80.5t-85 223.5t86 205q86 64 322 118q128 30 160 46q59 30 59 120q0 138 -172 138q-95 0 -131 -41t-36 -112v-36h-256v26q0 162 107.5 257t321.5 95
q106 0 188.5 -33t116.5 -97q106 130 324 130q422 0 422 -352v-231h-612v-193z" />
    <glyph glyph-name="Oslashacute" unicode="&#x1fe;" horiz-adv-x="1630" 
d="M734 1882l114 365h268l-233 -365h-149zM970 1253q-64 15 -150 15q-175 0 -265.5 -60t-90.5 -205v-535q0 -163 121 -222zM1142 1454q310 -109 310 -506v-431q0 -302 -190 -436q-152 -107 -442 -107q-137 0 -236 19l-80 -210l-87 23l80 208q-191 58 -261 185.5t-70 301.5
v462q0 311 193 435q159 102 461 103q133 0 236 -23l84 220l87 -23zM820 207q175 0 254.5 57.5t79.5 203.5v535q0 158 -100 218l-383 -1002q59 -12 149 -12z" />
    <glyph glyph-name="oslashacute" unicode="&#x1ff;" horiz-adv-x="1228" 
d="M524 1465l114 365h268l-233 -365h-149zM705 892q-43 15 -107 15q-194 0 -194 -147v-447q0 -81 51 -115zM1064 325q0 -348 -440 -348q-102 0 -165 9l-72 -200l-72 20l70 195q-253 66 -253 324v423q0 165 122.5 257t343.5 92q96 0 174 -18l72 202l72 -21l-73 -203
q107 -41 164 -120t57 -189v-423zM598 166q193 0 193 147v447q0 53 -23 87l-243 -675q33 -6 73 -6z" />
    <glyph glyph-name="uni0200" unicode="&#x200;" horiz-adv-x="1512" 
d="M884 1685l-242 431h286l111 -431h-155zM473 1685l-266 431h289l139 -431h-162zM525 479h462l-227 776zM70 0l486 1476h394l492 -1476h-315l-83 281h-578l-86 -281h-310z" />
    <glyph glyph-name="uni0201" unicode="&#x201;" horiz-adv-x="1174" 
d="M729 1281l-242 431h286l111 -431h-155zM318 1281l-266 431h289l139 -431h-162zM383 294q0 -129 140 -129q55 0 116 29t96 82v268q-48 -39 -169 -83.5t-152 -82t-31 -84.5zM622.5 17.5q-87.5 -40.5 -212.5 -40.5t-211.5 81t-86.5 207t78.5 202t300.5 146q135 43 189.5 77
t54.5 94q0 124 -169 123q-95 0 -131 -36.5t-36 -105.5v-42h-255v32q0 161 107 251.5t329 90.5t322.5 -94t100.5 -270v-425q0 -72 18 -95t69 -23l-11 -198h-57q-111 0 -173 30.5t-92 96.5q-47 -61 -134.5 -101.5z" />
    <glyph glyph-name="uni0202" unicode="&#x202;" horiz-adv-x="1512" 
d="M542 1685q0 91 59.5 149t154.5 58t154.5 -58t59.5 -149h-130q0 41 -22 74.5t-62 33.5t-61.5 -33t-21.5 -75h-131zM525 479h462l-227 776zM70 0l486 1476h394l492 -1476h-315l-83 281h-578l-86 -281h-310z" />
    <glyph glyph-name="uni0203" unicode="&#x203;" horiz-adv-x="1174" 
d="M387 1281q0 91 59.5 149t154.5 58t154.5 -58t59.5 -149h-130q0 41 -22 74.5t-62 33.5t-61.5 -33t-21.5 -75h-131zM383 294q0 -129 140 -129q55 0 116 29t96 82v268q-48 -39 -169 -83.5t-152 -82t-31 -84.5zM622.5 17.5q-87.5 -40.5 -212.5 -40.5t-211.5 81t-86.5 207
t78.5 202t300.5 146q135 43 189.5 77t54.5 94q0 124 -169 123q-95 0 -131 -36.5t-36 -105.5v-42h-255v32q0 161 107 251.5t329 90.5t322.5 -94t100.5 -270v-425q0 -72 18 -95t69 -23l-11 -198h-57q-111 0 -173 30.5t-92 96.5q-47 -61 -134.5 -101.5z" />
    <glyph glyph-name="uni0204" unicode="&#x204;" horiz-adv-x="1294" 
d="M807 1685l-242 431h286l111 -431h-155zM396 1685l-266 431h289l139 -431h-162zM190 0v1476h967v-224h-671v-392h595v-214h-595v-422h682v-224h-978z" />
    <glyph glyph-name="uni0205" unicode="&#x205;" horiz-adv-x="1149" 
d="M709 1281l-242 431h286l111 -431h-155zM298 1281l-266 431h289l139 -431h-162zM396 651h386v126q0 97 -78 119q-41 12 -124.5 11.5t-133.5 -28.5t-50 -107v-121zM402 -5q-80 17 -144 57q-134 82 -134 284v419q0 162 123 252t335 90q457 0 457 -352v-260h-643v-175
q0 -89 44 -116.5t149 -27.5t124 10q45 25 58 60.5t15 93.5h252q-6 -248 -175 -314q-99 -38 -240 -38.5t-221 17.5z" />
    <glyph glyph-name="uni0206" unicode="&#x206;" horiz-adv-x="1294" 
d="M465 1685q0 91 59.5 149t154.5 58t154.5 -58t59.5 -149h-130q0 41 -22 74.5t-62 33.5t-61.5 -33t-21.5 -75h-131zM190 0v1476h967v-224h-671v-392h595v-214h-595v-422h682v-224h-978z" />
    <glyph glyph-name="uni0207" unicode="&#x207;" horiz-adv-x="1149" 
d="M368 1281q0 91 59.5 149t154.5 58t154.5 -58t59.5 -149h-130q0 41 -22 74.5t-62 33.5t-61.5 -33t-21.5 -75h-131zM396 651h386v126q0 97 -78 119q-41 12 -124.5 11.5t-133.5 -28.5t-50 -107v-121zM402 -5q-80 17 -144 57q-134 82 -134 284v419q0 162 123 252t335 90
q457 0 457 -352v-260h-643v-175q0 -89 44 -116.5t149 -27.5t124 10q45 25 58 60.5t15 93.5h252q-6 -248 -175 -314q-99 -38 -240 -38.5t-221 17.5z" />
    <glyph glyph-name="uni0208" unicode="&#x208;" horiz-adv-x="1148" 
d="M702 1685l-242 431h286l111 -431h-155zM291 1685l-266 431h289l139 -431h-162zM158 0v222h269v1033h-269v221h832v-221h-267v-1033h267v-222h-832z" />
    <glyph glyph-name="uni0209" unicode="&#x209;" horiz-adv-x="598" 
d="M430 1281l-242 431h286l111 -431h-155zM19 1281l-266 431h289l139 -431h-162zM166 0v1074h272v-1074h-272z" />
    <glyph glyph-name="uni020A" unicode="&#x20a;" horiz-adv-x="1148" 
d="M360 1685q0 91 59.5 149t154.5 58t154.5 -58t59.5 -149h-130q0 41 -22 74.5t-62 33.5t-61.5 -33t-21.5 -75h-131zM158 0v222h269v1033h-269v221h832v-221h-267v-1033h267v-222h-832z" />
    <glyph glyph-name="uni020B" unicode="&#x20b;" horiz-adv-x="598" 
d="M88 1281q0 91 59.5 149t154.5 58t154.5 -58t59.5 -149h-130q0 41 -22 74.5t-62 33.5t-61.5 -33t-21.5 -75h-131zM166 0v1074h272v-1074h-272z" />
    <glyph glyph-name="uni020C" unicode="&#x20c;" horiz-adv-x="1606" 
d="M931 1685l-242 431h286l111 -431h-155zM520 1685l-266 431h289l139 -431h-162zM810 -26q-434 0 -572 216q-78 120 -78 311v462q0 311 193 435q159 102 461 103q421 0 556 -230q76 -129 76 -323v-431q0 -302 -190 -436q-152 -107 -446 -107zM547 265q89 -58 265.5 -58
t256 57.5t79.5 203.5v535q0 144 -81 204.5t-254.5 60.5t-264 -60t-90.5 -205v-535q0 -145 89 -203z" />
    <glyph glyph-name="uni020D" unicode="&#x20d;" horiz-adv-x="1180" 
d="M718 1281l-242 431h286l111 -431h-155zM307 1281l-266 431h289l139 -431h-162zM590 -23q-466 0 -466 348v423q0 165 122.5 257t343 92t343.5 -92.5t123 -256.5v-423q0 -259 -246 -324q-92 -24 -220 -24zM590 166q194 0 194 147v447q0 79 -49 113t-145 34
q-194 0 -194 -147v-447q0 -79 48.5 -113t145.5 -34z" />
    <glyph glyph-name="uni020E" unicode="&#x20e;" horiz-adv-x="1606" 
d="M589 1685q0 91 59.5 149t154.5 58t154.5 -58t59.5 -149h-130q0 41 -22 74.5t-62 33.5t-61.5 -33t-21.5 -75h-131zM810 -26q-434 0 -572 216q-78 120 -78 311v462q0 311 193 435q159 102 461 103q421 0 556 -230q76 -129 76 -323v-431q0 -302 -190 -436
q-152 -107 -446 -107zM547 265q89 -58 265.5 -58t256 57.5t79.5 203.5v535q0 144 -81 204.5t-254.5 60.5t-264 -60t-90.5 -205v-535q0 -145 89 -203z" />
    <glyph glyph-name="uni020F" unicode="&#x20f;" horiz-adv-x="1180" 
d="M376 1281q0 91 59.5 149t154.5 58t154.5 -58t59.5 -149h-130q0 41 -22 74.5t-62 33.5t-61.5 -33t-21.5 -75h-131zM590 -23q-466 0 -466 348v423q0 165 122.5 257t343 92t343.5 -92.5t123 -256.5v-423q0 -259 -246 -324q-92 -24 -220 -24zM590 166q194 0 194 147v447
q0 79 -49 113t-145 34q-194 0 -194 -147v-447q0 -79 48.5 -113t145.5 -34z" />
    <glyph glyph-name="uni0210" unicode="&#x210;" horiz-adv-x="1484" 
d="M917 1685l-242 431h286l111 -431h-155zM506 1685l-266 431h289l139 -431h-162zM487 795h365q105 0 144.5 59.5t39.5 180.5q0 230 -172 230h-377v-470zM190 0v1476h637q286 0 389.5 -116t103.5 -314.5t-57.5 -289t-159.5 -130.5l285 -626h-308l-259 583h-334v-583h-297z
" />
    <glyph glyph-name="uni0211" unicode="&#x211;" horiz-adv-x="831" 
d="M613 1281l-242 431h286l111 -431h-155zM202 1281l-266 431h289l139 -431h-162zM160 0v1074h272v-128q24 46 100 82q131 63 253 63q14 0 26 -1l-6 -231q-179 -9 -297 -67q-66 -32 -76 -72v-720h-272z" />
    <glyph glyph-name="uni0212" unicode="&#x212;" horiz-adv-x="1484" 
d="M575 1685q0 91 59.5 149t154.5 58t154.5 -58t59.5 -149h-130q0 41 -22 74.5t-62 33.5t-61.5 -33t-21.5 -75h-131zM487 795h365q105 0 144.5 59.5t39.5 180.5q0 230 -172 230h-377v-470zM190 0v1476h637q286 0 389.5 -116t103.5 -314.5t-57.5 -289t-159.5 -130.5l285 -626
h-308l-259 583h-334v-583h-297z" />
    <glyph glyph-name="uni0213" unicode="&#x213;" horiz-adv-x="831" 
d="M272 1281q0 91 59.5 149t154.5 58t154.5 -58t59.5 -149h-130q0 41 -22 74.5t-62 33.5t-61.5 -33t-21.5 -75h-131zM160 0v1074h272v-128q24 46 100 82q131 63 253 63q14 0 26 -1l-6 -231q-179 -9 -297 -67q-66 -32 -76 -72v-720h-272z" />
    <glyph glyph-name="uni0214" unicode="&#x214;" horiz-adv-x="1574" 
d="M915 1685l-242 431h286l111 -431h-155zM504 1685l-266 431h289l139 -431h-162zM794 -26q-416 0 -545 198q-73 112 -73 296v1009h297v-1022q0 -139 79.5 -193.5t242.5 -54.5t234.5 54t71.5 194v1022h297v-997q0 -294 -174 -410q-146 -96 -430 -96z" />
    <glyph glyph-name="uni0215" unicode="&#x215;" horiz-adv-x="1247" 
d="M749 1281l-242 431h286l111 -431h-155zM338 1281l-266 431h289l139 -431h-162zM827 118q-32 -66 -124 -103.5t-204 -37.5q-161 0 -254 89t-93 225v783h272v-739q0 -77 54.5 -115t133.5 -38t143 42.5t64 125.5v724h272v-1074h-256z" />
    <glyph glyph-name="uni0216" unicode="&#x216;" horiz-adv-x="1574" 
d="M573 1685q0 91 59.5 149t154.5 58t154.5 -58t59.5 -149h-130q0 41 -22 74.5t-62 33.5t-61.5 -33t-21.5 -75h-131zM794 -26q-416 0 -545 198q-73 112 -73 296v1009h297v-1022q0 -139 79.5 -193.5t242.5 -54.5t234.5 54t71.5 194v1022h297v-997q0 -294 -174 -410
q-146 -96 -430 -96z" />
    <glyph glyph-name="uni0217" unicode="&#x217;" horiz-adv-x="1247" 
d="M408 1281q0 91 59.5 149t154.5 58t154.5 -58t59.5 -149h-130q0 41 -22 74.5t-62 33.5t-61.5 -33t-21.5 -75h-131zM827 118q-32 -66 -124 -103.5t-204 -37.5q-161 0 -254 89t-93 225v783h272v-739q0 -77 54.5 -115t133.5 -38t143 42.5t64 125.5v724h272v-1074h-256z" />
    <glyph glyph-name="Scommaaccent" unicode="&#x218;" horiz-adv-x="1281" 
d="M610 -875l-107 47q51 58 98.5 154t47.5 188h-165v276h321v-223q0 -133 -65.5 -258t-129.5 -184zM674 -26q-137 0 -290 36t-264 98l102 217q222 -118 459 -118q119 0 168 49t49 147q0 19 -4 57q-9 90 -200 147l-252 74q-116 34 -186 97.5t-95 139t-25 176.5
q0 203 144.5 305t368.5 102q296 0 494 -115l-84 -209q-193 91 -384 91q-240 0 -247 -147v-15q0 -75 37.5 -117t153.5 -77l251 -75q152 -46 225.5 -145t73.5 -281.5t-116.5 -309.5t-378.5 -127z" />
    <glyph glyph-name="scommaaccent" unicode="&#x219;" horiz-adv-x="994" 
d="M476 -872l-107 47q51 58 98.5 154t47.5 188h-165v276h321v-223q0 -133 -65.5 -258t-129.5 -184zM527 -23q-254 0 -419 84l55 185q188 -80 354 -80q127 0 144 113q2 14 2 26q0 81 -91 110l-236 74q-121 38 -171.5 114t-50.5 185v8q2 301 412 301q202 0 362 -91l-64 -169
q-51 27 -138.5 48.5t-164.5 21.5t-112 -27.5t-35 -94t74 -89.5l222 -70q133 -42 187.5 -118t54.5 -212t-100 -227.5t-285 -91.5z" />
    <glyph glyph-name="uni021A" unicode="&#x21a;" horiz-adv-x="1194" 
d="M562 -849l-107 47q51 58 98.5 154t47.5 188h-165v276h321v-223q0 -133 -65.5 -258t-129.5 -184zM449 0v1250h-411v226h1118v-226h-411v-1250h-296z" />
    <glyph glyph-name="uni021B" unicode="&#x21b;" horiz-adv-x="813" 
d="M368 -861l-107 47q51 58 98.5 154t47.5 188h-165v276h321v-223q0 -133 -65.5 -258t-129.5 -184zM664 -12q-245 0 -351 74t-106 279v560h-143v173h151l25 345h239v-345h255v-173h-255v-541q0 -100 47.5 -135t182.5 -35h32l-10 -202h-67z" />
    <glyph glyph-name="uni0237" unicode="&#x237;" horiz-adv-x="650" 
d="M27 -135q171 0 171 178v1031h273v-1044q0 -168 -91 -263.5t-283 -95.5h-109l-6 194h45z" />
    <glyph glyph-name="circumflex" unicode="&#x2c6;" horiz-adv-x="512" 
d="M-30 1216l234 300h163l222 -300h-175l-128 175l-136 -175h-180z" />
    <glyph glyph-name="caron" unicode="&#x2c7;" horiz-adv-x="512" 
d="M192 1216l-222 300h175l128 -175l136 175h180l-234 -300h-163z" />
    <glyph glyph-name="uni02C9" unicode="&#x2c9;" horiz-adv-x="403" 
d="M-4 1251v157h414v-157h-414z" />
    <glyph glyph-name="breve" unicode="&#x2d8;" horiz-adv-x="512" 
d="M266 1291q-106 0 -171 65.5t-65 159.5h124q0 -52 32.5 -82t79.5 -30t79.5 30t32.5 82h124q0 -94 -65 -159.5t-171 -65.5z" />
    <glyph glyph-name="dotaccent" unicode="&#x2d9;" horiz-adv-x="489" 
d="M126 1251v254h258v-254h-258z" />
    <glyph glyph-name="ring" unicode="&#x2da;" horiz-adv-x="592" 
d="M296 1069q-108 0 -169 56t-61 157t61 156.5t169 55.5t169 -55.5t61 -156.5t-61 -157t-169 -56zM296 1159q118 0 118 123.5t-118 123.5t-118 -123.5t118 -123.5z" />
    <glyph glyph-name="ogonek" unicode="&#x2db;" horiz-adv-x="487" 
d="M329 9q-83 -158 -83 -254q0 -122 176 -122l-13 -141h-12q-336 0 -336 214q0 74 42 156t111 147h115z" />
    <glyph glyph-name="tilde" unicode="&#x2dc;" horiz-adv-x="759" 
d="M269 1231q-200 0 -200 260h118q0 -86 63 -86q23 0 62 35q76 67 178 67q200 0 200 -260h-118q0 87 -56 87q-25 0 -67 -36q-80 -68 -180 -67z" />
    <glyph glyph-name="hungarumlaut" unicode="&#x2dd;" 
d="M500 1065l139 431h289l-266 -431h-162zM96 1065l111 431h286l-242 -431h-155z" />
    <glyph glyph-name="uni0307" unicode="&#x307;" horiz-adv-x="459" 
d="M117 1251v247h248v-247h-248z" />
    <glyph glyph-name="uni030F" unicode="&#x30f;" 
d="M773 1065l-242 431h286l111 -431h-155zM362 1065l-266 431h289l139 -431h-162z" />
    <glyph glyph-name="uni0311" unicode="&#x311;" horiz-adv-x="575" 
d="M64 1222q0 91 59.5 149t154.5 58t154.5 -58t59.5 -149h-130q0 41 -22 74.5t-62 33.5t-61.5 -33t-21.5 -75h-131z" />
    <glyph glyph-name="uni0326" unicode="&#x326;" horiz-adv-x="683" 
d="M328 -771l-107 47q51 58 98.5 154t47.5 188h-165v276h321v-223q0 -133 -65.5 -258t-129.5 -184z" />
    <glyph glyph-name="mu" unicode="&#x3bc;" horiz-adv-x="1246" 
d="M719 22q-67 -41 -151 -41t-168 21v-238h-252v1310h272v-766q0 -76 53.5 -109t132 -33t144 40.5t65.5 110.5v757h273v-1074h-267l-6 135q-29 -72 -96 -113z" />
    <glyph glyph-name="uni1E02" unicode="&#x1e02;" horiz-adv-x="1456" 
d="M643 1685v247h248v-247h-248zM487 882h307q142 0 169 75q15 42 15 125.5t-18.5 121.5t-67.5 53.5t-153 15.5h-252v-391zM487 208h288q90 0 140.5 9t82 38t41 74t9.5 110.5t-4 98.5q-10 84 -63 124.5t-176 40.5h-318v-495zM190 0v1476h568q304 0 416 -95q58 -50 82.5 -119
t24.5 -182t-40 -180.5t-149 -95.5q148 -20 200 -112t52 -244v-18q0 -218 -120 -324t-394 -106h-640z" />
    <glyph glyph-name="uni1E03" unicode="&#x1e03;" horiz-adv-x="1206" 
d="M497 1700v247h248v-247h-248zM810 758q0 149 -184 149q-90 0 -194 -50v-641q62 -48 166 -48q212 0 212 155v435zM965.5 74q-116.5 -97 -288 -97t-303.5 88l-27 -65h-187v1516h272v-476q108 57 218 57q271 0 370 -140q62 -88 62 -204v-424q0 -158 -116.5 -255z" />
    <glyph glyph-name="uni1E0A" unicode="&#x1e0a;" horiz-adv-x="1534" 
d="M658 1685v247h248v-247h-248zM190 0v1476h640q354 0 476 -210q68 -118 68 -305v-453q0 -374 -284 -471q-108 -37 -259 -37h-641zM487 231h318q152 0 212 56t60 183v530q0 125 -61.5 185t-210.5 60h-318v-1014z" />
    <glyph glyph-name="uni1E0B" unicode="&#x1e0b;" horiz-adv-x="1198" 
d="M459 1700v247h248v-247h-248zM443 204q47 -36 151 -36t176 43v659q-78 37 -176 37t-148 -34.5t-50 -113.5v-439q0 -80 47 -116zM551 -23q-214 0 -320.5 90.5t-106.5 256.5v429q0 157 110.5 250.5t335.5 93.5q96 0 200 -38v457h272v-1516h-184l-29 63q-123 -86 -278 -86z
" />
    <glyph glyph-name="uni1E1E" unicode="&#x1e1e;" horiz-adv-x="1173" 
d="M513 1685v247h248v-247h-248zM190 0v1476h893v-227h-596v-402h555v-213h-555v-634h-297z" />
    <glyph glyph-name="uni1E1F" unicode="&#x1e1f;" horiz-adv-x="770" 
d="M281 1700v247h248v-247h-248zM229 0v901h-143v173h143v51q0 195 87 293t275 98h126l7 -189h-84q-81 0 -110 -38.5t-29 -102.5v-112h214v-173h-214v-901h-272z" />
    <glyph glyph-name="uni1E40" unicode="&#x1e40;" horiz-adv-x="1874" 
d="M813 1685v247h248v-247h-248zM190 0v1476h327l420 -715l414 715h333v-1476h-278v1091l-369 -662h-199l-370 658v-1087h-278z" />
    <glyph glyph-name="uni1E41" unicode="&#x1e41;" horiz-adv-x="1894" 
d="M827 1281v247h248v-247h-248zM160 0v1074h272v-96q56 58 145.5 88.5t171.5 30.5q215 0 295 -133q133 133 357 133q154 0 247.5 -83.5t93.5 -219.5v-794h-272v762q0 78 -40.5 106.5t-117 28.5t-147 -40t-76.5 -107v-750h-272v762q0 78 -43 106.5t-121.5 28.5t-149.5 -42.5
t-71 -115.5v-739h-272z" />
    <glyph glyph-name="uni1E56" unicode="&#x1e56;" horiz-adv-x="1336" 
d="M596 1685v247h248v-247h-248zM487 726h300q108 0 146.5 61.5t38.5 202.5q0 202 -89 254q-35 20 -86 21h-310v-539zM190 0v1476h579q247 0 364 -112t117 -365t-112.5 -371.5t-397.5 -118.5h-253v-509h-297z" />
    <glyph glyph-name="uni1E57" unicode="&#x1e57;" horiz-adv-x="1202" 
d="M495 1281v247h248v-247h-248zM614 166q192 0 192 154v435q0 152 -183 152q-61 0 -113 -20t-78 -46v-628q88 -47 182 -47zM160 -410v1484h190l27 -70q127 93 305.5 93t287 -94.5t108.5 -251.5v-425q0 -144 -110 -246.5t-331 -102.5q-115 0 -205 40v-427h-272z" />
    <glyph glyph-name="uni1E60" unicode="&#x1e60;" horiz-adv-x="1281" 
d="M521 1685v247h248v-247h-248zM674 -26q-137 0 -290 36t-264 98l102 217q222 -118 459 -118q119 0 168 49t49 147q0 19 -4 57q-9 90 -200 147l-252 74q-116 34 -186 97.5t-95 139t-25 176.5q0 203 144.5 305t368.5 102q296 0 494 -115l-84 -209q-193 91 -384 91
q-240 0 -247 -147v-15q0 -75 37.5 -117t153.5 -77l251 -75q152 -46 225.5 -145t73.5 -281.5t-116.5 -309.5t-378.5 -127z" />
    <glyph glyph-name="uni1E61" unicode="&#x1e61;" horiz-adv-x="994" 
d="M386 1281v247h248v-247h-248zM527 -23q-254 0 -419 84l55 185q188 -80 354 -80q127 0 144 113q2 14 2 26q0 81 -91 110l-236 74q-121 38 -171.5 114t-50.5 185v8q2 301 412 301q202 0 362 -91l-64 -169q-51 27 -138.5 48.5t-164.5 21.5t-112 -27.5t-35 -94t74 -89.5
l222 -70q133 -42 187.5 -118t54.5 -212t-100 -227.5t-285 -91.5z" />
    <glyph glyph-name="uni1E6A" unicode="&#x1e6a;" horiz-adv-x="1194" 
d="M473 1685v247h248v-247h-248zM449 0v1250h-411v226h1118v-226h-411v-1250h-296z" />
    <glyph glyph-name="uni1E6B" unicode="&#x1e6b;" horiz-adv-x="813" 
d="M279 1603v247h248v-247h-248zM664 -12q-245 0 -351 74t-106 279v560h-143v173h151l25 345h239v-345h255v-173h-255v-541q0 -100 47.5 -135t182.5 -35h32l-10 -202h-67z" />
    <glyph glyph-name="Wgrave" unicode="&#x1e80;" horiz-adv-x="1954" 
d="M902 1685l-237 365h267l121 -365h-151zM423 0l-383 1476h288l255 -1021l259 1021h251l296 -1010l240 1010h285l-382 -1476h-249l-310 1053l-284 -1053h-266z" />
    <glyph glyph-name="wgrave" unicode="&#x1e81;" horiz-adv-x="1648" 
d="M748 1281l-237 365h267l121 -365h-151zM343 0l-297 1074h254l192 -770l225 770h221l232 -779l179 779h253l-286 -1074h-266l-220 741l-229 -741h-258z" />
    <glyph glyph-name="Wacute" unicode="&#x1e82;" horiz-adv-x="1954" 
d="M902 1685l114 365h268l-233 -365h-149zM423 0l-383 1476h288l255 -1021l259 1021h251l296 -1010l240 1010h285l-382 -1476h-249l-310 1053l-284 -1053h-266z" />
    <glyph glyph-name="wacute" unicode="&#x1e83;" horiz-adv-x="1648" 
d="M750 1281l114 365h268l-233 -365h-149zM343 0l-297 1074h254l192 -770l225 770h221l232 -779l179 779h253l-286 -1074h-266l-220 741l-229 -741h-258z" />
    <glyph glyph-name="Wdieresis" unicode="&#x1e84;" horiz-adv-x="1954" 
d="M1099 1685v233h265v-233h-265zM590 1685v233h264v-233h-264zM423 0l-383 1476h288l255 -1021l259 1021h251l296 -1010l240 1010h285l-382 -1476h-249l-310 1053l-284 -1053h-266z" />
    <glyph glyph-name="wdieresis" unicode="&#x1e85;" horiz-adv-x="1648" 
d="M946 1281v233h265v-233h-265zM437 1281v233h264v-233h-264zM343 0l-297 1074h254l192 -770l225 770h221l232 -779l179 779h253l-286 -1074h-266l-220 741l-229 -741h-258z" />
    <glyph glyph-name="Ygrave" unicode="&#x1ef2;" horiz-adv-x="1304" 
d="M576 1685l-237 365h267l121 -365h-151zM509 0v567l-509 909h313l346 -617l345 617h300l-499 -909v-567h-296z" />
    <glyph glyph-name="ygrave" unicode="&#x1ef3;" horiz-adv-x="1083" 
d="M474 1281l-237 365h267l121 -365h-151zM148 -485l-20 225q143 28 208.5 109.5t100.5 186.5l-404 1038h262l279 -721l223 721h270l-326 -934q-84 -241 -153 -346.5t-128 -153.5q-126 -102 -312 -125z" />
    <glyph glyph-name="endash" unicode="&#x2013;" horiz-adv-x="716" 
d="M128 446v166h460v-166h-460z" />
    <glyph glyph-name="emdash" unicode="&#x2014;" horiz-adv-x="961" 
d="M3 383v173h954v-173h-954z" />
    <glyph glyph-name="quoteleft" unicode="&#x2018;" horiz-adv-x="874" 
d="M296 838v223q0 133 66 258.5t130 183.5l107 -46q-51 -58 -98.5 -154.5t-47.5 -188.5h165v-276h-322z" />
    <glyph glyph-name="quoteright" unicode="&#x2019;" horiz-adv-x="834" 
d="M382 839l-107 46q51 58 98.5 154.5t47.5 188.5h-165v276h322v-223q0 -133 -66 -258.5t-130 -183.5z" />
    <glyph glyph-name="quotesinglbase" unicode="&#x201a;" horiz-adv-x="874" 
d="M422 -389l-107 46q51 58 98.5 154.5t47.5 188.5h-165v276h322v-223q0 -133 -66 -258.5t-130 -183.5z" />
    <glyph glyph-name="quotedblleft" unicode="&#x201c;" horiz-adv-x="1310" 
d="M732 850v223q0 133 66 258.5t130 183.5l107 -46q-51 -58 -98.5 -154.5t-47.5 -188.5h165v-276h-322zM256 850v223q0 133 66 258.5t130 183.5l107 -46q-51 -58 -98.5 -154.5t-47.5 -188.5h165v-276h-322z" />
    <glyph glyph-name="quotedblright" unicode="&#x201d;" horiz-adv-x="1350" 
d="M898 851l-107 46q51 58 98.5 154.5t47.5 188.5h-165v276h322v-223q0 -133 -66 -258.5t-130 -183.5zM422 851l-107 46q51 58 98.5 154.5t47.5 188.5h-165v276h322v-223q0 -133 -66 -258.5t-130 -183.5z" />
    <glyph glyph-name="quotedblbase" unicode="&#x201e;" horiz-adv-x="1373" 
d="M921 -389l-107 46q51 58 98.5 154.5t47.5 188.5h-165v276h322v-223q0 -133 -66 -258.5t-130 -183.5zM422 -389l-107 46q51 58 98.5 154.5t47.5 188.5h-165v276h322v-223q0 -133 -66 -258.5t-130 -183.5z" />
    <glyph glyph-name="dagger" unicode="&#x2020;" 
d="M409 0v857h-250v156h250v311h205v-311h251v-156h-251v-857h-205z" />
    <glyph glyph-name="daggerdbl" unicode="&#x2021;" horiz-adv-x="1025" 
d="M409 0v383h-190v186h190v304h-190v186h190v265h205v-265h192v-186h-192v-304h192v-186h-192v-383h-205z" />
    <glyph glyph-name="bullet" unicode="&#x2022;" 
d="M511 390q-143 0 -231 89t-88 228t88.5 228.5t231.5 89.5t231.5 -89.5t88.5 -228.5t-89 -228t-232 -89z" />
    <glyph glyph-name="ellipsis" unicode="&#x2026;" horiz-adv-x="1800" 
d="M1376 0v284h298v-284h-298zM776 0v284h298v-284h-298zM176 0v284h298v-284h-298z" />
    <glyph glyph-name="perthousand" unicode="&#x2030;" horiz-adv-x="2769" 
d="M626 0l543 1446h173l-538 -1446h-178zM2300 -19q-164 0 -232.5 98t-68.5 281v53q0 185 67.5 278t233 93t234.5 -92.5t71 -277.5v-54q0 -183 -70.5 -281t-234.5 -98zM2300 111q104 1 128 95q14 52 14 140v87q0 142 -34.5 181.5t-90.5 39.5q-125 0 -146 -83
q-12 -51 -12 -136v-89q0 -146 35 -190.5t106 -44.5zM1546 -19q-164 0 -232.5 98t-68.5 281v53q0 185 67.5 278t233 93t234.5 -92.5t71 -277.5v-54q0 -183 -70.5 -281t-234.5 -98zM1546 111q104 1 128 95q14 52 14 140v87q0 142 -34.5 181.5t-90.5 39.5q-125 0 -146 -83
q-12 -51 -12 -136v-89q0 -146 35 -190.5t106 -44.5zM429 658q-164 0 -232.5 98t-68.5 281v53q0 185 67.5 278t233 93t234 -92.5t70.5 -277.5v-54q0 -183 -70 -281t-234 -98zM429 788q105 0 128 94q13 53 13 141v87q0 143 -34 182t-90 39q-125 0 -146 -83q-12 -51 -12 -136
v-89q0 -146 35 -190.5t106 -44.5z" />
    <glyph glyph-name="guilsinglleft" unicode="&#x2039;" horiz-adv-x="768" 
d="M454 80l-280 450l273 450l147 -70l-207 -380l207 -380z" />
    <glyph glyph-name="guilsinglright" unicode="&#x203a;" horiz-adv-x="768" 
d="M327 80l-147 70l207 380l-207 380l140 70l280 -450z" />
    <glyph glyph-name="fraction" unicode="&#x2044;" horiz-adv-x="919" 
d="M55 0l567 1516h243l-567 -1516h-243z" />
    <glyph glyph-name="Euro" unicode="&#x20ac;" horiz-adv-x="1490" 
d="M514 0q-112 26 -179.5 69t-107.5 110.5t-53.5 138.5t-13.5 166v21h-114v134h114v180h-114v134h114v24q0 264 107 370q107 107 284 137q100 18 226 17q457 0 545 -250q40 -112 40 -268v-18l-291 -34v75q0 154 -60.5 208t-231.5 54t-246.5 -54.5t-75.5 -201.5v-59h331v-134
h-331v-180h331v-134h-331v-51q0 -148 77.5 -197.5t246.5 -49.5q89 0 141 9.5t87.5 38.5t48.5 77t13 128v47h291v-27q0 -219 -64.5 -316.5t-185.5 -143.5t-303.5 -46t-294.5 26z" />
    <glyph glyph-name="trademark" unicode="&#x2122;" horiz-adv-x="1843" 
d="M345 766v566h-212v114h559v-114h-212v-566h-135zM845 766v680h198l184 -413l186 413h196v-680h-127v563l-172 -398h-161l-179 398v-563h-125z" />
    <glyph glyph-name="uni2206" unicode="&#x2206;" horiz-adv-x="1132" 
d="M277 494h583l-279 841zM96 350v124l398 1031h170l372 -1031v-124h-940z" />
    <glyph glyph-name="product" unicode="&#x220f;" horiz-adv-x="1776" 
d="M1178.5 42.5q-136.5 -56.5 -315.5 -56.5t-347.5 96t-266 265t-97.5 374.5t97.5 374t266 264.5t373 96t373.5 -96t265.5 -264.5t96.5 -348.5t-57 -316.5t-154.5 -234t-234 -154zM566.5 165.5q144.5 -83.5 324 -83.5t323.5 83.5t224 229.5t80 326.5t-80 326.5t-224 229.5
t-323.5 83.5t-324 -83.5t-225 -229.5t-80.5 -326t80.5 -326.5t225 -230zM783 742h186q134 0 136 135v24q0 161 -127 161h-195v-320zM652 319v834h322q257 0 263 -245v-14q0 -113 -61.5 -177.5t-214.5 -64.5h-178v-333h-131z" />
    <glyph glyph-name="minus" unicode="&#x2212;" horiz-adv-x="792" 
d="M122 439v180h542v-180h-542z" />
    <glyph glyph-name="uni2215" unicode="&#x2215;" horiz-adv-x="919" 
d="M54 0l568 1516h244l-570 -1516h-242z" />
    <glyph glyph-name="uni2219" unicode="&#x2219;" horiz-adv-x="459" 
d="M117 1251v247h248v-247h-248z" />
    <glyph glyph-name="infinity" unicode="&#x221e;" horiz-adv-x="2048" 
d="M378 765q0 -172 148 -172q54 0 193.5 78.5t169.5 93.5q-30 15 -117 64q-209 104 -246 108q-148 0 -148 -172zM1670 765q0 172 -148 172q-54 0 -193.5 -78.5t-169.5 -93.5q30 -15 169.5 -93.5t193.5 -78.5q148 0 148 172zM1540 1170q127 0 208.5 -106.5t81.5 -298.5
t-81.5 -298.5t-209 -106.5t-385.5 168q-58 38 -94 65l-36 27q-206 -162 -391 -232q-74 -28 -125 -28q-127 0 -208.5 106.5t-81.5 298.5t81.5 298.5t209 106.5t385.5 -168q58 -38 94 -65l36 -27q206 162 391 232q74 28 125 28z" />
    <glyph glyph-name="integral" unicode="&#x222b;" horiz-adv-x="693" 
d="M593 1286q-30 6 -58 6q-67 0 -88.5 -36.5t-21.5 -103.5v-1109q0 -186 -61.5 -246t-187.5 -60q-56 0 -125 9v147q42 -7 65 -7q62 0 83 33.5t21 96.5v1110q0 196 62 256t189 60q43 0 122 -9v-147z" />
    <glyph glyph-name="approxequal" unicode="&#x2248;" 
d="M624 940q76 -34 108 -35q123 0 123 122h109q0 -136 -68.5 -212.5t-168.5 -76.5q-101 0 -329 104q-76 34 -106 35q-124 0 -124 -123h-108q0 137 68 213t167 76.5t329 -103.5zM624 1332q76 -34 108 -34q123 0 123 122h109q0 -136 -68.5 -212.5t-172 -76.5t-245.5 69.5
t-186 69.5q-124 0 -124 -123h-108q0 137 68 213t167 76t329 -104z" />
    <glyph glyph-name="notequal" unicode="&#x2260;" horiz-adv-x="919" 
d="M112 740v173h362l91 263h143l-91 -263h151v-173h-212l-68 -196h280v-173h-340l-129 -371h-143l129 371h-173v173h233l68 196h-301z" />
    <glyph glyph-name="lessequal" unicode="&#x2264;" horiz-adv-x="1252" 
d="M229 0v175h792v-175h-792zM1023 239l-784 414v219l784 417v-231l-603 -294l603 -294v-231z" />
    <glyph glyph-name="greaterequal" unicode="&#x2265;" horiz-adv-x="1250" 
d="M184 0v175h882v-175h-882zM245 236v229l563 296l-563 292v233l743 -416v-219z" />
    <glyph glyph-name="lozenge" unicode="&#x25ca;" horiz-adv-x="1104" 
d="M567 188l226 566l-226 553l-251 -553zM466 0l-364 754l364 751h198l338 -751l-338 -754h-198z" />
    </font>
</defs>
</svg>
