<?xml version="1.0" standalone="no"?>
<!DOCTYPE svg PUBLIC "-//W3C//DTD SVG 20010904//EN"
 "http://www.w3.org/TR/2001/REC-SVG-20010904/DTD/svg10.dtd">
<svg version="1.0" xmlns="http://www.w3.org/2000/svg"
 width="229.000000pt" height="229.000000pt" viewBox="0 0 229.000000 229.000000"
 preserveAspectRatio="xMidYMid meet">
<metadata>
Created by potrace 1.14, written by Peter Selinger 2001-2017
</metadata>
<g transform="translate(0.000000,229.000000) scale(0.100000,-0.100000)"
fill="#000000" stroke="none">
<path d="M815 2183 c-176 -58 -374 -124 -440 -147 l-120 -41 1 -50 c1 -51 12
-247 18 -320 2 -22 7 -85 10 -140 9 -139 16 -250 22 -319 l5 -58 -128 -131
c-70 -73 -131 -133 -135 -135 -21 -10 5 -46 172 -246 l181 -216 32 13 c152 63
197 79 209 75 8 -3 34 -77 62 -177 l48 -171 82 -24 c44 -14 132 -39 193 -57
l113 -33 127 38 c71 20 133 38 138 40 6 1 35 10 66 19 l56 17 49 171 c27 97
54 174 62 177 7 2 44 -8 80 -23 37 -15 88 -35 115 -45 l47 -18 180 215 c99
119 180 220 180 226 0 5 -57 67 -127 138 -70 71 -131 135 -135 142 -4 6 -5 46
-2 87 11 153 13 177 19 285 4 61 8 126 10 145 6 61 18 273 19 325 l1 50 -440
147 c-242 81 -442 147 -445 147 -3 0 -149 -47 -325 -106z m-65 -1016 c116 -55
166 -196 110 -307 -45 -88 -104 -124 -205 -125 -101 0 -163 40 -207 134 -53
113 6 255 125 302 51 21 129 18 177 -4z m979 -6 c76 -39 121 -115 121 -203 -1
-86 -48 -165 -125 -206 -48 -26 -160 -23 -211 6 -135 78 -159 259 -48 365 70
67 176 82 263 38z m-514 -540 c36 -55 65 -106 65 -114 0 -7 -14 -24 -32 -37
l-32 -23 -38 44 -38 44 -36 -42 c-20 -24 -39 -43 -43 -43 -14 0 -61 45 -61 58
0 19 128 212 140 212 6 0 39 -45 75 -99z"/>
</g>
</svg>
